<svg enable-background="new 0 0 296.5 62.4" viewBox="0 0 296.5 62.4" xmlns="http://www.w3.org/2000/svg"><g fill="#002b4f"><path d="m293.7 42c-1.7 0-3 .9-3.8 3.4v-3h-2.5v13.2h2.5v-4.9c0-3.4 1.1-6.4 3.6-6.4.6 0 1.1.2 1.9.4l.4-2.3c-.2 0-1.2-.4-2.1-.4m-20.4 5.9c.4-2.5 2.1-3.6 4.1-3.6 2.3 0 3.8 1.3 4.1 3.6zm11 1.1c0-4.1-2.8-7-6.6-7s-6.8 2.6-6.8 7 3 7 6.8 7c2.5 0 4.9-1.3 6-3.6l-2.1-.9c-.8 1.3-2.3 2.1-3.8 2.1-2.3 0-4-1.1-4.3-3.6h10.7c-.1-.3.1-.6.1-1m-21.5 3.2-4-9.8h-2.6l5.3 12.8-2.8 6.8h2.6l8.1-19.6h-2.6zm-18.7-4.3c.4-2.5 1.9-3.6 4.1-3.6s3.8 1.3 4.1 3.6zm10.7 1.1c0-4.1-2.8-7-6.6-7s-6.8 2.6-6.8 7 3 7 6.8 7c2.5 0 4.9-1.3 6-3.6l-2.1-.9c-.8 1.3-2.3 2.1-3.8 2.1-2.3 0-4-1.1-4.3-3.6h10.7c.1-.3.1-.6.1-1m-18.4-12.8h-2.3l-7 14.5-7-14.5h-2.3l-2.5 19.4h2.5l1.7-14.9 6.2 12.6h2.3l6.4-12.6 1.9 14.9h2.5zm-37 5.8c-1.5 0-3.6.8-4.3 2.3v-2.1h-2.5v13.2h2.5v-7.2c0-2.8 2.3-4 4-4 1.9 0 3.2 1.3 3.2 3.6v7.5h2.5v-7.5c.1-3.5-2-5.8-5.4-5.8m-17.9 11.7c-2.5 0-4.3-2.1-4.3-4.7 0-2.5 1.9-4.5 4.3-4.5 2.3 0 4.5 1.9 4.5 4.5-.1 2.6-2.2 4.7-4.5 4.7m4.4-9.2c-.9-1.5-2.8-2.5-4.7-2.5-3.8 0-6.6 3-6.6 7s3 7 6.4 7c2.1 0 4-1.1 4.9-2.6v2.3h2.5v-13.3h-2.5zm-14.7-2.1h-2.5v13.2h2.5zm-1.2-3.2c.9 0 1.7-.8 1.7-1.7s-.8-1.7-1.7-1.7-1.7.8-1.7 1.7.8 1.7 1.7 1.7m-6.8 3.2v-4.9h-2.5v4.9h-2.5v2.1h2.5v11.1h2.5v-11.1h2.8v-2.1zm-11.8 13.6c2.8 0 5.1-1.5 5.1-4 0-1.5-.8-3.2-3.4-3.8l-1.9-.6c-.9-.2-1.7-.8-1.7-1.5 0-.9.8-1.9 2.1-1.9 1.1 0 2.1.8 2.1 1.7h2.5c0-2.6-2.3-3.8-4.5-3.8-2.6 0-4.5 1.7-4.5 4 0 2.1 1.3 3.2 3.4 3.8l1.9.4c1.1.2 1.9.8 1.9 1.7 0 1.1-.9 1.9-2.6 1.9s-2.6-.9-2.6-2.1h-2.3c-.4 2.7 2 4.2 4.5 4.2m-8.1-13.6h-2.5v13.2h2.5zm-1.4-3.2c.9 0 1.7-.8 1.7-1.7s-.8-1.7-1.7-1.7-1.7.8-1.7 1.7.8 1.7 1.7 1.7m-6 2.8c-1.7 0-3 .9-3.8 3.4v-3h-2.5v13.2h2.5v-4.9c0-3.4 1.1-6.4 3.6-6.4.6 0 1.1.2 1.9.4l.4-2.3c-.2 0-1.2-.4-2.1-.4m-15.5 0c-1.5 0-3.6.8-4.3 2.3v-9.3h-2.5v20.4h2.5v-7.2c0-2.8 2.3-4 4-4 1.9 0 3.2 1.3 3.2 3.6v7.5h2.5v-7.5c-.1-3.5-2.1-5.8-5.4-5.8m-17.3 14c3 0 5.7-1.3 7.4-3.4l-1.9-1.5c-1.3 1.5-3.2 2.5-5.5 2.5-4.1 0-7.4-3.6-7.4-7.7s3.2-7.7 7.4-7.7c2.3 0 4.1.9 5.5 2.5l1.9-1.5c-1.7-2.1-4.3-3.4-7.4-3.4-5.5 0-9.8 4.5-9.8 10.2s4.3 10 9.8 10"/><path d="m222.2 18.3c.4-2.5 1.9-3.6 4.1-3.6 2.3 0 3.8 1.3 4.1 3.6zm10.8.9c0-4.1-2.8-7-6.6-7s-6.8 2.6-6.8 7 3 7 6.8 7c2.5 0 4.9-1.3 6-3.6l-2.1-.9c-.8 1.3-2.3 2.1-3.8 2.1-2.3 0-4-1.1-4.3-3.6h10.8c0-.2 0-.6 0-1m-23.8 4.7c-2.5 0-4.3-2.1-4.3-4.7s1.9-4.5 4.3-4.5c2.3 0 4.5 1.7 4.5 4.5s-2 4.7-4.5 4.7m4.6-9c-.9-1.5-2.8-2.5-4.7-2.5-3.6 0-6.6 2.8-6.6 7s3 7 6.6 7c1.9 0 3.8-.9 4.7-2.5v2.1h2.5v-20.4h-2.5zm-21.7 9c-2.5 0-4.3-2.1-4.3-4.7 0-2.5 1.9-4.5 4.3-4.5 2.3 0 4.5 1.9 4.5 4.5 0 2.8-2.3 4.7-4.5 4.7m4.5-9c-.9-1.5-2.8-2.5-4.7-2.5-3.8 0-6.6 3-6.6 7s3 7 6.4 7c2.1 0 4-1.1 4.9-2.6v2.2h2.5v-13.2h-2.5zm-1.5-4.4c.9 0 1.7-.8 1.7-1.7s-.8-1.7-1.7-1.7-1.7.8-1.7 1.7c0 1 .8 1.7 1.7 1.7m-5.3 0c.9 0 1.7-.8 1.7-1.7s-.8-1.7-1.7-1.7-1.7.8-1.7 1.7c0 1 .8 1.7 1.7 1.7m-13.9 13.4c-2.1 0-4.5-1.7-4.5-4.5s2.1-4.7 4.5-4.7 4.3 2.1 4.3 4.7-1.9 4.5-4.3 4.5m.2-11.5c-1.9 0-3.8.9-4.7 2.5v-2.1h-2.5v19.6h2.5v-8.5c.9 1.5 2.8 2.5 4.7 2.5 3.6 0 6.6-2.8 6.6-7s-3.1-7-6.6-7m-17.6 11.5c-2.5 0-4.3-1.9-4.3-4.7 0-2.6 2.1-4.5 4.3-4.5 2.5 0 4.5 1.9 4.5 4.5 0 2.8-2 4.7-4.5 4.7m0 2.3c3.8 0 7-2.8 7-7s-3.2-6.8-7-6.8-7 2.8-7 7 3.4 6.8 7 6.8m-15.2-13.8c-1.5 0-3.6.8-4.3 2.3v-9h-2.5v20.3h2.5v-7.2c0-2.8 2.3-4 4-4 1.9 0 3.2 1.3 3.2 3.6v7.6h2.5v-7.5c-.2-3.8-2.2-6.1-5.4-6.1m-12.5.4v-5.1h-2.5v4.9h-2.5v2.1h2.5v11.1h2.5v-10.9h2.8v-2.1zm-8.3-.4c-1.7 0-3 .9-3.8 3.4v-3h-2.5v13.2h2.5v-4.9c0-3.4 1.1-6.4 3.6-6.4.6 0 1.1.2 1.9.4l.4-2.3c-.2-.2-1.1-.4-2.1-.4m-19.4 11.5c-4.1 0-7.4-3.6-7.4-7.7s3.2-7.7 7.4-7.7c4.1 0 7.4 3.6 7.4 7.7s-3.2 7.7-7.4 7.7m0 2.3c5.7 0 9.8-4.5 9.8-10s-4.3-10.2-9.8-10.2-9.8 4.5-9.8 10.2 4.3 10 9.8 10"/><path d="m62.6 19.8h-2.7l-7.7 16-7.7-16h-2.7l-2.6 21.7h2.8l1.9-16.6 7 14.1h2.6l6.8-14.1 2.1 16.6h2.8z"/><path d="m30.9 60.7c-8.1 0-15.6-3.2-21.3-8.9s-8.8-13.2-8.8-21.3 3.2-15.6 8.8-21.3 13.2-8.9 21.3-8.9 15.6 3.2 21.3 8.9l-2.1 2.1c-5.1-4.9-11.8-7.7-19.2-7.7-7.2 0-13.9 2.8-19.2 7.9-5.1 5.1-7.9 11.9-7.9 19.2 0 7.2 2.8 13.9 7.9 19.2 5.3 4.9 12.1 7.7 19.2 7.7s13.9-2.8 19.2-7.9l2.1 2.1c-5.6 5.7-13.2 8.9-21.3 8.9"/></g></svg>