<?xml version="1.0" encoding="utf-8"?>
<!-- Generator: Adobe Illustrator 27.8.1, SVG Export Plug-In . SVG Version: 6.00 Build 0)  -->
<svg version="1.1" id="Ebene_1" xmlns="http://www.w3.org/2000/svg" xmlns:xlink="http://www.w3.org/1999/xlink" x="0px" y="0px"
	 viewBox="0 0 375 375" style="enable-background:new 0 0 375 375;" xml:space="preserve">
<style type="text/css">
	.st0{clip-path:url(#SVGID_00000122682710123721396100000015312717024952865439_);}
	.st1{clip-path:url(#SVGID_00000002348475707237639730000014781101489635242679_);fill:#002C50;}
	.st2{clip-path:url(#SVGID_00000002348475707237639730000014781101489635242679_);}
	.st3{clip-path:url(#SVGID_00000105395822956535670840000004524199910649454983_);fill:#C0CDD1;}
	.st4{clip-path:url(#SVGID_00000122682710123721396100000015312717024952865439_);fill:#FFFFFF;}
	.st5{clip-path:url(#SVGID_00000004512292761225578250000000098727366693160872_);}
	.st6{clip-path:url(#SVGID_00000159444283674741931950000004214409044783262099_);fill:#C0CDD1;}
	
		.st7{clip-path:url(#SVGID_00000004512292761225578250000000098727366693160872_);fill:none;stroke:#FFFFFF;stroke-width:8.371;stroke-linejoin:round;stroke-miterlimit:10;}
	
		.st8{clip-path:url(#SVGID_00000004512292761225578250000000098727366693160872_);fill:none;stroke:#FFFFFF;stroke-width:12.57;stroke-linejoin:round;stroke-miterlimit:10;}
	
		.st9{clip-path:url(#SVGID_00000122682710123721396100000015312717024952865439_);fill:none;stroke:#FFFFFF;stroke-width:12.57;stroke-linejoin:round;stroke-miterlimit:10;}
	
		.st10{clip-path:url(#SVGID_00000070100584774109284790000006975162438985764285_);fill:none;stroke:#FFFFFF;stroke-width:6.285;stroke-linejoin:round;stroke-miterlimit:10;}
	
		.st11{clip-path:url(#SVGID_00000122682710123721396100000015312717024952865439_);fill:none;stroke:#FFFFFF;stroke-width:6.285;stroke-linejoin:round;stroke-miterlimit:10;}
	
		.st12{clip-path:url(#SVGID_00000122682710123721396100000015312717024952865439_);fill:none;stroke:#FFFFFF;stroke-width:3;stroke-linejoin:round;stroke-miterlimit:10;}
	
		.st13{clip-path:url(#SVGID_00000093876086508945415880000008171705155852200840_);fill:none;stroke:#FFFFFF;stroke-width:6.285;stroke-linejoin:round;stroke-miterlimit:10;}
	
		.st14{clip-path:url(#SVGID_00000122682710123721396100000015312717024952865439_);fill:none;stroke:#FFFFFF;stroke-width:3.142;stroke-linejoin:round;stroke-miterlimit:10;}
	
		.st15{clip-path:url(#SVGID_00000011006402807577638560000012219436471592097724_);fill:none;stroke:#FFFFFF;stroke-width:3;stroke-linejoin:round;stroke-miterlimit:10;}
	
		.st16{clip-path:url(#SVGID_00000011006402807577638560000012219436471592097724_);fill:none;stroke:#FFFFFF;stroke-width:3.142;stroke-linejoin:round;stroke-miterlimit:10;}
	.st17{clip-path:url(#SVGID_00000011006402807577638560000012219436471592097724_);fill:#002C50;}
	.st18{clip-path:url(#SVGID_00000110459516830963323600000017458316117963295894_);fill:#FFFFFF;}
</style>
<g>
	<defs>
		<rect id="SVGID_1_" width="375" height="375"/>
	</defs>
	<clipPath id="SVGID_00000112599686417511457090000001514429817899031714_">
		<use xlink:href="#SVGID_1_"  style="overflow:visible;"/>
	</clipPath>
	<g style="clip-path:url(#SVGID_00000112599686417511457090000001514429817899031714_);">
		<defs>
			<rect id="SVGID_00000181790583007135532700000017326804347547017102_" width="375" height="375"/>
		</defs>
		<clipPath id="SVGID_00000120529024308668798270000009964663512208784827_">
			<use xlink:href="#SVGID_00000181790583007135532700000017326804347547017102_"  style="overflow:visible;"/>
		</clipPath>
		<path style="clip-path:url(#SVGID_00000120529024308668798270000009964663512208784827_);fill:#002C50;" d="M311,322.7
			c-0.1-1.5,1.1-2.8,2.8-2.9c1.7-0.1,3,1,3.1,2.6c0.1,1.4-0.9,2.9-2.7,3C312.4,325.5,311.1,324.2,311,322.7 M317,325.2
			c0.9-0.6,1.4-1.8,1.3-3.1c-0.1-2.3-2-4.1-4.7-3.9c-2.6,0.2-4.3,2.2-4.2,4.5c0.1,1.2,0.7,2.4,1.7,2.9l-0.3,0
			c-2.8,0.2-4-0.9-4.1-2.8c-0.1-0.9,0.4-2,1.3-2.5l-0.8-1.3c-1.4,0.9-2.1,2.4-2,3.9c0.2,2.8,1.8,4.5,5.7,4.2l7.2-0.4l-0.1-1.6
			L317,325.2z M313.9,309.7c1.5,0.2,2.3,1.1,2.4,2.5c0.1,1.4-0.7,2.5-2.1,2.7L313.9,309.7z M313.6,316.6c2.7-0.2,4.3-2,4.1-4.4
			c-0.1-2.4-2-4.2-4.6-4c-2.7,0.2-4.3,2.2-4.2,4.6c0.1,1.6,1,3.1,2.5,3.7l0.5-1.4c-0.9-0.4-1.4-1.3-1.5-2.4
			c-0.1-1.4,0.6-2.6,2.1-2.9l0.4,6.8C313.2,316.6,313.4,316.6,313.6,316.6 M311,303.5l5.8-2.5l-0.1-1.5l-6.1-1.8l5.8-2.5l-0.1-1.7
			l-8.2,3.7l0.1,1.3l6.4,1.8l-6.1,2.7l0.1,1.3l8.6,2.6l-0.1-1.7L311,303.5z M316.3,288.7c-0.1-0.9-0.6-2.3-1.7-2.7l1.3-0.1l-0.1-1.6
			l-8.4,0.5l0.1,1.6l4.5-0.3c1.8-0.1,2.6,1.2,2.7,2.4c0.1,1.2-0.8,2.1-2.2,2.2l-4.8,0.3l0.1,1.6l4.9-0.3
			C315.1,292.1,316.5,290.7,316.3,288.7 M307.3,282.1l8.4-0.5l-0.1-1.6l-8.4,0.5L307.3,282.1z M317.7,280.7c0,0.6,0.5,1.1,1.1,1
			c0.6,0,1-0.6,1-1.2c0-0.6-0.5-1.1-1.1-1C318.1,279.6,317.7,280.1,317.7,280.7 M311.5,271.3c1.5,0.2,2.3,1.1,2.4,2.5
			c0.1,1.4-0.7,2.5-2.1,2.7L311.5,271.3z M311.3,278.2c2.7-0.2,4.3-2,4.1-4.4c-0.1-2.4-2-4.2-4.6-4c-2.7,0.2-4.3,2.2-4.2,4.6
			c0.1,1.6,1,3.1,2.5,3.7l0.5-1.4c-0.9-0.4-1.4-1.3-1.5-2.4c-0.1-1.4,0.6-2.6,2.1-2.9l0.4,6.8C310.8,278.2,311.1,278.2,311.3,278.2
			 M314.8,266.6l3.2-0.2l-0.1-1.6l-3.2,0.2l-0.1-1.5l-1.3,0.1l0.1,1.5l-7,0.4l0.1,1.6l7-0.4l0.1,1.8l1.3-0.1L314.8,266.6z
			 M305.7,258.7c0.2,2.6,2,4,4,3.9c1.8-0.1,2.8-1.4,3.2-3.6l0.3-1.6c0.3-1.7,1.2-1.9,1.6-1.9c1.2-0.1,2.1,1,2.2,2.3
			c0.1,1.3-0.7,2.4-1.9,2.5l0.1,1.6c2.2-0.1,3.5-2,3.4-4.1c-0.1-2.2-1.7-4-3.8-3.9c-1,0.1-2.5,0.6-3,3.2l-0.3,1.6
			c-0.2,1.1-0.7,2.2-1.9,2.3c-1.1,0.1-2.2-0.8-2.3-2.4c-0.1-1.7,0.9-2.8,2-2.9l-0.1-1.6C307.2,254.3,305.5,256.1,305.7,258.7"/>
		<path style="clip-path:url(#SVGID_00000120529024308668798270000009964663512208784827_);fill:#002C50;" d="M131.8,323.3
			c1.3-0.8,2.6-0.5,3.5,0.6c0.9,1.1,0.9,2.4-0.1,3.5L131.8,323.3z M135.6,329c2.1-1.7,2.3-4.2,0.7-6c-1.5-1.8-4.1-2.2-6.1-0.5
			c-2.1,1.7-2.2,4.3-0.7,6.2c1,1.2,2.6,1.9,4.2,1.5l-0.4-1.4c-1,0.2-1.9-0.3-2.6-1.1c-0.9-1.1-1-2.4,0-3.6l4.4,5.3
			C135.3,329.3,135.4,329.1,135.6,329 M130.1,317.2c1,0.3,2.1,0,2.9-0.7c1.4-1.1,1.5-3,0.1-4.6c-1.4-1.7-3.4-2-5.5-0.3l-7,5.8l1,1.2
			l7-5.8c1.4-1.2,2.6-1,3.4,0c0.7,0.9,0.7,1.9-0.1,2.6c-0.8,0.7-2.1,0.7-2.8-0.1l-0.3-0.4l-1,0.8l0.4,0.5c1,1.2,0.9,2.9-0.3,3.9
			c-1.2,1-2.8,0.8-3.8-0.4c-0.3-0.3-0.6-0.8-0.7-1.2l-1.3,0.6c0.2,0.5,0.6,1.1,0.9,1.4c1.6,2,4,2.2,5.9,0.7
			C130.2,320.3,130.6,318.7,130.1,317.2 M117.1,311.1c-1-1.2-0.7-3,0.5-4c1.2-1,3-0.9,4,0.3c0.9,1.1,0.9,3-0.4,4.1
			C119.8,312.5,118,312.3,117.1,311.1 M123.4,309.6c0.4-1.1,0.1-2.3-0.7-3.3c-1.5-1.8-4.2-2-6.1-0.4c-2,1.6-2.2,4.3-0.8,6
			c0.9,1,2.1,1.5,3.3,1.3l-1.2,0.9l1,1.2l6.5-5.3l-1-1.2L123.4,309.6z M118.6,301.4c-0.7-0.9-1.7-1.1-3.1-0.5l1.5-1.2l-1-1.2
			l-6.5,5.3l1,1.2l2.4-2c1.7-1.4,3.5-2.1,4.6-0.8c0.2,0.2,0.4,0.6,0.6,1.1l1.3-0.7C119.2,302.5,119,301.9,118.6,301.4 M113.7,295.8
			l2.4-2l-1-1.2l-2.4,2l-1-1.2l-1,0.9l1,1.2l-5.4,4.5l1,1.2l5.4-4.5l1.2,1.4l1-0.9L113.7,295.8z M102.2,295.4c1.1,1.3,2.8,1.9,4,0.9
			c0.7-0.6,1.3-1.6,0.5-3.2l-0.6-1.2c-0.2-0.5-0.4-1.1,0.1-1.5c0.5-0.4,1.2-0.3,1.8,0.3c0.4,0.5,0.5,1.3,0,1.7l1,1.2
			c1.3-1.1,0.9-2.7,0-3.8c-1.1-1.3-2.7-1.5-3.7-0.6c-1,0.9-1.1,1.9-0.5,3.2l0.5,1.1c0.3,0.6,0.4,1.2-0.1,1.6c-0.5,0.4-1.3,0.3-2-0.5
			c-0.7-0.8-0.6-1.7,0-2.1l-0.9-1.1C101,292.4,101.2,294.2,102.2,295.4 M103.7,283.4c-0.5-0.7-1.6-1.5-3.3-1.1
			c0.6-1.1,0.4-2.3-0.4-3.3c-0.8-0.9-1.9-1.4-2.9-1.1l1-0.8l-1-1.2l-6.5,5.3l1,1.2l3.5-2.9c1.4-1.1,2.7-0.7,3.5,0.2
			c0.7,0.9,0.5,2-0.6,2.9l-3.7,3l1,1.2l3.2-2.7c1.4-1.2,2.7-1.3,3.7-0.1c0.8,0.9,0.5,2.1-0.5,3l-3.7,3l1,1.2l3.8-3.1
			C104.7,286.8,105,285,103.7,283.4 M87.1,274.8c-1-1.2-0.7-3,0.5-4c1.2-1,3-0.9,4,0.3c0.9,1.1,0.9,3-0.4,4.1
			C89.9,276.2,88.1,276,87.1,274.8 M93.4,273.3c0.4-1.1,0.1-2.3-0.7-3.3c-1.5-1.8-4.2-2-6.1-0.4c-2,1.6-2.2,4.3-0.8,6
			c0.9,1,2.1,1.5,3.3,1.3l-1.2,1l1,1.2l6.5-5.3l-1-1.2L93.4,273.3z M88.7,265.1c-0.7-0.9-1.7-1.1-3.1-0.5l1.5-1.2l-1-1.2l-6.5,5.3
			l1,1.2l2.4-2c1.7-1.4,3.5-2.1,4.6-0.8c0.2,0.2,0.4,0.6,0.6,1.1l1.3-0.7C89.3,266.2,89.1,265.6,88.7,265.1 M83.7,259.5l2.4-2
			l-1-1.2l-2.4,2l-1-1.2l-1,0.9l1,1.2l-5.4,4.5l1,1.2l5.4-4.5l1.2,1.4l1-0.9L83.7,259.5z M80.6,255.3c-0.7-0.9-1.7-1.1-3.1-0.5
			l1.5-1.2l-1-1.2l-6.5,5.3l1,1.2l2.4-2c1.7-1.4,3.5-2.1,4.6-0.8c0.2,0.2,0.4,0.6,0.6,1.1l1.3-0.7C81.2,256.3,80.9,255.7,80.6,255.3
			 M69.4,247.7c1.3-0.8,2.6-0.5,3.5,0.6c0.9,1.1,0.9,2.4-0.1,3.5L69.4,247.7z M73.3,253.4c2.1-1.7,2.3-4.2,0.7-6
			c-1.5-1.8-4.1-2.2-6.1-0.5c-2.1,1.7-2.2,4.3-0.7,6.2c1,1.2,2.6,1.9,4.2,1.5l-0.4-1.4c-1,0.2-1.9-0.3-2.6-1.1c-0.9-1.1-1-2.4,0-3.6
			l4.4,5.3C72.9,253.7,73.1,253.5,73.3,253.4 M60.2,241.8l3.3-2.7l2,2.4c1,1.2,0.6,2.4-0.2,3.1c-0.9,0.7-2.1,0.7-3.1-0.4L60.2,241.8
			z M69.1,240.6c-0.8,0.7-1.8,0.7-2.5-0.1l-1.9-2.4l2.8-2.3l1.9,2.3C70.1,239,69.9,240,69.1,240.6 M67.2,242.3
			c1.1,0.6,2.2,0.2,3-0.5c1.5-1.2,1.6-3,0.3-4.6l-3-3.6l-9.6,7.9l3.2,3.9c1.4,1.8,3.6,1.7,5,0.6C67.3,245.1,67.9,243.6,67.2,242.3"
			/>
		<path style="clip-path:url(#SVGID_00000120529024308668798270000009964663512208784827_);fill:#002C50;" d="M217.6,257.9
			c0.7-1.4,1.9-1.8,3.2-1.4c1.3,0.4,2.1,1.5,1.9,2.9L217.6,257.9z M224,260.5c0.8-2.6-0.5-4.7-2.8-5.4s-4.6,0.4-5.4,3
			c-0.8,2.6,0.6,4.8,2.9,5.5c1.6,0.5,3.2,0.1,4.3-1.1l-1.1-0.9c-0.7,0.7-1.7,0.9-2.7,0.6c-1.4-0.4-2.2-1.5-2-3l6.6,1.9
			C223.8,261,223.9,260.7,224,260.5 M212.8,253.8c1-0.3,1.7-1.2,2-2.2c0.5-1.7-0.5-3.3-2.5-3.9c-2.1-0.6-3.9,0.2-4.7,2.9l-2.6,8.8
			l1.5,0.4l2.6-8.8c0.5-1.8,1.6-2.2,2.8-1.9c1.1,0.3,1.6,1.1,1.3,2.2c-0.3,1.1-1.3,1.8-2.3,1.4l-0.5-0.1l-0.4,1.2l0.6,0.2
			c1.5,0.5,2.4,1.9,2,3.4c-0.5,1.5-1.8,2.2-3.4,1.8c-0.4-0.1-0.9-0.3-1.2-0.6l-0.7,1.2c0.5,0.3,1.1,0.6,1.5,0.7
			c2.4,0.7,4.6-0.4,5.3-2.7C214.7,256.4,214.1,254.7,212.8,253.8 M198.6,256.1c-1.5-0.4-2.3-2.1-1.8-3.6c0.4-1.5,2-2.5,3.5-2
			c1.3,0.4,2.4,2,1.9,3.6C201.7,255.7,200,256.5,198.6,256.1 M203,251.3c-0.3-1.1-1.2-2-2.4-2.3c-2.3-0.7-4.6,0.7-5.3,3
			c-0.7,2.5,0.6,4.8,2.7,5.4c1.3,0.4,2.6,0,3.4-0.8l-0.4,1.4l1.5,0.4l2.4-8.1l-1.5-0.4L203,251.3z M194.4,247.2
			c-1.1-0.3-2,0.1-2.9,1.4l0.5-1.8l-1.5-0.4l-2.4,8.1l1.5,0.5l0.9-3c0.6-2.1,1.8-3.7,3.4-3.2c0.3,0.1,0.7,0.3,1.1,0.6l0.7-1.3
			C195.5,247.7,195,247.4,194.4,247.2 M187.2,245.3l0.9-3l-1.5-0.4l-0.9,3l-1.4-0.4l-0.4,1.3l1.4,0.4l-2,6.8l1.5,0.4l2-6.8l1.7,0.5
			l0.4-1.3L187.2,245.3z M176.7,251.1c2.5,0.7,4.5-0.5,5-2.4c0.5-1.7-0.4-3.1-2.3-4.2l-1.4-0.9c-1.5-0.9-1.4-1.8-1.2-2.2
			c0.3-1.2,1.7-1.6,2.9-1.3c1.3,0.4,2,1.5,1.7,2.7l1.6,0.5c0.6-2.1-0.7-3.9-2.7-4.6c-2.1-0.6-4.3,0.2-4.9,2.3c-0.3,1-0.3,2.6,2,3.9
			l1.4,0.8c0.9,0.6,1.8,1.4,1.5,2.5c-0.3,1.1-1.5,1.8-3,1.3c-1.6-0.5-2.3-1.8-2-2.9l-1.6-0.5C173,248.2,174.2,250.4,176.7,251.1
			 M171.5,245.8l0.4-1.4l-6-1.8l-0.4,1.4L171.5,245.8z M158.2,244.1c-1.5-0.4-2.3-2.1-1.8-3.6c0.4-1.5,2-2.5,3.5-2
			c1.3,0.4,2.4,2,1.9,3.6C161.3,243.7,159.6,244.6,158.2,244.1 M162.6,239.3c-0.3-1.1-1.2-2-2.4-2.3c-2.3-0.7-4.6,0.7-5.3,3
			c-0.7,2.5,0.6,4.8,2.7,5.4c1.3,0.4,2.6,0,3.4-0.8l-0.4,1.4l1.5,0.4l2.4-8.1l-1.5-0.4L162.6,239.3z M154,235.2
			c-1.1-0.3-2,0.1-2.9,1.4l0.5-1.8l-1.5-0.5l-2.4,8.1l1.5,0.4l0.9-3c0.6-2.1,1.8-3.7,3.4-3.2c0.3,0.1,0.7,0.3,1.1,0.6l0.7-1.3
			C155.1,235.7,154.6,235.4,154,235.2 M140.6,235.1c0.7-1.4,1.9-1.8,3.2-1.4c1.3,0.4,2.1,1.5,1.9,2.9L140.6,235.1z M147,237.7
			c0.8-2.6-0.5-4.7-2.8-5.4c-2.3-0.7-4.6,0.4-5.4,3c-0.8,2.6,0.6,4.8,2.9,5.5c1.6,0.5,3.2,0.1,4.3-1.1l-1.1-0.9
			c-0.7,0.7-1.7,0.9-2.7,0.6c-1.4-0.4-2.2-1.5-2-3l6.6,1.9C146.8,238.1,146.9,237.9,147,237.7 M131.6,231.1l1.3-4.5l3.1,0.9
			c1.4,0.4,1.6,1.7,1.3,2.8c-0.3,1.1-1.3,2.1-2.7,1.6L131.6,231.1z M131.8,224.7l-3.5,11.9l1.6,0.5l1.3-4.5l3.2,0.9
			c2.5,0.7,4.1-0.8,4.6-2.7c0.5-1.8,0.1-4-2.4-4.8L131.8,224.7z M126.4,232.5l0.4-1.4l-6-1.8l-0.4,1.4L126.4,232.5z M116.4,224.1
			c-0.9-0.3-2.3-0.2-3.1,0.6l1.7-5.6l-1.5-0.4l-3.7,12.4l1.5,0.4l1.3-4.4c0.5-1.7,2.1-2,3.2-1.7c1.1,0.3,1.7,1.4,1.3,2.8l-1.4,4.6
			l1.5,0.4l1.4-4.7C119.2,226.4,118.4,224.7,116.4,224.1 M104.7,229.8c1.3,0.4,2.5,0.2,3.4-0.4l-0.7-1.3c-0.7,0.4-1.5,0.5-2.3,0.2
			c-1.6-0.5-2.5-2-2-3.7c0.5-1.7,2.1-2.4,3.7-2c0.8,0.2,1.5,0.8,1.8,1.5l1.2-0.7c-0.5-1-1.4-1.8-2.7-2.2c-2.3-0.7-4.8,0.4-5.6,2.9
			C100.9,226.8,102.4,229.1,104.7,229.8 M98.4,227.7l2.4-8.1l-1.5-0.4l-2.4,8.1L98.4,227.7z M100.6,217.5c0.6,0.2,1.2-0.1,1.4-0.7
			c0.2-0.6-0.2-1.1-0.8-1.3c-0.6-0.2-1.2,0.1-1.3,0.7C99.7,216.7,100,217.3,100.6,217.5 M96.4,218.2c-1.1-0.3-2,0.1-2.9,1.4l0.5-1.8
			l-1.5-0.4l-2.4,8.1l1.5,0.4l0.9-3c0.6-2.1,1.8-3.7,3.4-3.2c0.3,0.1,0.7,0.3,1.1,0.6l0.7-1.3C97.6,218.7,97,218.3,96.4,218.2
			 M86.9,215.3c-0.9-0.3-2.3-0.2-3.1,0.6l0.4-1.2l-1.5-0.4l-2.4,8.1l1.5,0.4l1.3-4.4c0.5-1.7,2.1-2,3.2-1.7c1.1,0.3,1.7,1.4,1.3,2.8
			l-1.4,4.6l1.5,0.4l1.4-4.7C89.8,217.6,88.9,215.9,86.9,215.3 M77.7,221.6l2.4-8.1l-1.5-0.4l-2.4,8.1L77.7,221.6z M79.9,211.3
			c0.6,0.2,1.2-0.1,1.4-0.7c0.2-0.6-0.2-1.1-0.8-1.3c-0.6-0.2-1.2,0.1-1.3,0.7C79,210.6,79.3,211.2,79.9,211.3 M68.9,213.9
			c0.7-1.4,1.9-1.8,3.2-1.4c1.3,0.4,2.1,1.5,1.9,2.9L68.9,213.9z M75.3,216.5c0.8-2.6-0.5-4.7-2.8-5.4c-2.3-0.7-4.6,0.4-5.4,3
			c-0.8,2.6,0.6,4.8,2.9,5.5c1.6,0.5,3.2,0.1,4.3-1.1l-1.1-0.9c-0.7,0.7-1.7,0.9-2.7,0.6c-1.4-0.4-2.2-1.5-2-3l6.6,1.9
			C75.2,216.9,75.3,216.7,75.3,216.5 M64.1,210.4l-5.8-1.7l1.6-5.3l-1.6-0.5l-3.5,11.9l1.6,0.5l1.5-5.2l5.8,1.7l-1.5,5.2l1.6,0.5
			l3.5-11.9l-1.6-0.5L64.1,210.4z"/>
		<path style="clip-path:url(#SVGID_00000120529024308668798270000009964663512208784827_);fill:#002C50;" d="M230.4,156.5l1.5,4.2
			h-3.1L230.4,156.5z M234.8,164.4l-3.6-9.6h-1.5l-3.7,9.6h1.5l0.9-2.4h4l0.9,2.4H234.8z M221.4,156c0.9,0,1.5,0.7,1.5,1.7
			c0,1-0.5,1.7-1.9,1.7h-1.9V156H221.4z M224.4,164.4l-2.5-3.6c1.6-0.2,2.4-1.6,2.4-3c0-1.5-0.9-3.1-3-3.1h-3.7v9.6h1.4v-3.6h1.1
			l2.5,3.6H224.4z M211.1,156.5l1.5,4.2h-3.1L211.1,156.5z M215.6,164.4l-3.6-9.6h-1.5l-3.7,9.6h1.5l0.9-2.4h4l0.9,2.4H215.6z
			 M199.8,163v-3.1h2.3c1.1,0,1.6,0.8,1.6,1.6c0,0.8-0.6,1.6-1.7,1.6H199.8z M203.2,157.3c0,0.8-0.4,1.3-1.2,1.3h-2.2V156h2.2
			C202.8,156,203.2,156.6,203.2,157.3 M203.4,159.2c0.9-0.4,1.2-1.2,1.2-2c0-1.5-1-2.5-2.7-2.5h-3.7v9.6h4c1.8,0,2.9-1.3,2.9-2.7
			C205.2,160.6,204.6,159.5,203.4,159.2 M192.5,156c0.9,0,1.5,0.7,1.5,1.7c0,1-0.5,1.7-1.9,1.7h-1.9V156H192.5z M195.5,164.4
			l-2.5-3.6c1.6-0.2,2.4-1.6,2.4-3c0-1.5-0.9-3.1-3-3.1h-3.7v9.6h1.4v-3.6h1.1l2.5,3.6H195.5z M182.3,156.5l1.5,4.2h-3.1
			L182.3,156.5z M186.7,164.4l-3.6-9.6h-1.5l-3.7,9.6h1.5l0.9-2.4h4l0.9,2.4H186.7z M170.9,163v-3.1h2.3c1.1,0,1.6,0.8,1.6,1.6
			c0,0.8-0.6,1.6-1.7,1.6H170.9z M174.3,157.3c0,0.8-0.4,1.3-1.2,1.3h-2.2V156h2.2C173.9,156,174.3,156.6,174.3,157.3 M174.5,159.2
			c0.9-0.4,1.2-1.2,1.2-2c0-1.5-1-2.5-2.7-2.5h-3.7v9.6h4c1.8,0,2.9-1.3,2.9-2.7C176.3,160.6,175.7,159.5,174.5,159.2 M161.3,164.5
			c0.5,0,1-0.4,1-0.9c0-0.5-0.4-0.9-1-0.9c-0.5,0-1,0.4-1,0.9C160.3,164.1,160.7,164.5,161.3,164.5 M152.2,154.7v1.3h2.9v8.3h1.4
			V156h2.9v-1.3H152.2z M147.4,164.5c1.9,0,3.3-1.3,3.3-2.9c0-1.4-1-2.2-2.6-2.7l-1.2-0.3c-1.2-0.3-1.3-1-1.3-1.3
			c0-0.9,0.8-1.5,1.7-1.5c1,0,1.7,0.6,1.7,1.5h1.4c0-1.8-1.4-2.9-3.1-2.9c-1.7,0-3.2,1.1-3.2,2.8c0,0.8,0.3,2,2.4,2.5l1.2,0.3
			c0.8,0.2,1.6,0.6,1.6,1.5c0,0.8-0.7,1.5-1.8,1.5c-1.2,0-2-0.8-2-1.6h-1.4C143.9,163.1,145.3,164.5,147.4,164.5"/>
		<path style="clip-path:url(#SVGID_00000120529024308668798270000009964663512208784827_);fill:#002C50;" d="M253.7,147.2
			c-1.1,0-1.8-0.6-1.8-1.7c0-1.1,0.9-1.9,2.3-1.9h1.5v1.7C255.7,146.5,254.9,147.2,253.7,147.2 M258.3,147.2c-0.7,0-1.2-0.7-1.2-1.8
			v-1.7h1.2v-1.1h-1.2v-1.1h-1.3v1h-1.6c-1,0-1.6-0.6-1.6-1.4c0-0.8,0.5-1.3,1.3-1.3c0.5,0,1,0.3,1.3,0.8l1.1-0.8
			c-0.5-0.8-1.4-1.3-2.4-1.3c-1.5,0-2.6,1-2.6,2.5c0,0.9,0.4,1.7,1.1,2.1c-1,0.4-1.7,1.4-1.7,2.7c0,1.6,1.2,2.8,3,2.8
			c1.2,0,2.2-0.5,2.7-1.3c0.2,0.7,1,1.2,2,1.2h0.3v-1.3H258.3z M242.2,142.9h-4.5v-4.2h-1.4v9.6h1.4v-4.1h4.5v4.1h1.4v-9.6h-1.4
			V142.9z M226.7,138.7v1.3h2.9v8.3h1.4V140h2.9v-1.3H226.7z M220.4,144.3h3.8V143h-3.8V140h4.4v-1.3H219v9.6h5.9V147h-4.5V144.3z
			 M210.7,147v-3.1h2.3c1.1,0,1.6,0.8,1.6,1.6c0,0.8-0.6,1.6-1.7,1.6H210.7z M214.2,141.3c0,0.8-0.4,1.3-1.2,1.3h-2.2V140h2.2
			C213.8,140,214.2,140.6,214.2,141.3 M214.4,143.2c0.9-0.4,1.2-1.2,1.2-2c0-1.5-1-2.5-2.7-2.5h-3.7v9.6h4c1.8,0,2.9-1.3,2.9-2.7
			C216.1,144.6,215.5,143.5,214.4,143.2 M202.7,140.5l1.5,4.2h-3.1L202.7,140.5z M207.2,148.4l-3.6-9.6H202l-3.7,9.6h1.5l0.9-2.4h4
			l0.9,2.4H207.2z M193.7,148.5c1.9,0,3.3-1.3,3.3-2.9c0-1.4-1-2.2-2.6-2.7l-1.2-0.3c-1.2-0.3-1.3-1-1.3-1.3c0-0.9,0.8-1.5,1.7-1.5
			c1,0,1.7,0.6,1.7,1.5h1.4c0-1.8-1.4-2.9-3.1-2.9c-1.7,0-3.2,1.1-3.2,2.8c0,0.8,0.3,2,2.4,2.5l1.2,0.3c0.8,0.2,1.6,0.6,1.6,1.5
			c0,0.8-0.7,1.5-1.8,1.5c-1.2,0-2-0.8-2-1.6h-1.4C190.2,147.1,191.6,148.5,193.7,148.5 M187.4,138.7H186v9.6h1.4V138.7z
			 M179.6,138.7h-1.4v9.6h5.3V147h-3.9V138.7z M170.9,144.3h3.8V143h-3.8V140h4.4v-1.3h-5.8v9.6h5.9V147h-4.5V144.3z M161.3,148.5
			c0.5,0,1-0.4,1-0.9c0-0.5-0.4-0.9-1-0.9c-0.5,0-1,0.4-1,0.9C160.3,148.1,160.7,148.5,161.3,148.5 M152.2,138.7v1.3h2.9v8.3h1.4
			V140h2.9v-1.3H152.2z M147.4,148.5c1.9,0,3.3-1.3,3.3-2.9c0-1.4-1-2.2-2.6-2.7l-1.2-0.3c-1.2-0.3-1.3-1-1.3-1.3
			c0-0.9,0.8-1.5,1.7-1.5c1,0,1.7,0.6,1.7,1.5h1.4c0-1.8-1.4-2.9-3.1-2.9c-1.7,0-3.2,1.1-3.2,2.8c0,0.8,0.3,2,2.4,2.5l1.2,0.3
			c0.8,0.2,1.6,0.6,1.6,1.5c0,0.8-0.7,1.5-1.8,1.5c-1.2,0-2-0.8-2-1.6h-1.4C143.9,147.1,145.3,148.5,147.4,148.5"/>
		<path style="clip-path:url(#SVGID_00000120529024308668798270000009964663512208784827_);fill:#002C50;" d="M244.9,132.5
			c1.9,0,3.3-1.3,3.3-2.9c0-1.4-1-2.2-2.6-2.7l-1.2-0.3c-1.2-0.3-1.3-1-1.3-1.3c0-0.9,0.8-1.5,1.7-1.5c1,0,1.7,0.6,1.7,1.5h1.4
			c0-1.8-1.4-2.9-3.1-2.9c-1.7,0-3.2,1.1-3.2,2.8c0,0.8,0.3,2,2.4,2.5l1.2,0.3c0.8,0.2,1.6,0.6,1.6,1.5c0,0.8-0.7,1.5-1.8,1.5
			c-1.2,0-2-0.8-2-1.6h-1.4C241.5,131.1,242.9,132.5,244.9,132.5 M235.2,132.5c1.9,0,3.6-1.3,3.6-3.5v-6.3h-1.4v6.3
			c0,1.5-1,2.1-2.1,2.1c-1.1,0-2.1-0.7-2.1-2.1v-6.3h-1.4v6.3C231.7,131.3,233.3,132.5,235.2,132.5 M225.3,124.5l1.5,4.2h-3.1
			L225.3,124.5z M229.7,132.4l-3.6-9.6h-1.5l-3.7,9.6h1.5l0.9-2.4h4l0.9,2.4H229.7z M217.3,126.9h-4.5v-4.2h-1.4v9.6h1.4v-4.1h4.5
			v4.1h1.4v-9.6h-1.4V126.9z M206.5,129.7l-4.2-7H201v9.6h1.4v-7l4.2,7h1.4v-9.6h-1.4V129.7z M193.6,128.3h3.8V127h-3.8V124h4.4
			v-1.3h-5.8v9.6h5.9V131h-4.5V128.3z M185.9,127.5l3.6-4.8h-1.8l-3.1,4.1v-4.1h-1.4v9.6h1.4v-4.1l3.7,4.1h1.9L185.9,127.5z
			 M178.3,129.7l-4.2-7h-1.4v9.6h1.4v-7l4.2,7h1.4v-9.6h-1.4V129.7z M166.2,124.5l1.5,4.2h-3.1L166.2,124.5z M170.6,132.4l-3.6-9.6
			h-1.5l-3.7,9.6h1.5l0.9-2.4h4l0.9,2.4H170.6z M157.2,124c0.9,0,1.5,0.7,1.5,1.7c0,1-0.5,1.7-1.9,1.7H155V124H157.2z M160.3,132.4
			l-2.5-3.6c1.6-0.2,2.4-1.6,2.4-3c0-1.5-0.9-3.1-3-3.1h-3.7v9.6h1.4v-3.6h1.1l2.5,3.6H160.3z M147.2,127.5l3.6-4.8h-1.8l-3.1,4.1
			v-4.1h-1.4v9.6h1.4v-4.1l3.7,4.1h1.9L147.2,127.5z"/>
		<path style="clip-path:url(#SVGID_00000120529024308668798270000009964663512208784827_);fill:#002C50;" d="M171.6,86.4
			c0.7-1.3,1.9-1.7,3.3-1.2c1.3,0.5,2,1.6,1.7,3L171.6,86.4z M177.8,89.3c0.9-2.5-0.2-4.7-2.5-5.5c-2.3-0.8-4.6,0.2-5.5,2.7
			c-0.9,2.5,0.3,4.8,2.6,5.6c1.5,0.5,3.2,0.3,4.4-0.8l-1.1-1c-0.7,0.6-1.8,0.8-2.7,0.4c-1.4-0.5-2.1-1.6-1.8-3.1l6.4,2.3
			C177.6,89.7,177.7,89.5,177.8,89.3 M167,82c1-0.2,1.8-1.1,2.2-2.1c0.6-1.7-0.3-3.3-2.3-4c-2.1-0.7-3.9,0-4.8,2.6l-3,8.6l1.5,0.5
			l3-8.6c0.6-1.7,1.7-2.2,2.9-1.7c1.1,0.4,1.6,1.2,1.2,2.3c-0.4,1-1.4,1.7-2.4,1.3l-0.5-0.2l-0.4,1.2l0.6,0.2c1.5,0.5,2.3,2,1.8,3.5
			c-0.5,1.5-2,2.1-3.4,1.6c-0.4-0.1-0.9-0.4-1.2-0.6l-0.8,1.2c0.4,0.3,1.1,0.7,1.5,0.8c2.4,0.8,4.6-0.2,5.4-2.4
			C168.7,84.6,168.2,83,167,82 M152.7,83.5c-1.5-0.5-2.2-2.2-1.6-3.7c0.5-1.5,2.1-2.4,3.6-1.8c1.3,0.5,2.3,2.1,1.7,3.7
			C155.8,83.3,154.1,84,152.7,83.5 M157.3,79c-0.2-1.1-1.1-2-2.3-2.4c-2.2-0.8-4.6,0.4-5.4,2.8c-0.9,2.4,0.3,4.8,2.4,5.5
			c1.3,0.5,2.6,0.2,3.5-0.6l-0.5,1.4l1.5,0.5l2.8-7.9l-1.5-0.5L157.3,79z M149,74.4c-1.1-0.4-2,0-2.9,1.2l0.6-1.8l-1.5-0.5l-2.8,7.9
			l1.5,0.5l1-2.9c0.7-2.1,2-3.6,3.6-3c0.3,0.1,0.7,0.3,1.1,0.7l0.7-1.3C150.1,75,149.6,74.6,149,74.4 M141.9,72.1l1.1-3l-1.5-0.5
			l-1.1,3l-1.4-0.5l-0.5,1.3l1.4,0.5l-2.4,6.7l1.5,0.5l2.4-6.7l1.7,0.6l0.5-1.3L141.9,72.1z M131.9,77.7c1.6,0.6,3.4,0.2,3.9-1.3
			c0.3-0.9,0.2-2-1.3-3l-1.1-0.7c-0.5-0.3-0.9-0.8-0.7-1.3c0.2-0.6,0.9-0.9,1.7-0.7c0.6,0.2,1.1,0.9,0.9,1.5l1.4,0.5
			c0.6-1.6-0.6-2.8-1.9-3.3c-1.6-0.6-3.1,0.1-3.5,1.4c-0.5,1.3,0.1,2.2,1.3,3l1,0.6c0.6,0.4,0.9,0.8,0.7,1.4c-0.2,0.6-1,0.9-2,0.6
			c-1-0.3-1.4-1.1-1.1-1.8l-1.4-0.5C129.3,75.8,130.4,77.2,131.9,77.7 M129.7,67.6c-1.1-0.4-2,0-2.9,1.2l0.6-1.8l-1.5-0.5l-2.8,7.9
			l1.5,0.5l1-2.9c0.7-2.1,2-3.6,3.6-3c0.3,0.1,0.7,0.3,1.1,0.7l0.7-1.3C130.8,68.1,130.3,67.8,129.7,67.6 M116.3,66.8
			c0.7-1.3,1.9-1.7,3.3-1.2c1.3,0.5,2,1.6,1.7,3L116.3,66.8z M122.5,69.7c0.9-2.5-0.2-4.7-2.5-5.5c-2.3-0.8-4.6,0.2-5.5,2.7
			c-0.9,2.5,0.3,4.8,2.6,5.6c1.5,0.5,3.2,0.3,4.4-0.8l-1.1-1c-0.7,0.6-1.8,0.8-2.7,0.4c-1.4-0.5-2.1-1.6-1.8-3.1l6.4,2.3
			C122.4,70.1,122.5,69.9,122.5,69.7 M110.9,66c-0.6,1.7-2.2,1.9-3.3,1.5c-1.1-0.4-1.6-1.5-1.1-2.9l1.6-4.5l-1.5-0.5l-1.6,4.6
			c-0.8,2.2-0.1,4,1.9,4.7c0.9,0.3,2.3,0.3,3.1-0.5l-0.4,1.2l1.5,0.5l2.8-7.9l-1.5-0.5L110.9,66z M97.6,64c-1.5-0.5-2.2-2.2-1.6-3.7
			c0.5-1.5,2.1-2.4,3.6-1.8c1.3,0.5,2.3,2.1,1.7,3.7C100.7,63.8,99,64.5,97.6,64 M102.2,59.5c-0.2-1.1-1.1-2-2.3-2.4
			c-2.2-0.8-4.6,0.4-5.4,2.8c-0.9,2.4,0.3,4.8,2.4,5.5c1.3,0.5,2.6,0.2,3.5-0.6l-0.5,1.4l1.5,0.5l2.8-7.9l-1.5-0.5L102.2,59.5z
			 M94.1,51l-1.4-0.5l-7.2,7.2l-1.1-10.1L83,47l-5.6,11.2l1.5,0.5l4.2-8.5l1,9l1.3,0.5l6.4-6.3l-2.1,9.3l1.5,0.5L94.1,51z"/>
		<g style="clip-path:url(#SVGID_00000120529024308668798270000009964663512208784827_);">
			<g>
				<defs>
					<rect id="SVGID_00000052785783623448707750000016130002980064140212_" x="159.6" y="183.2" width="38" height="28"/>
				</defs>
				<clipPath id="SVGID_00000007430880180210621980000001604559878653642664_">
					<use xlink:href="#SVGID_00000052785783623448707750000016130002980064140212_"  style="overflow:visible;"/>
				</clipPath>
				<path style="clip-path:url(#SVGID_00000007430880180210621980000001604559878653642664_);fill:#C0CDD1;" d="M178.6,210.2
					c5.5,0,10-4.5,10-10c0-5.5-4.5-10-10-10c-5.5,0-10,4.5-10,10C168.6,205.7,173,210.2,178.6,210.2"/>
			</g>
		</g>
	</g>
	
		<rect x="177.3" y="195.2" style="clip-path:url(#SVGID_00000112599686417511457090000001514429817899031714_);fill:#FFFFFF;" width="2.5" height="10"/>
	
		<rect x="173.6" y="198.9" style="clip-path:url(#SVGID_00000112599686417511457090000001514429817899031714_);fill:#FFFFFF;" width="10" height="2.5"/>
	<g style="clip-path:url(#SVGID_00000112599686417511457090000001514429817899031714_);">
		<defs>
			<rect id="SVGID_00000041278181911256785290000014024803199158844333_" width="375" height="375"/>
		</defs>
		<clipPath id="SVGID_00000052825692306072287630000015101263759921006720_">
			<use xlink:href="#SVGID_00000041278181911256785290000014024803199158844333_"  style="overflow:visible;"/>
		</clipPath>
		<g style="clip-path:url(#SVGID_00000052825692306072287630000015101263759921006720_);">
			<g>
				<defs>
					<rect id="SVGID_00000182494347756016974680000005315698260466963129_" x="134.9" y="78.8" width="117.7" height="152"/>
				</defs>
				<clipPath id="SVGID_00000046327000527864977610000014991558245832340380_">
					<use xlink:href="#SVGID_00000182494347756016974680000005315698260466963129_"  style="overflow:visible;"/>
				</clipPath>
				<polygon style="clip-path:url(#SVGID_00000046327000527864977610000014991558245832340380_);fill:#C0CDD1;" points="
					194.9,223.8 143.9,205.8 153.6,173.8 175.9,149.7 179.9,116.8 184.9,93.8 195.6,97.8 200.9,85.8 229.9,95.8 221.9,123.8 
					237.6,131.8 237.6,143.7 243.6,144.8 232.9,223.8 218.9,220.8 215.9,229.8 				"/>
			</g>
		</g>
		
			<path style="clip-path:url(#SVGID_00000052825692306072287630000015101263759921006720_);fill:none;stroke:#FFFFFF;stroke-width:8.371;stroke-linejoin:round;stroke-miterlimit:10;" d="
			M-3.9-20.4c46.3,17.1,92.7,34.1,139,51.2c48.7,6.2,97.5,12.4,146.2,18.6c78.5-10.9,156.9-21.8,235.4-32.7"/>
		
			<path style="clip-path:url(#SVGID_00000052825692306072287630000015101263759921006720_);fill:none;stroke:#FFFFFF;stroke-width:8.371;stroke-linejoin:round;stroke-miterlimit:10;" d="
			M-9.6-4.7l139.9,51.5c0.6,0.2,1.2,0.4,1.8,0.4l148.2,18.9c0.7,0.1,1.5,0.1,2.2,0L519,33.3"/>
		
			<polyline style="clip-path:url(#SVGID_00000052825692306072287630000015101263759921006720_);fill:none;stroke:#FFFFFF;stroke-width:12.57;stroke-linejoin:round;stroke-miterlimit:10;" points="
			291.6,66 279.1,107.6 297.9,403.8 263.3,514.4 		"/>
	</g>
	
		<line style="clip-path:url(#SVGID_00000112599686417511457090000001514429817899031714_);fill:none;stroke:#FFFFFF;stroke-width:12.57;stroke-linejoin:round;stroke-miterlimit:10;" x1="279.1" y1="104.5" x2="259.5" y2="63.7"/>
	<g style="clip-path:url(#SVGID_00000112599686417511457090000001514429817899031714_);">
		<defs>
			<rect id="SVGID_00000103974835110269165630000010990961688492645002_" width="375" height="375"/>
		</defs>
		<clipPath id="SVGID_00000123406504556827833150000014426955162251067780_">
			<use xlink:href="#SVGID_00000103974835110269165630000010990961688492645002_"  style="overflow:visible;"/>
		</clipPath>
		
			<polyline style="clip-path:url(#SVGID_00000123406504556827833150000014426955162251067780_);fill:none;stroke:#FFFFFF;stroke-width:6.285;stroke-linejoin:round;stroke-miterlimit:10;" points="
			-3.1,-2.6 316.8,116.2 514,93.5 		"/>
		
			<polyline style="clip-path:url(#SVGID_00000123406504556827833150000014426955162251067780_);fill:none;stroke:#FFFFFF;stroke-width:6.285;stroke-linejoin:round;stroke-miterlimit:10;" points="
			284.6,230.2 221.2,244.1 131.4,211.3 56.7,194 -12.4,227.8 -197.8,254.5 		"/>
		
			<polyline style="clip-path:url(#SVGID_00000123406504556827833150000014426955162251067780_);fill:none;stroke:#FFFFFF;stroke-width:6.285;stroke-linejoin:round;stroke-miterlimit:10;" points="
			18.2,213.7 56.8,261 127.4,347.8 247.6,517.5 		"/>
		
			<line style="clip-path:url(#SVGID_00000123406504556827833150000014426955162251067780_);fill:none;stroke:#FFFFFF;stroke-width:6.285;stroke-linejoin:round;stroke-miterlimit:10;" x1="23.7" y1="534.2" x2="55.9" y2="260"/>
		
			<line style="clip-path:url(#SVGID_00000123406504556827833150000014426955162251067780_);fill:none;stroke:#FFFFFF;stroke-width:6.285;stroke-linejoin:round;stroke-miterlimit:10;" x1="-199.9" y1="333.1" x2="293.2" y2="356.6"/>
	</g>
	
		<polyline style="clip-path:url(#SVGID_00000112599686417511457090000001514429817899031714_);fill:none;stroke:#FFFFFF;stroke-width:6.285;stroke-linejoin:round;stroke-miterlimit:10;" points="
		44.9,197.9 51.2,95.8 41,77 42.6,36.1 62.6,22.7 	"/>
	
		<polyline style="clip-path:url(#SVGID_00000112599686417511457090000001514429817899031714_);fill:none;stroke:#FFFFFF;stroke-width:3;stroke-linejoin:round;stroke-miterlimit:10;" points="
		230.6,241.9 235.1,266.3 258.9,288.3 258.9,303.8 245.3,314.2 155.7,282 152,275.5 171.4,226.2 	"/>
	
		<line style="clip-path:url(#SVGID_00000112599686417511457090000001514429817899031714_);fill:none;stroke:#FFFFFF;stroke-width:6.285;stroke-linejoin:round;stroke-miterlimit:10;" x1="199.7" y1="235.7" x2="217" y2="191.7"/>
	
		<line style="clip-path:url(#SVGID_00000112599686417511457090000001514429817899031714_);fill:none;stroke:#FFFFFF;stroke-width:6.285;stroke-linejoin:round;stroke-miterlimit:10;" x1="132.1" y1="210.5" x2="143.9" y2="171.8"/>
	<g style="clip-path:url(#SVGID_00000112599686417511457090000001514429817899031714_);">
		<defs>
			<rect id="SVGID_00000162350489232735847540000013245978761017550492_" width="375" height="375"/>
		</defs>
		<clipPath id="SVGID_00000094620342961986943880000008234345701260688535_">
			<use xlink:href="#SVGID_00000162350489232735847540000013245978761017550492_"  style="overflow:visible;"/>
		</clipPath>
		
			<polyline style="clip-path:url(#SVGID_00000094620342961986943880000008234345701260688535_);fill:none;stroke:#FFFFFF;stroke-width:6.285;stroke-linejoin:round;stroke-miterlimit:10;" points="
			350.5,113.1 358.4,197.9 375.1,211.3 461.3,197 		"/>
		
			<line style="clip-path:url(#SVGID_00000094620342961986943880000008234345701260688535_);fill:none;stroke:#FFFFFF;stroke-width:6.285;stroke-linejoin:round;stroke-miterlimit:10;" x1="354.5" y1="165.7" x2="418.1" y2="157.1"/>
		
			<polyline style="clip-path:url(#SVGID_00000094620342961986943880000008234345701260688535_);fill:none;stroke:#FFFFFF;stroke-width:6.285;stroke-linejoin:round;stroke-miterlimit:10;" points="
			322.3,113.9 318.6,82.5 322.3,74.6 519.8,51.8 		"/>
		
			<line style="clip-path:url(#SVGID_00000094620342961986943880000008234345701260688535_);fill:none;stroke:#FFFFFF;stroke-width:6.285;stroke-linejoin:round;stroke-miterlimit:10;" x1="352.9" y1="90.1" x2="510" y2="73"/>
	</g>
	
		<polyline style="clip-path:url(#SVGID_00000112599686417511457090000001514429817899031714_);fill:none;stroke:#FFFFFF;stroke-width:3.142;stroke-linejoin:round;stroke-miterlimit:10;" points="
		363.1,204.2 338.8,211.3 341.1,233.3 287.7,235.7 	"/>
	<g style="clip-path:url(#SVGID_00000112599686417511457090000001514429817899031714_);">
		<defs>
			<rect id="SVGID_00000092452749560996671120000016563285132330452098_" width="375" height="375"/>
		</defs>
		<clipPath id="SVGID_00000168833291741289323400000015968604500304167606_">
			<use xlink:href="#SVGID_00000092452749560996671120000016563285132330452098_"  style="overflow:visible;"/>
		</clipPath>
		
			<polyline style="clip-path:url(#SVGID_00000168833291741289323400000015968604500304167606_);fill:none;stroke:#FFFFFF;stroke-width:3;stroke-linejoin:round;stroke-miterlimit:10;" points="
			-41.5,68.3 -8.5,60.5 8.8,43 42,46.2 		"/>
		
			<line style="clip-path:url(#SVGID_00000168833291741289323400000015968604500304167606_);fill:none;stroke:#FFFFFF;stroke-width:3.142;stroke-linejoin:round;stroke-miterlimit:10;" x1="42" y1="34.5" x2="-5.1" y2="12.5"/>
		
			<polyline style="clip-path:url(#SVGID_00000168833291741289323400000015968604500304167606_);fill:none;stroke:#FFFFFF;stroke-width:3.142;stroke-linejoin:round;stroke-miterlimit:10;" points="
			9.1,43 -2.7,25.7 -0.4,14.9 		"/>
		
			<path style="clip-path:url(#SVGID_00000168833291741289323400000015968604500304167606_);fill:none;stroke:#FFFFFF;stroke-width:3.142;stroke-linejoin:round;stroke-miterlimit:10;" d="
			M5.7,48.7"/>
		<path style="clip-path:url(#SVGID_00000168833291741289323400000015968604500304167606_);fill:#002C50;" d="M305.9,203.9
			c11,0,20-9,20-20c0-11-9-20-20-20c-11,0-20,9-20,20C285.9,194.9,294.9,203.9,305.9,203.9"/>
	</g>
	<polygon style="clip-path:url(#SVGID_00000112599686417511457090000001514429817899031714_);fill:#FFFFFF;" points="319.7,178.8 
		318.5,178.8 314.9,186.4 311.2,178.8 310,178.8 308.8,189 310.1,189 311,181.2 314.3,187.9 315.5,187.9 318.7,181.2 319.6,189 
		320.9,189 	"/>
	<g style="clip-path:url(#SVGID_00000112599686417511457090000001514429817899031714_);">
		<defs>
			<rect id="SVGID_00000157299184067601558490000012116158239464785086_" width="375" height="375"/>
		</defs>
		<clipPath id="SVGID_00000061456595773902502460000015131631244521658760_">
			<use xlink:href="#SVGID_00000157299184067601558490000012116158239464785086_"  style="overflow:visible;"/>
		</clipPath>
		<path style="clip-path:url(#SVGID_00000061456595773902502460000015131631244521658760_);fill:#FFFFFF;" d="M304.9,197.9
			c-3.7,0-7.3-1.5-9.9-4.1c-2.6-2.6-4.1-6.2-4.1-9.9c0-3.7,1.5-7.3,4.1-9.9c2.6-2.6,6.2-4.1,9.9-4.1c3.7,0,7.3,1.5,9.9,4.1l-1,1
			c-2.4-2.4-5.6-3.7-8.9-3.7c-3.4,0-6.6,1.3-8.9,3.7c-2.4,2.4-3.7,5.6-3.7,8.9c0,3.4,1.3,6.6,3.7,8.9s5.6,3.7,8.9,3.7
			c3.4,0,6.6-1.3,8.9-3.7l1,1C312.2,196.5,308.7,197.9,304.9,197.9"/>
	</g>
</g>
</svg>
