<?xml version="1.0" encoding="utf-8"?>
<!-- Generator: Adobe Illustrator 27.8.1, SVG Export Plug-In . SVG Version: 6.00 Build 0)  -->
<svg version="1.1" id="Ebene_1" xmlns="http://www.w3.org/2000/svg" xmlns:xlink="http://www.w3.org/1999/xlink" x="0px" y="0px"
	 viewBox="0 0 668 540" style="enable-background:new 0 0 668 540;" xml:space="preserve">
<style type="text/css">
	.st0{clip-path:url(#SVGID_00000043434690362311839610000004675163446318500736_);}
	.st1{clip-path:url(#SVGID_00000073682473452605021890000000093259694675947656_);}
	.st2{clip-path:url(#SVGID_00000119830498375685967880000009883724296002385824_);fill:#C0CDD2;}
	
		.st3{clip-path:url(#SVGID_00000073682473452605021890000000093259694675947656_);fill:none;stroke:#FFFFFF;stroke-width:8.371;stroke-linejoin:round;stroke-miterlimit:10;}
	
		.st4{clip-path:url(#SVGID_00000043434690362311839610000004675163446318500736_);fill:none;stroke:#FFFFFF;stroke-width:12.57;stroke-linejoin:round;stroke-miterlimit:10;}
	
		.st5{clip-path:url(#SVGID_00000148624071500633436670000008560060331249195683_);fill:none;stroke:#FFFFFF;stroke-width:6.285;stroke-linejoin:round;stroke-miterlimit:10;}
	
		.st6{clip-path:url(#SVGID_00000148624071500633436670000008560060331249195683_);fill:none;stroke:#FFFFFF;stroke-width:12.57;stroke-linejoin:round;stroke-miterlimit:10;}
	
		.st7{clip-path:url(#SVGID_00000043434690362311839610000004675163446318500736_);fill:none;stroke:#FFFFFF;stroke-width:6.285;stroke-linejoin:round;stroke-miterlimit:10;}
	
		.st8{clip-path:url(#SVGID_00000094606119357378305960000017310137878373696934_);fill:none;stroke:#FFFFFF;stroke-width:12.57;stroke-linejoin:round;stroke-miterlimit:10;}
	
		.st9{clip-path:url(#SVGID_00000051353191434597853980000004487880847168257165_);fill:none;stroke:#FFFFFF;stroke-width:6.285;stroke-linejoin:round;stroke-miterlimit:10;}
	
		.st10{clip-path:url(#SVGID_00000027576146605304697540000017034813077536391838_);fill:none;stroke:#FFFFFF;stroke-width:6.285;stroke-linejoin:round;stroke-miterlimit:10;}
	
		.st11{clip-path:url(#SVGID_00000059280565865374231460000015950869466047252097_);fill:none;stroke:#FFFFFF;stroke-width:6.285;stroke-linejoin:round;stroke-miterlimit:10;}
	
		.st12{clip-path:url(#SVGID_00000053513628437919991660000001128705634161702536_);fill:none;stroke:#FFFFFF;stroke-width:6.285;stroke-linejoin:round;stroke-miterlimit:10;}
	
		.st13{clip-path:url(#SVGID_00000043434690362311839610000004675163446318500736_);fill:none;stroke:#FFFFFF;stroke-width:3;stroke-linejoin:round;stroke-miterlimit:10;}
	
		.st14{clip-path:url(#SVGID_00000134234991961877896390000000587476354963155075_);fill:none;stroke:#FFFFFF;stroke-width:6.285;stroke-linejoin:round;stroke-miterlimit:10;}
	
		.st15{clip-path:url(#SVGID_00000148624648643525573020000018353871684120390302_);fill:none;stroke:#FFFFFF;stroke-width:6.285;stroke-linejoin:round;stroke-miterlimit:10;}
	
		.st16{clip-path:url(#SVGID_00000043434690362311839610000004675163446318500736_);fill:none;stroke:#FFFFFF;stroke-width:3.142;stroke-linejoin:round;stroke-miterlimit:10;}
	
		.st17{clip-path:url(#SVGID_00000142873579514362269320000004045326355922569891_);fill:none;stroke:#FFFFFF;stroke-width:6.285;stroke-linejoin:round;stroke-miterlimit:10;}
	
		.st18{clip-path:url(#SVGID_00000045576806702701695650000009922896295430399365_);fill:none;stroke:#FFFFFF;stroke-width:3.142;stroke-linejoin:round;stroke-miterlimit:10;}
	.st19{clip-path:url(#SVGID_00000105422907540905685780000007462968685702264249_);fill:#002C50;}
	.st20{clip-path:url(#SVGID_00000043434690362311839610000004675163446318500736_);fill:#FFFFFF;}
	.st21{clip-path:url(#SVGID_00000106827592072699624660000001618869161348596111_);fill:#FFFFFF;}
	.st22{clip-path:url(#SVGID_00000093857625462162108120000007319510940743105923_);fill:#002C50;}
	.st23{clip-path:url(#SVGID_00000093857625462162108120000007319510940743105923_);}
	.st24{clip-path:url(#SVGID_00000029011942512933028330000018096551400190153653_);fill:#C0CDD2;}
	.st25{clip-path:url(#SVGID_00000022557941493511904710000012165265578695433384_);}
	.st26{clip-path:url(#SVGID_00000078727784663234167130000015732539124663309483_);fill:#C0CDD2;}
</style>
<g>
	<defs>
		<rect id="SVGID_1_" x="0.3" y="0" width="667.5" height="540.1"/>
	</defs>
	<clipPath id="SVGID_00000023979729482309896860000003531994341840649902_">
		<use xlink:href="#SVGID_1_"  style="overflow:visible;"/>
	</clipPath>
	<g style="clip-path:url(#SVGID_00000023979729482309896860000003531994341840649902_);">
		<defs>
			<rect id="SVGID_00000048499773648502075020000012549672606199484586_" x="0.3" y="0" width="667.5" height="540.1"/>
		</defs>
		<clipPath id="SVGID_00000053538777458570937260000015382886702941814919_">
			<use xlink:href="#SVGID_00000048499773648502075020000012549672606199484586_"  style="overflow:visible;"/>
		</clipPath>
		<g style="clip-path:url(#SVGID_00000053538777458570937260000015382886702941814919_);">
			<g>
				<defs>
					<rect id="SVGID_00000096044817694173027530000007768768865230214059_" x="292.9" y="65.1" width="117.7" height="152"/>
				</defs>
				<clipPath id="SVGID_00000174603329140659354040000006772138705836502673_">
					<use xlink:href="#SVGID_00000096044817694173027530000007768768865230214059_"  style="overflow:visible;"/>
				</clipPath>
				<polygon style="clip-path:url(#SVGID_00000174603329140659354040000006772138705836502673_);fill:#C0CDD2;" points="
					352.9,210.1 301.9,192.1 311.7,160.1 333.9,135.9 337.9,103.1 342.9,80.1 353.7,84.1 358.9,72.1 387.9,82.1 379.9,110.1 
					395.7,118.1 395.7,129.9 401.7,131.1 390.9,210.1 376.9,207.1 373.9,216.1 				"/>
			</g>
		</g>
		
			<path style="clip-path:url(#SVGID_00000053538777458570937260000015382886702941814919_);fill:none;stroke:#FFFFFF;stroke-width:8.371;stroke-linejoin:round;stroke-miterlimit:10;" d="
			M173.6-25c39.9,14,79.7,28,119.6,42c48.8,6.2,97.5,12.4,146.3,18.6c78.5-10.9,156.9-21.8,235.4-32.7"/>
		
			<path style="clip-path:url(#SVGID_00000053538777458570937260000015382886702941814919_);fill:none;stroke:#FFFFFF;stroke-width:8.371;stroke-linejoin:round;stroke-miterlimit:10;" d="
			M168-9.2l120.4,42.2c0.6,0.2,1.1,0.3,1.7,0.4l148.2,18.9c0.7,0.1,1.5,0.1,2.2,0l236.5-32.8"/>
	</g>
	
		<polyline style="clip-path:url(#SVGID_00000023979729482309896860000003531994341840649902_);fill:none;stroke:#FFFFFF;stroke-width:12.57;stroke-linejoin:round;stroke-miterlimit:10;" points="
		449.7,52.2 437.1,93.8 456,390 421.4,500.6 	"/>
	
		<line style="clip-path:url(#SVGID_00000023979729482309896860000003531994341840649902_);fill:none;stroke:#FFFFFF;stroke-width:12.57;stroke-linejoin:round;stroke-miterlimit:10;" x1="437.1" y1="90.8" x2="417.5" y2="49.9"/>
	<g style="clip-path:url(#SVGID_00000023979729482309896860000003531994341840649902_);">
		<defs>
			<rect id="SVGID_00000018949144998703885080000010599296646831940757_" x="0.3" y="0" width="667.5" height="540.1"/>
		</defs>
		<clipPath id="SVGID_00000145018442531399120970000011036418240498636210_">
			<use xlink:href="#SVGID_00000018949144998703885080000010599296646831940757_"  style="overflow:visible;"/>
		</clipPath>
		
			<polyline style="clip-path:url(#SVGID_00000145018442531399120970000011036418240498636210_);fill:none;stroke:#FFFFFF;stroke-width:6.285;stroke-linejoin:round;stroke-miterlimit:10;" points="
			249.3,20.8 474.8,102.5 672,79.7 		"/>
		
			<polyline style="clip-path:url(#SVGID_00000145018442531399120970000011036418240498636210_);fill:none;stroke:#FFFFFF;stroke-width:6.285;stroke-linejoin:round;stroke-miterlimit:10;" points="
			442.6,216.4 379.2,230.3 289.4,197.5 214.8,180.2 145.6,214 -39.8,240.7 		"/>
		
			<polyline style="clip-path:url(#SVGID_00000145018442531399120970000011036418240498636210_);fill:none;stroke:#FFFFFF;stroke-width:12.57;stroke-linejoin:round;stroke-miterlimit:10;" points="
			137,-7.5 126.2,22 106.4,76.4 58.4,124.5 -55.5,174 		"/>
		
			<line style="clip-path:url(#SVGID_00000145018442531399120970000011036418240498636210_);fill:none;stroke:#FFFFFF;stroke-width:12.57;stroke-linejoin:round;stroke-miterlimit:10;" x1="108.9" y1="-7.5" x2="126" y2="22.9"/>
	</g>
	
		<polyline style="clip-path:url(#SVGID_00000023979729482309896860000003531994341840649902_);fill:none;stroke:#FFFFFF;stroke-width:6.285;stroke-linejoin:round;stroke-miterlimit:10;" points="
		176.3,199.9 214.8,247.2 285.5,334 405.7,503.7 	"/>
	
		<line style="clip-path:url(#SVGID_00000023979729482309896860000003531994341840649902_);fill:none;stroke:#FFFFFF;stroke-width:6.285;stroke-linejoin:round;stroke-miterlimit:10;" x1="181.8" y1="520.4" x2="214" y2="246.2"/>
	
		<line style="clip-path:url(#SVGID_00000023979729482309896860000003531994341840649902_);fill:none;stroke:#FFFFFF;stroke-width:6.285;stroke-linejoin:round;stroke-miterlimit:10;" x1="58.4" y1="226.6" x2="52.2" y2="525.9"/>
	<g style="clip-path:url(#SVGID_00000023979729482309896860000003531994341840649902_);">
		<defs>
			<rect id="SVGID_00000155118717050671362590000007050472223864674949_" x="0.3" y="0" width="667.5" height="540.1"/>
		</defs>
		<clipPath id="SVGID_00000133492325029984103730000014501963307749793211_">
			<use xlink:href="#SVGID_00000155118717050671362590000007050472223864674949_"  style="overflow:visible;"/>
		</clipPath>
		
			<line style="clip-path:url(#SVGID_00000133492325029984103730000014501963307749793211_);fill:none;stroke:#FFFFFF;stroke-width:12.57;stroke-linejoin:round;stroke-miterlimit:10;" x1="401.2" y1="514.9" x2="-41.3" y2="526.7"/>
		
			<line style="clip-path:url(#SVGID_00000133492325029984103730000014501963307749793211_);fill:none;stroke:#FFFFFF;stroke-width:12.57;stroke-linejoin:round;stroke-miterlimit:10;" x1="433.2" y1="515.7" x2="672.8" y2="462.3"/>
		
			<ellipse transform="matrix(0.9675 -0.253 0.253 0.9675 -117.2049 122.3784)" style="clip-path:url(#SVGID_00000133492325029984103730000014501963307749793211_);fill:none;stroke:#FFFFFF;stroke-width:12.57;stroke-linejoin:round;stroke-miterlimit:10;" cx="417.2" cy="516.9" rx="14.7" ry="14.7"/>
		
			<line style="clip-path:url(#SVGID_00000133492325029984103730000014501963307749793211_);fill:none;stroke:#FFFFFF;stroke-width:12.57;stroke-linejoin:round;stroke-miterlimit:10;" x1="401.2" y1="522" x2="332.1" y2="577"/>
		
			<line style="clip-path:url(#SVGID_00000133492325029984103730000014501963307749793211_);fill:none;stroke:#FFFFFF;stroke-width:12.57;stroke-linejoin:round;stroke-miterlimit:10;" x1="418.2" y1="533" x2="400.2" y2="576"/>
		
			<line style="clip-path:url(#SVGID_00000133492325029984103730000014501963307749793211_);fill:none;stroke:#FFFFFF;stroke-width:12.57;stroke-linejoin:round;stroke-miterlimit:10;" x1="429.5" y1="529.8" x2="445" y2="577.8"/>
	</g>
	
		<polyline style="clip-path:url(#SVGID_00000023979729482309896860000003531994341840649902_);fill:none;stroke:#FFFFFF;stroke-width:6.285;stroke-linejoin:round;stroke-miterlimit:10;" points="
		53.7,453.6 106.4,444 410.6,413.6 430.8,413.6 441,433.2 	"/>
	<g style="clip-path:url(#SVGID_00000023979729482309896860000003531994341840649902_);">
		<defs>
			<rect id="SVGID_00000170961353337264420330000004805015552370996372_" x="0.3" y="0" width="667.5" height="540.1"/>
		</defs>
		<clipPath id="SVGID_00000093179394257936745870000010682597353450788002_">
			<use xlink:href="#SVGID_00000170961353337264420330000004805015552370996372_"  style="overflow:visible;"/>
		</clipPath>
		
			<line style="clip-path:url(#SVGID_00000093179394257936745870000010682597353450788002_);fill:none;stroke:#FFFFFF;stroke-width:6.285;stroke-linejoin:round;stroke-miterlimit:10;" x1="-41.9" y1="319.3" x2="451.2" y2="342.9"/>
	</g>
	
		<line style="clip-path:url(#SVGID_00000023979729482309896860000003531994341840649902_);fill:none;stroke:#FFFFFF;stroke-width:6.285;stroke-linejoin:round;stroke-miterlimit:10;" x1="195.9" y1="389.2" x2="53.7" y2="383.7"/>
	<g style="clip-path:url(#SVGID_00000023979729482309896860000003531994341840649902_);">
		<defs>
			<rect id="SVGID_00000125604476028036135170000004270151603918328217_" x="0.3" y="0" width="667.5" height="540.1"/>
		</defs>
		<clipPath id="SVGID_00000048468227185534697040000015628224469410547610_">
			<use xlink:href="#SVGID_00000125604476028036135170000004270151603918328217_"  style="overflow:visible;"/>
		</clipPath>
		
			<line style="clip-path:url(#SVGID_00000048468227185534697040000015628224469410547610_);fill:none;stroke:#FFFFFF;stroke-width:6.285;stroke-linejoin:round;stroke-miterlimit:10;" x1="52.2" y1="433.2" x2="-42.9" y2="414.4"/>
		
			<line style="clip-path:url(#SVGID_00000048468227185534697040000015628224469410547610_);fill:none;stroke:#FFFFFF;stroke-width:6.285;stroke-linejoin:round;stroke-miterlimit:10;" x1="51.4" y1="463.8" x2="-45" y2="447.2"/>
	</g>
	
		<polyline style="clip-path:url(#SVGID_00000023979729482309896860000003531994341840649902_);fill:none;stroke:#FFFFFF;stroke-width:6.285;stroke-linejoin:round;stroke-miterlimit:10;" points="
		142.5,213.2 134.6,137.8 137,73.2 145.6,67.9 148.3,46.6 	"/>
	<g style="clip-path:url(#SVGID_00000023979729482309896860000003531994341840649902_);">
		<defs>
			<rect id="SVGID_00000054947612273604581210000013569469090307072656_" x="0.3" y="0" width="667.5" height="540.1"/>
		</defs>
		<clipPath id="SVGID_00000040543124422330034950000001740924141168141190_">
			<use xlink:href="#SVGID_00000054947612273604581210000013569469090307072656_"  style="overflow:visible;"/>
		</clipPath>
		
			<polyline style="clip-path:url(#SVGID_00000040543124422330034950000001740924141168141190_);fill:none;stroke:#FFFFFF;stroke-width:6.285;stroke-linejoin:round;stroke-miterlimit:10;" points="
			203,184.2 209.3,82 199.1,63.2 200.6,22.3 217.1,10.4 		"/>
	</g>
	
		<line style="clip-path:url(#SVGID_00000023979729482309896860000003531994341840649902_);fill:none;stroke:#FFFFFF;stroke-width:6.285;stroke-linejoin:round;stroke-miterlimit:10;" x1="133.1" y1="104.6" x2="104.8" y2="103.2"/>
	<g style="clip-path:url(#SVGID_00000023979729482309896860000003531994341840649902_);">
		<defs>
			<rect id="SVGID_00000074442199496821783600000007065105134031437758_" x="0.3" y="0" width="667.5" height="540.1"/>
		</defs>
		<clipPath id="SVGID_00000142889918765307943980000015232704069373899708_">
			<use xlink:href="#SVGID_00000074442199496821783600000007065105134031437758_"  style="overflow:visible;"/>
		</clipPath>
		
			<polyline style="clip-path:url(#SVGID_00000142889918765307943980000015232704069373899708_);fill:none;stroke:#FFFFFF;stroke-width:6.285;stroke-linejoin:round;stroke-miterlimit:10;" points="
			13.7,139.4 7.7,126.8 -33.5,40.4 -13.6,-4.4 		"/>
		
			<polyline style="clip-path:url(#SVGID_00000142889918765307943980000015232704069373899708_);fill:none;stroke:#FFFFFF;stroke-width:6.285;stroke-linejoin:round;stroke-miterlimit:10;" points="
			8.9,128.4 32.5,105.6 87.5,94.6 		"/>
	</g>
	
		<polyline style="clip-path:url(#SVGID_00000023979729482309896860000003531994341840649902_);fill:none;stroke:#FFFFFF;stroke-width:3;stroke-linejoin:round;stroke-miterlimit:10;" points="
		388.6,228.2 393.1,252.5 416.9,274.5 416.9,290.1 403.3,300.4 313.8,268.2 310.1,261.8 329.5,212.4 	"/>
	
		<line style="clip-path:url(#SVGID_00000023979729482309896860000003531994341840649902_);fill:none;stroke:#FFFFFF;stroke-width:6.285;stroke-linejoin:round;stroke-miterlimit:10;" x1="357.8" y1="221.9" x2="375" y2="177.9"/>
	
		<line style="clip-path:url(#SVGID_00000023979729482309896860000003531994341840649902_);fill:none;stroke:#FFFFFF;stroke-width:6.285;stroke-linejoin:round;stroke-miterlimit:10;" x1="290.2" y1="196.7" x2="302" y2="158.1"/>
	
		<polyline style="clip-path:url(#SVGID_00000023979729482309896860000003531994341840649902_);fill:none;stroke:#FFFFFF;stroke-width:6.285;stroke-linejoin:round;stroke-miterlimit:10;" points="
		508.6,99.3 516.4,184.2 533.2,197.5 619.4,183.2 	"/>
	
		<line style="clip-path:url(#SVGID_00000023979729482309896860000003531994341840649902_);fill:none;stroke:#FFFFFF;stroke-width:6.285;stroke-linejoin:round;stroke-miterlimit:10;" x1="570.9" y1="93" x2="581.7" y2="188.1"/>
	
		<line style="clip-path:url(#SVGID_00000023979729482309896860000003531994341840649902_);fill:none;stroke:#FFFFFF;stroke-width:6.285;stroke-linejoin:round;stroke-miterlimit:10;" x1="512.5" y1="152" x2="576.2" y2="143.3"/>
	<g style="clip-path:url(#SVGID_00000023979729482309896860000003531994341840649902_);">
		<defs>
			<rect id="SVGID_00000067936928938144520980000016265008546632759430_" x="0.3" y="0" width="667.5" height="540.1"/>
		</defs>
		<clipPath id="SVGID_00000049204071000842574950000018339654109880486311_">
			<use xlink:href="#SVGID_00000067936928938144520980000016265008546632759430_"  style="overflow:visible;"/>
		</clipPath>
		
			<polyline style="clip-path:url(#SVGID_00000049204071000842574950000018339654109880486311_);fill:none;stroke:#FFFFFF;stroke-width:6.285;stroke-linejoin:round;stroke-miterlimit:10;" points="
			480.3,100.1 476.6,68.7 480.3,60.8 677.8,38 		"/>
		
			<line style="clip-path:url(#SVGID_00000049204071000842574950000018339654109880486311_);fill:none;stroke:#FFFFFF;stroke-width:6.285;stroke-linejoin:round;stroke-miterlimit:10;" x1="510.9" y1="76.4" x2="668.1" y2="59.3"/>
	</g>
	
		<polyline style="clip-path:url(#SVGID_00000023979729482309896860000003531994341840649902_);fill:none;stroke:#FFFFFF;stroke-width:6.285;stroke-linejoin:round;stroke-miterlimit:10;" points="
		589.7,48.1 598.2,124.5 613.9,129.8 643.7,371.8 640,385.3 645.3,423 	"/>
	<g style="clip-path:url(#SVGID_00000023979729482309896860000003531994341840649902_);">
		<defs>
			<rect id="SVGID_00000039817106139966824130000004755880515608655500_" x="0.3" y="0" width="667.5" height="540.1"/>
		</defs>
		<clipPath id="SVGID_00000128473290619751408650000011123322137889446322_">
			<use xlink:href="#SVGID_00000039817106139966824130000004755880515608655500_"  style="overflow:visible;"/>
		</clipPath>
		
			<line style="clip-path:url(#SVGID_00000128473290619751408650000011123322137889446322_);fill:none;stroke:#FFFFFF;stroke-width:6.285;stroke-linejoin:round;stroke-miterlimit:10;" x1="618" y1="150.4" x2="670.4" y2="143.3"/>
	</g>
	
		<polyline style="clip-path:url(#SVGID_00000023979729482309896860000003531994341840649902_);fill:none;stroke:#FFFFFF;stroke-width:3.142;stroke-linejoin:round;stroke-miterlimit:10;" points="
		521.2,190.5 496.8,197.5 499.2,219.5 445.7,221.9 	"/>
	<g style="clip-path:url(#SVGID_00000023979729482309896860000003531994341840649902_);">
		<defs>
			<rect id="SVGID_00000024706984594638143650000008317498058584958594_" x="0.3" y="0" width="667.5" height="540.1"/>
		</defs>
		<clipPath id="SVGID_00000120525574204449208180000010366866080502908321_">
			<use xlink:href="#SVGID_00000024706984594638143650000008317498058584958594_"  style="overflow:visible;"/>
		</clipPath>
		
			<polyline style="clip-path:url(#SVGID_00000120525574204449208180000010366866080502908321_);fill:none;stroke:#FFFFFF;stroke-width:6.285;stroke-linejoin:round;stroke-miterlimit:10;" points="
			643.7,372.7 655.7,375.9 672.8,366.4 		"/>
	</g>
	
		<polyline style="clip-path:url(#SVGID_00000023979729482309896860000003531994341840649902_);fill:none;stroke:#FFFFFF;stroke-width:3;stroke-linejoin:round;stroke-miterlimit:10;" points="
		116.6,54.5 149.6,46.7 166.8,29.2 200.1,32.4 	"/>
	<g style="clip-path:url(#SVGID_00000023979729482309896860000003531994341840649902_);">
		<defs>
			<rect id="SVGID_00000134242787776079070460000007242371349991378846_" x="0.3" y="0" width="667.5" height="540.1"/>
		</defs>
		<clipPath id="SVGID_00000139984146304627340040000017235896023687098297_">
			<use xlink:href="#SVGID_00000134242787776079070460000007242371349991378846_"  style="overflow:visible;"/>
		</clipPath>
		
			<line style="clip-path:url(#SVGID_00000139984146304627340040000017235896023687098297_);fill:none;stroke:#FFFFFF;stroke-width:3.142;stroke-linejoin:round;stroke-miterlimit:10;" x1="200.1" y1="20.8" x2="152.9" y2="-1.2"/>
		
			<polyline style="clip-path:url(#SVGID_00000139984146304627340040000017235896023687098297_);fill:none;stroke:#FFFFFF;stroke-width:3.142;stroke-linejoin:round;stroke-miterlimit:10;" points="
			167.1,29.2 155.3,11.9 157.7,1.1 		"/>
		
			<line style="clip-path:url(#SVGID_00000139984146304627340040000017235896023687098297_);fill:none;stroke:#FFFFFF;stroke-width:3.142;stroke-linejoin:round;stroke-miterlimit:10;" x1="133.1" y1="5" x2="154.3" y2="10.4"/>
	</g>
	
		<path style="clip-path:url(#SVGID_00000023979729482309896860000003531994341840649902_);fill:none;stroke:#FFFFFF;stroke-width:3.142;stroke-linejoin:round;stroke-miterlimit:10;" d="
		M163.7,34.9"/>
	<g style="clip-path:url(#SVGID_00000023979729482309896860000003531994341840649902_);">
		<defs>
			<rect id="SVGID_00000176023368946311771120000010127543181951473854_" x="0.3" y="0" width="667.5" height="540.1"/>
		</defs>
		<clipPath id="SVGID_00000059292820407188260920000010104082327403151795_">
			<use xlink:href="#SVGID_00000176023368946311771120000010127543181951473854_"  style="overflow:visible;"/>
		</clipPath>
		<path style="clip-path:url(#SVGID_00000059292820407188260920000010104082327403151795_);fill:#002C50;" d="M464,190.1
			c11,0,20-9,20-20c0-11-9-20-20-20c-11,0-20,9-20,20C444,181.2,452.9,190.1,464,190.1"/>
	</g>
	<polygon style="clip-path:url(#SVGID_00000023979729482309896860000003531994341840649902_);fill:#FFFFFF;" points="477.7,165 
		476.5,165 472.9,172.6 469.3,165 468.1,165 466.8,175.2 468.1,175.2 469.1,167.5 472.3,174.1 473.5,174.1 476.7,167.5 477.7,175.2 
		479,175.2 	"/>
	<g style="clip-path:url(#SVGID_00000023979729482309896860000003531994341840649902_);">
		<defs>
			<rect id="SVGID_00000107555147126804852840000007707022719243749769_" x="0.3" y="0" width="667.5" height="540.1"/>
		</defs>
		<clipPath id="SVGID_00000114775981323248426770000006681780970184298920_">
			<use xlink:href="#SVGID_00000107555147126804852840000007707022719243749769_"  style="overflow:visible;"/>
		</clipPath>
		<path style="clip-path:url(#SVGID_00000114775981323248426770000006681780970184298920_);fill:#FFFFFF;" d="M463,184.1
			c-3.7,0-7.3-1.5-9.9-4.1c-2.6-2.6-4.1-6.2-4.1-9.9c0-3.7,1.5-7.3,4.1-9.9c2.6-2.6,6.2-4.1,9.9-4.1c3.7,0,7.3,1.5,9.9,4.1l-1,1
			c-2.4-2.4-5.6-3.7-8.9-3.7c-3.4,0-6.6,1.3-8.9,3.7c-2.4,2.4-3.7,5.6-3.7,8.9c0,3.4,1.3,6.6,3.7,8.9c2.4,2.4,5.6,3.7,8.9,3.7
			c3.4,0,6.6-1.3,8.9-3.7l1,1C470.3,182.7,466.7,184.1,463,184.1"/>
	</g>
	<g style="clip-path:url(#SVGID_00000023979729482309896860000003531994341840649902_);">
		<defs>
			<rect id="SVGID_00000024681939828530060100000008011880241316061094_" x="0.3" y="0" width="667.5" height="540.1"/>
		</defs>
		<clipPath id="SVGID_00000074433598395671607180000012841016786998360465_">
			<use xlink:href="#SVGID_00000024681939828530060100000008011880241316061094_"  style="overflow:visible;"/>
		</clipPath>
		<path style="clip-path:url(#SVGID_00000074433598395671607180000012841016786998360465_);fill:#002C50;" d="M469.8,325.9
			c-0.1-1.5,1.1-2.8,2.8-2.9c1.7-0.1,3,1,3.1,2.6c0.1,1.4-0.9,2.9-2.7,3C471.1,328.7,469.9,327.4,469.8,325.9 M475.8,328.4
			c0.9-0.6,1.4-1.8,1.3-3.1c-0.1-2.3-2-4.1-4.7-3.9c-2.6,0.2-4.3,2.2-4.2,4.5c0.1,1.2,0.7,2.4,1.7,2.9l-0.3,0
			c-2.8,0.2-4-0.9-4.1-2.8c-0.1-0.9,0.4-2,1.3-2.5l-0.8-1.3c-1.4,0.9-2.1,2.4-2,3.9c0.2,2.8,1.8,4.5,5.7,4.2l7.2-0.4l-0.1-1.6
			L475.8,328.4z M472.6,312.9c1.5,0.2,2.3,1.1,2.4,2.5c0.1,1.4-0.7,2.5-2.1,2.7L472.6,312.9z M472.4,319.8c2.7-0.2,4.3-2,4.1-4.4
			c-0.1-2.4-2-4.2-4.6-4c-2.7,0.2-4.3,2.2-4.2,4.6c0.1,1.6,1,3.1,2.5,3.7l0.5-1.4c-0.9-0.4-1.4-1.3-1.5-2.4
			c-0.1-1.4,0.6-2.6,2.1-2.9l0.4,6.8C471.9,319.8,472.2,319.8,472.4,319.8 M469.8,306.7l5.8-2.5l-0.1-1.5l-6.1-1.8l5.8-2.5l-0.1-1.7
			l-8.2,3.7l0.1,1.3l6.4,1.8l-6.1,2.7l0.1,1.3l8.6,2.6l-0.1-1.7L469.8,306.7z M475.1,291.9c-0.1-0.9-0.6-2.3-1.7-2.7l1.3-0.1
			l-0.1-1.6l-8.4,0.5l0.1,1.6l4.5-0.3c1.8-0.1,2.6,1.2,2.7,2.4c0.1,1.2-0.8,2.1-2.2,2.2l-4.8,0.3l0.1,1.6l4.9-0.3
			C473.9,295.4,475.2,294,475.1,291.9 M466,285.4l8.4-0.5l-0.1-1.6l-8.4,0.5L466,285.4z M476.4,283.9c0,0.6,0.5,1.1,1.1,1
			c0.6,0,1-0.6,1-1.2c0-0.6-0.5-1.1-1.1-1C476.8,282.8,476.4,283.3,476.4,283.9 M470.3,274.5c1.5,0.2,2.3,1.1,2.4,2.5
			c0.1,1.4-0.7,2.5-2.1,2.7L470.3,274.5z M470,281.4c2.7-0.2,4.3-2,4.1-4.4c-0.1-2.4-2-4.2-4.6-4c-2.7,0.2-4.3,2.2-4.2,4.6
			c0.1,1.6,1,3.1,2.5,3.7l0.5-1.4c-0.9-0.4-1.4-1.3-1.5-2.4c-0.1-1.4,0.6-2.6,2.1-2.9l0.4,6.8C469.6,281.4,469.8,281.4,470,281.4
			 M473.5,269.8l3.2-0.2l-0.1-1.6l-3.2,0.2l-0.1-1.5l-1.3,0.1l0.1,1.5l-7,0.4l0.1,1.6l7-0.4l0.1,1.8l1.3-0.1L473.5,269.8z
			 M464.4,262c0.2,2.6,2,4,4,3.9c1.8-0.1,2.8-1.4,3.2-3.6l0.3-1.6c0.3-1.7,1.2-1.9,1.6-1.9c1.2-0.1,2.1,1,2.2,2.3
			c0.1,1.3-0.7,2.4-1.9,2.5l0.1,1.6c2.2-0.1,3.5-2,3.4-4.1c-0.1-2.2-1.7-4-3.8-3.9c-1,0.1-2.5,0.6-3,3.2l-0.3,1.6
			c-0.2,1.1-0.7,2.2-1.9,2.3c-1.1,0.1-2.2-0.8-2.3-2.4c-0.1-1.7,0.9-2.8,2-2.9l-0.1-1.6C465.9,257.5,464.2,259.4,464.4,262"/>
		<path style="clip-path:url(#SVGID_00000074433598395671607180000012841016786998360465_);fill:#002C50;" d="M614.2,321.9
			c0.1,0.6,0.6,1.1,1.2,1c0.6-0.1,1-0.7,1-1.3c-0.1-0.6-0.6-1.1-1.3-1C614.5,320.7,614.1,321.2,614.2,321.9 M613.9,318.3l12.9-1.7
			l-0.2-1.6l-12.9,1.7L613.9,318.3z M614.1,310.1c-0.2-1.4,0.7-3,2.5-3.2c1.8-0.2,3.1,1,3.3,2.4c0.2,1.5-0.9,2.9-2.6,3.1
			C615.7,312.7,614.3,311.7,614.1,310.1 M621.4,309.3c-0.2-1.2-0.9-2.3-1.9-2.8l1.3-0.2l-0.2-1.6l-12.4,1.6l0.2,1.6l5.4-0.7
			c-0.9,0.7-1.3,1.9-1.1,3.2c0.3,2.3,2.3,3.9,4.9,3.6C620.2,313.7,621.7,311.6,621.4,309.3 M616,296.4c1.5,0.1,2.4,1,2.6,2.4
			c0.2,1.4-0.5,2.5-1.9,2.9L616,296.4z M616.2,303.3c2.6-0.3,4.1-2.3,3.8-4.7c-0.3-2.4-2.3-4.1-4.9-3.7c-2.6,0.3-4.2,2.5-3.8,4.9
			c0.2,1.6,1.2,3,2.7,3.5l0.4-1.4c-0.9-0.4-1.5-1.2-1.6-2.3c-0.2-1.4,0.4-2.6,1.9-3l0.9,6.8C615.7,303.3,616,303.3,616.2,303.3
			 M615,290.2l4.1,3.1l-0.3-2.2l-3.3-2.5l7.5-1l-0.2-1.6l-12.9,1.7l0.2,1.6l4.1-0.5l-3.6,4.4l0.3,2.1L615,290.2z M609,282.6
			c0.2,1.3,0.8,2.4,1.7,3l0.9-1.1c-0.6-0.4-1-1.2-1.2-2c-0.2-1.6,0.8-3.1,2.5-3.3c1.7-0.2,3.1,0.9,3.3,2.6c0.1,0.9-0.1,1.7-0.6,2.3
			l1.1,0.8c0.7-0.8,1.1-2,0.9-3.3c-0.3-2.4-2.3-4.3-5-3.9C610.2,277.9,608.7,280.2,609,282.6 M616.5,271.6c-0.1-0.9-0.8-2.2-1.8-2.6
			l1.3-0.2l-0.2-1.6l-8.3,1.1l0.2,1.6l4.5-0.6c1.8-0.2,2.7,1.1,2.8,2.2c0.2,1.2-0.6,2.1-2,2.3l-4.7,0.6l0.2,1.6l4.8-0.6
			C615.5,275.2,616.7,273.7,616.5,271.6 M607.7,261.2c-0.2-1.5,1-2.9,2.6-3.1c1.6-0.2,3.1,0.8,3.3,2.3c0.2,1.4-0.8,3-2.5,3.2
			C609.3,263.9,607.9,262.7,607.7,261.2 M613.8,263.3c0.9-0.7,1.3-1.9,1.1-3.2c-0.3-2.4-2.5-3.9-4.9-3.6c-2.6,0.3-4.1,2.5-3.9,4.7
			c0.2,1.3,1,2.4,2.1,2.8l-1.5,0.2l0.2,1.6l8.3-1.1l-0.2-1.6L613.8,263.3z M614.1,253.8c-0.1-1.1-0.9-1.8-2.4-2.1l1.9-0.2l-0.2-1.6
			l-8.3,1.1l0.2,1.6l3.1-0.4c2.2-0.3,4.1,0.1,4.3,1.8c0,0.3,0,0.8-0.1,1.3l1.5,0.1C614.1,255,614.2,254.4,614.1,253.8 M617.2,248.2
			l-0.9-7.2l-12.3,1.6l0.2,1.6l5.3-0.7l0.6,4.4l1.5-0.2l-0.6-4.4l4-0.5l0.7,5.5L617.2,248.2z"/>
		<path style="clip-path:url(#SVGID_00000074433598395671607180000012841016786998360465_);fill:#002C50;" d="M620.9,455.2
			c-0.1-1.5,0.7-2.5,2.1-2.8c1.4-0.3,2.5,0.3,3,1.6L620.9,455.2z M627.8,454.3c-0.6-2.6-2.7-3.9-5-3.4c-2.3,0.5-3.8,2.6-3.3,5.2
			c0.6,2.6,2.8,3.9,5.2,3.4c1.6-0.4,2.9-1.5,3.3-3l-1.4-0.2c-0.3,0.9-1.1,1.6-2.1,1.8c-1.4,0.3-2.6-0.2-3.2-1.6l6.7-1.5
			C627.9,454.8,627.8,454.6,627.8,454.3 M614.8,453.9c0.7-0.7,0.9-1.9,0.7-2.9c-0.4-1.7-2-2.7-4-2.2c-2.1,0.5-3.3,2.1-2.7,4.8l2,8.9
			l1.5-0.3l-2-8.9c-0.4-1.8,0.3-2.7,1.5-3c1.1-0.2,2,0.2,2.2,1.3c0.2,1.1-0.3,2.2-1.3,2.4l-0.5,0.1l0.3,1.3l0.7-0.1
			c1.6-0.3,3,0.5,3.4,2c0.3,1.6-0.5,2.9-2.1,3.2c-0.4,0.1-0.9,0.1-1.4,0.1l0,1.4c0.5,0,1.3,0,1.7-0.1c2.5-0.5,3.8-2.6,3.3-4.9
			C617.6,455.2,616.3,454.1,614.8,453.9 M603.5,462.8c-1.5,0.3-3-0.7-3.3-2.3c-0.3-1.5,0.6-3.1,2.1-3.5c1.4-0.3,3.1,0.6,3.4,2.2
			C606,460.9,604.9,462.4,603.5,462.8 M605,456.5c-0.8-0.8-2-1.1-3.3-0.8c-2.3,0.5-3.7,2.8-3.1,5.2c0.6,2.5,2.8,3.9,5,3.4
			c1.3-0.3,2.3-1.2,2.6-2.3l0.3,1.5l1.5-0.3l-1.8-8.2l-1.5,0.3L605,456.5z M595.5,457c-1.1,0.2-1.7,1-1.8,2.6l-0.4-1.9l-1.5,0.3
			l1.8,8.2l1.5-0.3l-0.7-3c-0.5-2.2-0.2-4.1,1.4-4.4c0.3-0.1,0.8-0.1,1.3,0L597,457C596.7,456.9,596.1,456.9,595.5,457 M588.2,458.8
			l-0.7-3.1l-1.5,0.3l0.7,3.1l-1.5,0.3l0.3,1.3l1.5-0.3l1.5,6.9l1.5-0.3l-1.5-6.9l1.8-0.4l-0.3-1.3L588.2,458.8z M581.9,469.1
			c2.5-0.6,3.7-2.6,3.2-4.5c-0.4-1.7-1.8-2.5-4-2.6l-1.7-0.1c-1.7-0.1-2-0.9-2.1-1.3c-0.3-1.2,0.7-2.3,1.9-2.5
			c1.3-0.3,2.5,0.3,2.8,1.5l1.6-0.4c-0.5-2.2-2.5-3.1-4.6-2.7c-2.1,0.5-3.7,2.3-3.2,4.4c0.2,1,1,2.4,3.7,2.5l1.6,0
			c1.1,0,2.3,0.3,2.5,1.5c0.2,1.1-0.4,2.3-2,2.6c-1.6,0.4-2.9-0.5-3.2-1.6l-1.6,0.4C577.2,468.2,579.3,469.6,581.9,469.1
			 M574.7,466.9l-0.3-1.5l-6.1,1.3l0.3,1.5L574.7,466.9z M564.7,464L564,461l-1.5,0.3l0.7,3.1l-1.5,0.3l0.3,1.3l1.5-0.3l1.5,6.9
			l1.5-0.3l-1.5-6.9l1.8-0.4l-0.3-1.3L564.7,464z M557.1,473.1c-1.5,0.3-3-0.7-3.3-2.3c-0.4-1.7,0.6-3.1,2.1-3.4
			c1.4-0.3,3,0.5,3.4,2.2C559.6,471.3,558.5,472.7,557.1,473.1 M558.6,466.7c-0.8-0.8-2-1.1-3.3-0.8c-2.2,0.5-3.7,2.6-3.1,5.2
			c0.6,2.6,2.8,3.9,5.1,3.4c1.2-0.3,2.2-1.1,2.6-2.1l0.3,1.3l1.5-0.3l-2.8-12.7l-1.5,0.3L558.6,466.7z M545.9,468
			c-0.9,0.2-2.1,1-2.4,2.1l-0.3-1.2l-1.5,0.3l1.8,8.2l1.5-0.3l-1-4.4c-0.4-1.8,0.8-2.8,2-3c1.1-0.3,2.2,0.4,2.5,1.8l1,4.7l1.5-0.3
			l-1.1-4.7C549.6,468.6,548,467.5,545.9,468 M536.3,477.7c-1.5,0.3-3-0.7-3.3-2.3c-0.3-1.5,0.6-3.1,2.1-3.5
			c1.4-0.3,3.1,0.6,3.4,2.2C538.8,475.8,537.7,477.3,536.3,477.7 M537.8,471.3c-0.8-0.8-2-1.1-3.3-0.8c-2.3,0.5-3.7,2.8-3.1,5.2
			c0.6,2.5,2.8,3.9,5,3.4c1.3-0.3,2.3-1.2,2.6-2.3l0.3,1.5l1.5-0.3l-1.8-8.2l-1.5,0.3L537.8,471.3z M528.3,471.9
			c-1.1,0.2-1.7,1-1.8,2.6l-0.4-1.9l-1.5,0.3l1.8,8.2l1.5-0.3l-0.7-3c-0.5-2.2-0.2-4.1,1.4-4.4c0.3-0.1,0.8-0.1,1.3,0l-0.1-1.5
			C529.5,471.8,528.9,471.8,528.3,471.9 M517,481.7l-0.9-4.2l3.1-0.7c1.5-0.3,2.4,0.5,2.6,1.6c0.2,1.1-0.3,2.2-1.8,2.6L517,481.7z
			 M520,473.3c0.2,1-0.1,1.9-1.2,2.2l-3,0.7l-0.8-3.6l2.9-0.6C519,471.6,519.8,472.2,520,473.3 M520.6,475.7c1-0.7,1.2-1.9,1-2.9
			c-0.4-1.9-2-2.8-4-2.4l-4.6,1l2.7,12.1l4.9-1.1c2.2-0.5,3.2-2.5,2.8-4.2C523.2,476.9,522.1,475.7,520.6,475.7 M512.1,480.8
			l-0.3-1.5l-6.1,1.3l0.3,1.5L512.1,480.8z M501,484.5l-3.8-5.5l-1.7,0.4l5.1,7.2l-0.8,4.6l1.6-0.4l2.4-13.3l-1.7,0.4L501,484.5z
			 M495.8,487.9l-2.8-12.7l-1.5,0.3l2.8,12.7L495.8,487.9z M491.6,488.9l-2.8-12.7l-1.5,0.3l2.8,12.7L491.6,488.9z M487.4,489.8
			l-1.8-8.2l-1.5,0.3l1.8,8.2L487.4,489.8z M484.4,479.8c0.6-0.1,1-0.7,0.9-1.3c-0.1-0.6-0.7-0.9-1.3-0.8c-0.6,0.1-1,0.7-0.8,1.3
			C483.2,479.5,483.8,479.9,484.4,479.8 M478.9,489l-4-7.4l-1.2,0.3l-0.5,8.4l-5.2-8.9l-1.7,0.4L473,493l1.4-0.3l0.5-8.1l3.9,7.2
			l1.4-0.3l1.4-13l-1.7,0.4L478.9,489z"/>
		<path style="clip-path:url(#SVGID_00000074433598395671607180000012841016786998360465_);fill:#002C50;" d="M318,497.5
			c0.2-1.5,1.2-2.3,2.6-2.3c1.4,0,2.4,0.8,2.7,2.2L318,497.5z M324.9,498c-0.1-2.7-1.9-4.3-4.3-4.3c-2.4,0.1-4.3,1.8-4.2,4.5
			c0.1,2.7,2,4.4,4.4,4.3c1.6,0,3.1-0.9,3.8-2.4l-1.4-0.5c-0.5,0.9-1.4,1.4-2.4,1.4c-1.4,0-2.5-0.7-2.8-2.2l6.8-0.2
			C324.9,498.4,324.9,498.2,324.9,498 M312.2,495c0.8-0.6,1.3-1.7,1.3-2.7c0-1.8-1.5-3-3.6-2.9c-2.2,0.1-3.7,1.4-3.6,4.2l0.2,9.1
			l1.6,0l-0.2-9.1c0-1.8,0.8-2.6,2.1-2.6c1.2,0,1.9,0.6,1.9,1.7c0,1.1-0.7,2.1-1.8,2.1l-0.5,0l0,1.3l0.7,0c1.6,0,2.9,1,2.9,2.6
			c0,1.6-1.1,2.7-2.6,2.8c-0.4,0-1,0-1.4-0.1l-0.3,1.4c0.5,0.1,1.2,0.2,1.7,0.2c2.5-0.1,4.2-1.8,4.2-4.2
			C314.7,496.9,313.7,495.5,312.2,495 M299.4,501.6c-1.5,0-2.8-1.3-2.8-2.9c0-1.6,1.1-3,2.7-3c1.4,0,2.9,1.1,2.9,2.9
			C302.2,500.3,300.9,501.6,299.4,501.6 M302.1,495.7c-0.6-1-1.8-1.5-3-1.5c-2.4,0.1-4.1,2-4.1,4.5c0.1,2.6,2,4.4,4.2,4.3
			c1.3,0,2.5-0.8,3-1.8l0,1.5l1.6,0l-0.2-8.4l-1.6,0L302.1,495.7z M292.7,494.4c-1.1,0-1.9,0.7-2.3,2.2l-0.1-1.9l-1.6,0l0.2,8.4
			l1.6,0l-0.1-3.1c-0.1-2.2,0.6-4,2.2-4.1c0.3,0,0.8,0.1,1.2,0.3l0.2-1.5C293.9,494.5,293.3,494.4,292.7,494.4 M285.2,494.8
			l-0.1-3.2l-1.6,0l0.1,3.2l-1.5,0l0,1.3l1.5,0l0.2,7.1l1.6,0l-0.2-7.1l1.8,0l0-1.3L285.2,494.8z M277.8,503.6
			c1.7,0,3.2-1.1,3.2-2.6c0-1-0.5-2-2.3-2.4l-1.2-0.3c-0.5-0.1-1.1-0.4-1.1-1c0-0.6,0.5-1.2,1.3-1.2c0.7,0,1.3,0.4,1.4,1l1.5,0
			c0-1.7-1.5-2.4-3-2.4c-1.7,0-2.9,1.2-2.8,2.6c0,1.3,0.9,2,2.3,2.4l1.2,0.2c0.7,0.1,1.2,0.4,1.2,1.1c0,0.7-0.6,1.2-1.7,1.2
			c-1,0-1.7-0.5-1.7-1.3l-1.5,0C274.7,502.8,276.3,503.7,277.8,503.6 M272.2,494.9c-1.1,0-1.9,0.7-2.3,2.2l0-1.9l-1.6,0l0.2,8.4
			l1.6,0l-0.1-3.1c-0.1-2.2,0.6-4,2.2-4.1c0.3,0,0.8,0.1,1.2,0.3l0.2-1.5C273.4,495.1,272.8,494.9,272.2,494.9 M261.9,502.6
			c-1.5,0-2.8-1.1-2.9-2.9c0-1.7,1.2-3,2.7-3c1.5,0,2.9,1.1,2.9,2.9C264.7,501.3,263.4,502.5,261.9,502.6 M261.9,504.1
			c2.4-0.1,4.4-1.9,4.3-4.5c-0.1-2.7-2.1-4.4-4.5-4.3c-2.4,0.1-4.3,1.9-4.3,4.5C257.5,502.4,259.5,504.1,261.9,504.1 M248.5,491.8
			l0,1.5l3.8-0.1l0.3,10.9l1.6,0l-0.3-10.9l3.8-0.1l0-1.5L248.5,491.8z"/>
		<path style="clip-path:url(#SVGID_00000074433598395671607180000012841016786998360465_);fill:#002C50;" d="M172,313.5
			c0.3-1.5,1.4-2.2,2.8-2.1c1.4,0.1,2.4,0.9,2.5,2.4L172,313.5z M178.8,314.5c0.1-2.7-1.6-4.5-4-4.6c-2.4-0.1-4.4,1.5-4.5,4.2
			c-0.1,2.7,1.7,4.5,4.1,4.6c1.6,0.1,3.2-0.7,3.9-2.1l-1.3-0.6c-0.5,0.8-1.5,1.3-2.5,1.2c-1.4-0.1-2.5-0.9-2.7-2.4l6.8,0.3
			C178.8,314.9,178.8,314.7,178.8,314.5 M166.4,310.7c0.9-0.5,1.4-1.6,1.4-2.6c0.1-1.8-1.3-3.1-3.3-3.2c-2.2-0.1-3.7,1.2-3.9,3.9
			l-0.4,9.1l1.6,0.1l0.4-9.1c0.1-1.8,1-2.6,2.3-2.5c1.2,0,1.9,0.7,1.8,1.8c0,1.1-0.8,2-1.9,2l-0.5,0l-0.1,1.3l0.7,0
			c1.6,0.1,2.8,1.2,2.7,2.8c-0.1,1.6-1.2,2.6-2.8,2.6c-0.4,0-0.9-0.1-1.3-0.2l-0.4,1.4c0.5,0.2,1.2,0.3,1.6,0.3
			c2.5,0.1,4.4-1.5,4.5-3.9C168.8,312.7,167.8,311.3,166.4,310.7 M153.2,316.3c-1.5-0.1-2.7-1.5-2.6-3.1c0.1-1.6,1.4-2.9,2.9-2.8
			c1.4,0.1,2.8,1.3,2.7,3.1C156.1,315.2,154.7,316.4,153.2,316.3 M156.3,310.6c-0.5-1-1.7-1.6-2.9-1.7c-2.4-0.1-4.3,1.7-4.4,4.2
			c-0.1,2.6,1.7,4.5,3.9,4.6c1.3,0.1,2.5-0.6,3.1-1.6l-0.1,1.5l1.6,0.1l0.4-8.4l-1.6-0.1L156.3,310.6z M147,308.7
			c-1.1,0-2,0.6-2.4,2l0.1-1.9l-1.6-0.1l-0.4,8.4l1.6,0.1l0.1-3.1c0.1-2.2,0.8-4,2.5-3.9c0.3,0,0.8,0.1,1.2,0.3l0.3-1.5
			C148.2,308.9,147.6,308.7,147,308.7 M139.5,308.6l0.1-3.2l-1.6-0.1l-0.1,3.2l-1.5-0.1l-0.1,1.3l1.5,0.1l-0.3,7l1.6,0.1l0.3-7.1
			l1.8,0.1l0.1-1.3L139.5,308.6z M131.5,316.8c1.7,0.1,3.3-0.8,3.4-2.4c0-1-0.4-2-2.1-2.5l-1.2-0.4c-0.5-0.1-1.1-0.5-1-1.1
			c0-0.6,0.6-1.1,1.4-1.1c0.7,0,1.3,0.5,1.3,1.1l1.5,0.1c0.1-1.7-1.4-2.5-2.8-2.6c-1.7-0.1-2.9,1-3,2.4c-0.1,1.3,0.7,2.1,2.1,2.5
			l1.1,0.3c0.7,0.2,1.1,0.5,1.1,1.1c0,0.7-0.7,1.2-1.7,1.1c-1,0-1.6-0.7-1.6-1.4l-1.5-0.1C128.5,315.8,130,316.8,131.5,316.8
			 M122.6,315c-1.5-0.1-2.8-1.3-2.7-3.1c0.1-1.8,1.6-2.8,3-2.8c1.5,0.1,2.7,1.3,2.6,3C125.4,313.8,124.1,315,122.6,315 M123.1,307.6
			c-1.3-0.1-2.5,0.4-3.1,1.4l0.3-5.9l-1.6-0.1l-0.6,13l1.6,0.1l0.1-1.3c0.5,1,1.7,1.6,2.9,1.7c2.3,0.1,4.3-1.6,4.4-4.2
			C127.2,309.6,125.4,307.7,123.1,307.6 M111.6,314.5c-1.5-0.1-2.8-1.3-2.7-3.1c0.1-1.7,1.4-2.9,2.9-2.8c1.5,0.1,2.8,1.3,2.7,3.1
			C114.5,313.4,113.1,314.6,111.6,314.5 M111.5,316c2.4,0.1,4.5-1.6,4.6-4.2c0.1-2.7-1.8-4.5-4.2-4.6c-2.4-0.1-4.5,1.6-4.6,4.2
			C107.2,314,109.1,315.9,111.5,316 M102.8,315.6c1.3,0.1,2.5-0.4,3.3-1.2l-0.9-1.1c-0.5,0.5-1.3,0.8-2.2,0.8
			c-1.7-0.1-2.9-1.4-2.9-3.1c0.1-1.7,1.5-2.9,3.1-2.8c0.9,0,1.6,0.4,2.1,1l1-1c-0.7-0.8-1.8-1.4-3.1-1.5c-2.4-0.1-4.6,1.5-4.7,4.2
			C98.3,313.6,100.4,315.5,102.8,315.6 M91.8,313.6c-1.5-0.1-2.7-1.5-2.6-3.1c0.1-1.6,1.4-2.9,2.9-2.8c1.4,0.1,2.8,1.3,2.7,3.1
			C94.7,312.5,93.3,313.7,91.8,313.6 M94.9,307.9c-0.5-1-1.7-1.6-2.9-1.7c-2.4-0.1-4.3,1.7-4.4,4.2c-0.1,2.6,1.7,4.5,3.9,4.6
			c1.3,0.1,2.5-0.6,3.2-1.6l-0.1,1.5l1.6,0.1l0.4-8.4l-1.6-0.1L94.9,307.9z M81,318.6c2.8,0.1,3.9-1.7,4-3.8l0.5-12.6l-1.6-0.1
			l-0.5,12.6c-0.1,1.3-0.7,2.4-2.3,2.3c-0.1,0-0.9-0.1-1.1-0.2l-0.2,1.5C80.2,318.5,80.7,318.6,81,318.6"/>
		<path style="clip-path:url(#SVGID_00000074433598395671607180000012841016786998360465_);fill:#002C50;" d="M260.3,411.7
			c0.1-1.5,1-2.4,2.5-2.5c1.4-0.1,2.5,0.6,2.8,2L260.3,411.7z M267.2,411.7c-0.3-2.7-2.2-4.2-4.6-4c-2.4,0.2-4.1,2.1-3.9,4.8
			c0.3,2.7,2.3,4.2,4.7,4c1.6-0.2,3-1.1,3.6-2.6l-1.4-0.4c-0.4,0.9-1.3,1.4-2.3,1.5c-1.4,0.1-2.6-0.5-3-2l6.8-0.7
			C267.3,412.1,267.3,411.9,267.2,411.7 M254.4,409.7c0.8-0.6,1.2-1.7,1.1-2.8c-0.2-1.8-1.7-2.9-3.7-2.7c-2.2,0.2-3.5,1.7-3.3,4.4
			l0.9,9.1l1.6-0.1l-0.9-9.1c-0.2-1.8,0.6-2.7,1.9-2.8c1.1-0.1,1.9,0.4,2,1.6c0.1,1.1-0.5,2.1-1.6,2.2l-0.5,0l0.1,1.3l0.7-0.1
			c1.6-0.2,2.9,0.8,3.1,2.4c0.2,1.6-0.9,2.8-2.4,2.9c-0.4,0.1-1,0-1.4,0l-0.2,1.4c0.5,0.1,1.3,0.1,1.7,0.1c2.5-0.2,4.1-2.1,3.9-4.5
			C257.1,411.3,255.9,410,254.4,409.7 M242.1,417.1c-1.5,0.1-2.9-1.1-3-2.7c-0.2-1.6,0.9-3,2.5-3.2c1.4-0.1,3,0.9,3.1,2.6
			C244.8,415.6,243.5,416.9,242.1,417.1 M244.3,411c-0.7-0.9-1.9-1.4-3.1-1.2c-2.4,0.2-4,2.3-3.8,4.8c0.2,2.6,2.3,4.2,4.5,4
			c1.3-0.1,2.4-0.9,2.9-2l0.1,1.5l1.6-0.2l-0.8-8.4l-1.6,0.2L244.3,411z M234.9,410.4c-1.1,0.1-1.9,0.8-2.1,2.3l-0.2-1.9L231,411
			l0.8,8.4l1.6-0.2l-0.3-3.1c-0.2-2.2,0.3-4.1,1.9-4.2c0.3,0,0.8,0,1.2,0.2l0.1-1.5C236.1,410.4,235.5,410.3,234.9,410.4
			 M227.4,411.3l-0.3-3.2l-1.6,0.1l0.3,3.2l-1.5,0.1l0.1,1.3l1.5-0.1l0.7,7l1.6-0.1l-0.7-7l1.8-0.2l-0.1-1.3L227.4,411.3z
			 M220.7,420.6c1.7-0.2,3.1-1.3,3-2.9c-0.1-1-0.6-1.9-2.4-2.2l-1.3-0.2c-0.6-0.1-1.1-0.3-1.2-0.9c-0.1-0.6,0.4-1.2,1.2-1.3
			c0.7-0.1,1.4,0.3,1.4,0.9l1.5-0.1c-0.2-1.7-1.7-2.3-3.1-2.2c-1.7,0.2-2.8,1.4-2.6,2.7c0.1,1.3,1,1.9,2.4,2.2l1.2,0.2
			c0.7,0.1,1.2,0.4,1.3,1c0.1,0.7-0.5,1.3-1.6,1.4c-1,0.1-1.7-0.4-1.8-1.1l-1.5,0.1C217.6,420,219.2,420.8,220.7,420.6 M208.8,416.6
			c0.1-1.5,1-2.4,2.5-2.5c1.4-0.1,2.5,0.6,2.8,2L208.8,416.6z M215.7,416.6c-0.3-2.7-2.2-4.2-4.6-4c-2.4,0.2-4.1,2.1-3.9,4.8
			c0.3,2.7,2.3,4.2,4.7,4c1.6-0.2,3-1.1,3.6-2.6l-1.4-0.4c-0.4,0.9-1.3,1.4-2.3,1.5c-1.4,0.1-2.6-0.5-3-2l6.8-0.7
			C215.7,417.1,215.7,416.9,215.7,416.6 M202.6,417.4l3.2-4l-2.2,0.2l-2.6,3.2l-0.7-7.5l-1.6,0.2l1.2,12.9l1.6-0.1l-0.4-4.1l4.2,3.7
			l2.1-0.2L202.6,417.4z M193.2,414.4c-0.9,0.1-2.2,0.7-2.6,1.8l-0.6-5.8l-1.6,0.2l1.2,12.9l1.6-0.1l-0.4-4.5
			c-0.2-1.8,1.2-2.6,2.3-2.8c1.2-0.1,2.1,0.7,2.2,2.1l0.5,4.7l1.6-0.1l-0.5-4.8C196.7,415.5,195.3,414.2,193.2,414.4 M184.5,424.1
			c1.3-0.1,2.4-0.7,3.1-1.6l-1.1-0.9c-0.5,0.6-1.2,1-2.1,1.1c-1.6,0.2-3.1-0.9-3.3-2.7c-0.2-1.7,1-3,2.7-3.2
			c0.9-0.1,1.7,0.2,2.2,0.7l0.9-1.1c-0.8-0.7-2-1.1-3.3-1c-2.4,0.2-4.3,2.2-4.1,4.8S182.1,424.3,184.5,424.1 M175.3,425
			c1.7-0.2,3.1-1.3,3-2.9c-0.1-0.9-0.6-1.9-2.4-2.2l-1.3-0.2c-0.6-0.1-1.1-0.3-1.2-0.9c-0.1-0.6,0.4-1.2,1.2-1.3
			c0.7-0.1,1.4,0.3,1.4,0.9l1.5-0.1c-0.2-1.7-1.7-2.3-3.1-2.2c-1.7,0.2-2.8,1.4-2.6,2.7c0.1,1.3,1,1.9,2.4,2.2l1.2,0.2
			c0.7,0.1,1.2,0.4,1.3,1c0.1,0.7-0.5,1.3-1.6,1.4c-1,0.1-1.7-0.4-1.8-1.1l-1.5,0.1C172.1,424.3,173.8,425.1,175.3,425 M168.5,417
			l-0.3-3.2l-1.6,0.2l0.3,3.2l-1.5,0.1l0.1,1.3l1.5-0.1l0.7,7l1.6-0.1l-0.7-7l1.8-0.2l-0.1-1.3L168.5,417z M157.8,421.6
			c0.1-1.5,1-2.4,2.5-2.5c1.4-0.1,2.5,0.6,2.8,2L157.8,421.6z M164.7,421.5c-0.3-2.7-2.2-4.2-4.6-4c-2.4,0.2-4.1,2.1-3.9,4.8
			c0.3,2.7,2.3,4.2,4.7,4c1.6-0.2,3-1.1,3.6-2.6l-1.4-0.4c-0.4,0.9-1.3,1.4-2.3,1.5c-1.4,0.1-2.6-0.5-3-2l6.8-0.7
			C164.7,422,164.7,421.8,164.7,421.5 M151.7,424.6l-2.7-5.7l-1.5,0.1l-1.6,6.2l-2.7-5.7l-1.7,0.2l4,8.1l1.3-0.1l1.6-6.4l2.9,6
			l1.3-0.1l2.3-8.7l-1.7,0.2L151.7,424.6z M136.7,419.8c-0.9,0.1-2.2,0.7-2.6,1.8l-0.6-5.8l-1.6,0.2l1.2,12.9l1.6-0.2l-0.4-4.5
			c-0.2-1.8,1.2-2.6,2.3-2.8c1.2-0.1,2.1,0.7,2.2,2.1l0.5,4.7l1.6-0.1l-0.5-4.8C140.2,420.9,138.8,419.6,136.7,419.8 M128.1,429.5
			c1.3-0.1,2.4-0.7,3.1-1.6L130,427c-0.5,0.6-1.2,1-2.1,1.1c-1.6,0.2-3.1-0.9-3.3-2.7c-0.2-1.7,1-3,2.7-3.2c0.9-0.1,1.7,0.2,2.2,0.7
			l0.9-1.1c-0.8-0.7-2-1.1-3.3-1c-2.4,0.2-4.3,2.2-4.1,4.8C123.4,428.2,125.7,429.8,128.1,429.5 M117.9,430.5
			c2.6-0.2,3.9-2.2,3.8-4.1c-0.2-1.8-1.5-2.7-3.7-3.1l-1.7-0.3c-1.7-0.3-1.9-1.1-2-1.5c-0.1-1.2,0.9-2.2,2.2-2.3
			c1.3-0.1,2.4,0.6,2.5,1.9l1.6-0.2c-0.2-2.2-2.1-3.4-4.3-3.2c-2.2,0.2-3.9,1.8-3.7,4c0.1,1,0.7,2.5,3.3,2.9l1.6,0.2
			c1.1,0.2,2.2,0.6,2.3,1.8c0.1,1.1-0.7,2.2-2.3,2.4c-1.6,0.2-2.8-0.9-3-1.9l-1.6,0.2C113.3,429.1,115.3,430.8,117.9,430.5"/>
		<path style="clip-path:url(#SVGID_00000074433598395671607180000012841016786998360465_);fill:#002C50;" d="M289.8,309.5
			c1.3-0.8,2.6-0.5,3.5,0.6c0.9,1.1,0.9,2.4-0.1,3.5L289.8,309.5z M293.7,315.2c2.1-1.7,2.3-4.2,0.7-6c-1.5-1.8-4.1-2.2-6.1-0.5
			c-2.1,1.7-2.2,4.3-0.7,6.2c1,1.2,2.6,1.9,4.2,1.5l-0.4-1.4c-1,0.2-1.9-0.3-2.6-1.1c-0.9-1.1-1-2.4,0-3.6l4.4,5.3
			C293.3,315.5,293.5,315.4,293.7,315.2 M288.2,303.4c1,0.3,2.1,0,2.9-0.7c1.4-1.1,1.5-3,0.1-4.6c-1.4-1.7-3.4-2-5.5-0.3l-7,5.8
			l1,1.2l7-5.8c1.4-1.2,2.6-1,3.4,0c0.7,0.9,0.7,1.9-0.1,2.6c-0.8,0.7-2.1,0.7-2.8-0.1l-0.3-0.4l-1,0.8l0.4,0.5
			c1,1.2,0.9,2.9-0.3,3.9c-1.2,1-2.8,0.8-3.8-0.4c-0.3-0.3-0.6-0.8-0.7-1.2l-1.3,0.6c0.2,0.5,0.6,1.1,0.9,1.4c1.6,2,4,2.2,5.9,0.7
			C288.3,306.6,288.7,304.9,288.2,303.4 M275.1,297.4c-1-1.2-0.7-3,0.5-4c1.2-1,3-0.9,4,0.3c0.9,1.1,0.9,3-0.4,4.1
			C277.9,298.8,276.1,298.5,275.1,297.4 M281.4,295.8c0.4-1.1,0.1-2.3-0.7-3.3c-1.5-1.8-4.2-2-6.1-0.4c-2,1.6-2.2,4.3-0.8,6
			c0.9,1,2.1,1.5,3.3,1.3l-1.2,1l1,1.2l6.5-5.3l-1-1.2L281.4,295.8z M276.6,287.6c-0.7-0.9-1.7-1.1-3.1-0.5l1.5-1.2l-1-1.2l-6.5,5.3
			l1,1.2l2.4-2c1.7-1.4,3.5-2.1,4.6-0.8c0.2,0.2,0.4,0.6,0.6,1.1l1.3-0.7C277.3,288.7,277,288.1,276.6,287.6 M271.7,282l2.4-2
			l-1-1.2l-2.4,2l-1-1.2l-1,0.9l1,1.2l-5.4,4.5l1,1.2l5.4-4.5l1.2,1.4l1-0.9L271.7,282z M260.2,281.6c1.1,1.3,2.8,1.9,4,0.9
			c0.7-0.6,1.3-1.6,0.5-3.2l-0.6-1.2c-0.2-0.5-0.4-1.1,0.1-1.5c0.5-0.4,1.2-0.3,1.8,0.3c0.4,0.5,0.5,1.3,0,1.7l1,1.2
			c1.3-1.1,1-2.7,0-3.8c-1.1-1.3-2.7-1.5-3.7-0.6c-1,0.9-1.1,1.9-0.5,3.2l0.5,1.1c0.3,0.6,0.4,1.2-0.1,1.6c-0.5,0.4-1.3,0.3-2-0.5
			c-0.7-0.8-0.6-1.7,0-2.1l-0.9-1.1C259,278.7,259.3,280.5,260.2,281.6 M261.8,269.6c-0.5-0.7-1.6-1.5-3.3-1.1
			c0.6-1.1,0.4-2.3-0.4-3.3c-0.8-0.9-1.9-1.4-2.9-1.1l1-0.8l-1-1.2l-6.5,5.3l1,1.2l3.5-2.9c1.4-1.1,2.7-0.7,3.5,0.2
			c0.7,0.9,0.5,2-0.6,2.9l-3.7,3l1,1.2l3.2-2.7c1.4-1.2,2.7-1.3,3.7-0.1c0.8,0.9,0.5,2.1-0.5,3l-3.7,3l1,1.2l3.8-3.1
			C262.7,273,263.1,271.2,261.8,269.6 M245.2,261.1c-1-1.2-0.7-3,0.5-4c1.2-1,3-0.9,4,0.3c0.9,1.1,0.9,3-0.4,4.1
			C248,262.5,246.1,262.2,245.2,261.1 M251.5,259.5c0.4-1.1,0.1-2.3-0.7-3.3c-1.5-1.8-4.2-2-6.1-0.4c-2,1.6-2.2,4.3-0.8,6
			c0.9,1,2.1,1.5,3.3,1.3l-1.2,1l1,1.2l6.5-5.3l-1-1.2L251.5,259.5z M246.7,251.3c-0.7-0.9-1.7-1.1-3.1-0.5l1.5-1.2l-1-1.2l-6.5,5.3
			l1,1.2l2.4-2c1.7-1.4,3.5-2.1,4.6-0.8c0.2,0.2,0.4,0.6,0.6,1.1l1.3-0.7C247.4,252.4,247.1,251.8,246.7,251.3 M241.8,245.7l2.4-2
			l-1-1.2l-2.4,2l-1-1.2l-1,0.9l1,1.2l-5.4,4.5l1,1.2l5.4-4.5l1.2,1.4l1-0.9L241.8,245.7z M238.6,241.5c-0.7-0.9-1.7-1.1-3.1-0.5
			l1.5-1.2l-1-1.2l-6.5,5.3l1,1.2l2.4-2c1.7-1.4,3.5-2,4.6-0.8c0.2,0.2,0.4,0.6,0.6,1.1l1.3-0.7C239.3,242.5,239,242,238.6,241.5
			 M227.5,233.9c1.3-0.8,2.6-0.5,3.5,0.6c0.9,1.1,0.9,2.4-0.1,3.5L227.5,233.9z M231.4,239.6c2.1-1.7,2.3-4.2,0.7-6
			c-1.5-1.8-4.1-2.2-6.1-0.5c-2.1,1.7-2.2,4.3-0.7,6.2c1,1.2,2.6,1.9,4.2,1.5l-0.4-1.4c-1,0.2-1.9-0.3-2.6-1.1c-0.9-1.1-1-2.4,0-3.6
			l4.4,5.3C231,239.9,231.2,239.8,231.4,239.6 M218.3,228l3.3-2.7l2,2.4c1,1.2,0.6,2.4-0.2,3.1c-0.9,0.7-2.1,0.7-3.1-0.4L218.3,228z
			 M227.1,226.9c-0.8,0.7-1.8,0.7-2.5-0.1l-1.9-2.4l2.8-2.3l1.9,2.3C228.1,225.2,227.9,226.2,227.1,226.9 M225.3,228.5
			c1.1,0.6,2.2,0.2,3-0.5c1.5-1.2,1.6-3,0.3-4.6l-3-3.6l-9.6,7.9l3.2,3.9c1.4,1.8,3.6,1.7,5,0.6
			C225.3,231.3,225.9,229.8,225.3,228.5"/>
		<path style="clip-path:url(#SVGID_00000074433598395671607180000012841016786998360465_);fill:#002C50;" d="M123,200.2
			c0-1.5,0.9-2.4,2.3-2.6c1.4-0.2,2.5,0.5,2.9,1.9L123,200.2z M129.9,199.9c-0.4-2.6-2.4-4.1-4.7-3.8c-2.4,0.3-4,2.3-3.7,5
			s2.5,4.1,4.9,3.8c1.6-0.2,3-1.2,3.5-2.8l-1.4-0.3c-0.4,0.9-1.2,1.5-2.2,1.6c-1.4,0.2-2.6-0.4-3-1.9l6.8-1
			C129.9,200.3,129.9,200.1,129.9,199.9 M116.9,198.4c0.7-0.7,1.1-1.8,0.9-2.9c-0.2-1.8-1.8-2.8-3.9-2.5c-2.2,0.3-3.5,1.8-3.1,4.5
			l1.3,9l1.6-0.2l-1.3-9c-0.3-1.8,0.5-2.7,1.8-2.9c1.1-0.2,2,0.4,2.1,1.5c0.2,1.1-0.4,2.1-1.5,2.3l-0.5,0.1l0.2,1.3l0.7-0.1
			c1.6-0.2,3,0.7,3.2,2.3c0.2,1.6-0.7,2.8-2.3,3c-0.4,0.1-1,0.1-1.4,0l-0.1,1.4c0.5,0.1,1.3,0.1,1.7,0c2.5-0.4,4-2.3,3.7-4.6
			C119.7,200,118.5,198.7,116.9,198.4 M105,206.4c-1.5,0.2-2.9-1-3.2-2.5c-0.2-1.6,0.8-3.1,2.3-3.3c1.4-0.2,3,0.8,3.2,2.5
			C107.6,204.8,106.4,206.2,105,206.4 M107,200.2c-0.7-0.9-1.9-1.3-3.2-1.1c-2.4,0.3-3.9,2.5-3.5,5c0.4,2.5,2.5,4.1,4.7,3.8
			c1.3-0.2,2.4-1,2.8-2.1l0.2,1.5l1.6-0.2l-1.2-8.3l-1.6,0.2L107,200.2z M97.5,200c-1.1,0.2-1.8,0.9-2,2.4l-0.3-1.9l-1.6,0.2
			l1.2,8.3l1.6-0.2l-0.4-3c-0.3-2.2,0.1-4.1,1.8-4.3c0.3,0,0.8,0,1.3,0.1l0-1.5C98.7,200,98.1,199.9,97.5,200 M90.1,201.3l-0.4-3.1
			l-1.6,0.2l0.4,3.1l-1.5,0.2l0.2,1.3l1.5-0.2l1,7l1.6-0.2l-1-7l1.8-0.3l-0.2-1.3L90.1,201.3z M82.9,211c2.5-0.4,3.9-2.3,3.6-4.2
			c-0.2-1.7-1.6-2.6-3.8-2.9l-1.7-0.2c-1.7-0.2-2-1-2-1.5c-0.2-1.2,0.9-2.2,2.1-2.4c1.3-0.2,2.5,0.5,2.6,1.7l1.6-0.2
			c-0.3-2.2-2.2-3.3-4.4-3c-2.1,0.3-3.8,2-3.5,4.1c0.1,1,0.8,2.5,3.5,2.7l1.6,0.2c1.1,0.1,2.2,0.5,2.4,1.7c0.2,1.1-0.6,2.2-2.2,2.5
			c-1.6,0.2-2.8-0.7-3-1.8l-1.6,0.2C78.4,209.8,80.4,211.3,82.9,211 M64.9,208.3c0-1.5,0.9-2.4,2.3-2.6c1.4-0.2,2.5,0.5,2.9,1.9
			L64.9,208.3z M71.8,208c-0.4-2.6-2.4-4.1-4.7-3.8c-2.4,0.3-4,2.3-3.7,5c0.4,2.6,2.5,4.1,4.9,3.8c1.6-0.2,3-1.2,3.5-2.8l-1.4-0.3
			c-0.4,0.9-1.2,1.5-2.2,1.6c-1.4,0.2-2.6-0.4-3-1.9l6.8-1C71.9,208.5,71.8,208.3,71.8,208 M57.3,213.1c-1.5,0.2-2.9-0.9-3.1-2.6
			c-0.2-1.7,0.8-3.1,2.3-3.3c1.4-0.2,3,0.7,3.2,2.5C59.9,211.5,58.8,212.9,57.3,213.1 M59.3,206.9c-0.7-0.9-1.9-1.3-3.2-1.1
			c-2.3,0.3-3.9,2.3-3.5,5c0.4,2.6,2.5,4.1,4.8,3.8c1.2-0.2,2.3-0.9,2.7-1.9l0,0.2c0.4,2.8-0.6,4-2.4,4.3c-0.9,0.1-2-0.2-2.6-1.1
			l-1.2,0.9c1,1.3,2.5,1.9,4.1,1.7c2.7-0.4,4.3-2.1,3.8-6.1l-1-7.2l-1.6,0.2L59.3,206.9z M46.6,207.1c-0.9,0.1-2.2,0.8-2.6,1.9
			l-0.2-1.3l-1.5,0.2l1.2,8.3l1.6-0.2l-0.6-4.5c-0.3-1.8,1-2.7,2.2-2.9c1.2-0.2,2.1,0.6,2.3,2l0.7,4.7l1.6-0.2l-0.7-4.8
			C50.1,208.1,48.6,206.9,46.6,207.1 M36.2,216c-1.5,0.2-2.9-1-3.2-2.5c-0.2-1.6,0.8-3.1,2.3-3.3c1.4-0.2,3,0.8,3.2,2.5
			C38.8,214.4,37.7,215.8,36.2,216 M38.2,209.9c-0.7-0.9-1.9-1.3-3.2-1.1c-2.4,0.3-3.9,2.5-3.5,5c0.4,2.5,2.5,4.1,4.7,3.8
			c1.3-0.2,2.4-1,2.8-2.1l0.2,1.5l1.5-0.2l-1.2-8.3l-1.5,0.2L38.2,209.9z M24.4,206.4l-1.6,0.2l1.7,12.3l6.6-0.9l-0.2-1.5l-5,0.7
			L24.4,206.4z"/>
		<path style="clip-path:url(#SVGID_00000074433598395671607180000012841016786998360465_);fill:#002C50;" d="M375.6,244.2
			c0.7-1.4,1.9-1.8,3.2-1.4c1.3,0.4,2.1,1.5,1.9,2.9L375.6,244.2z M382,246.7c0.8-2.6-0.5-4.7-2.8-5.4c-2.3-0.7-4.6,0.4-5.4,3
			c-0.8,2.6,0.6,4.8,2.9,5.5c1.6,0.5,3.2,0.1,4.3-1.1l-1.1-0.9c-0.7,0.7-1.7,0.9-2.7,0.6c-1.4-0.4-2.2-1.5-2-3l6.6,1.9
			C381.9,247.2,381.9,247,382,246.7 M370.8,240c1-0.3,1.7-1.2,2-2.2c0.5-1.7-0.5-3.3-2.5-3.9c-2.1-0.6-3.9,0.2-4.7,2.9l-2.6,8.8
			l1.5,0.4l2.6-8.8c0.5-1.8,1.6-2.2,2.8-1.9c1.1,0.3,1.6,1.1,1.3,2.2c-0.3,1.1-1.3,1.8-2.3,1.4l-0.5-0.1l-0.4,1.2l0.6,0.2
			c1.5,0.5,2.4,1.9,2,3.4c-0.5,1.5-1.8,2.2-3.4,1.8c-0.4-0.1-0.9-0.3-1.2-0.6l-0.7,1.2c0.5,0.3,1.1,0.6,1.5,0.7
			c2.4,0.7,4.6-0.4,5.3-2.7C372.7,242.6,372.1,241,370.8,240 M356.6,242.3c-1.5-0.4-2.3-2.1-1.8-3.6c0.4-1.5,2-2.5,3.5-2
			c1.3,0.4,2.4,2,1.9,3.6C359.7,241.9,358.1,242.7,356.6,242.3 M361,237.5c-0.3-1.1-1.2-2-2.4-2.3c-2.3-0.7-4.6,0.7-5.3,3
			c-0.7,2.5,0.6,4.8,2.7,5.4c1.3,0.4,2.6,0,3.4-0.8l-0.4,1.4l1.5,0.4l2.4-8.1l-1.5-0.4L361,237.5z M352.5,233.4
			c-1.1-0.3-2,0.1-2.9,1.4l0.5-1.8l-1.5-0.5l-2.4,8.1l1.5,0.5l0.9-3c0.6-2.1,1.8-3.7,3.4-3.2c0.3,0.1,0.7,0.3,1.1,0.6l0.7-1.3
			C353.6,233.9,353,233.6,352.5,233.4 M345.2,231.5l0.9-3l-1.5-0.4l-0.9,3l-1.4-0.4l-0.4,1.3l1.5,0.4l-2,6.8l1.5,0.4l2-6.8l1.7,0.5
			l0.4-1.3L345.2,231.5z M334.7,237.4c2.5,0.7,4.5-0.5,5-2.4c0.5-1.7-0.4-3.1-2.3-4.2l-1.4-0.9c-1.5-0.9-1.4-1.8-1.2-2.2
			c0.3-1.2,1.7-1.6,2.9-1.3c1.3,0.4,2,1.5,1.7,2.7l1.6,0.5c0.6-2.1-0.7-3.9-2.7-4.6c-2.1-0.6-4.3,0.2-4.9,2.3c-0.3,1-0.3,2.6,2,3.9
			l1.4,0.8c0.9,0.6,1.8,1.4,1.5,2.5c-0.3,1.1-1.5,1.8-3,1.3c-1.6-0.5-2.3-1.8-2-2.9l-1.6-0.5C331,234.4,332.2,236.6,334.7,237.4
			 M329.5,232l0.4-1.4l-6-1.8l-0.4,1.4L329.5,232z M316.2,230.3c-1.5-0.4-2.3-2.1-1.8-3.6c0.4-1.5,2-2.5,3.5-2
			c1.3,0.4,2.4,2,1.9,3.6C319.3,230,317.7,230.8,316.2,230.3 M320.6,225.6c-0.3-1.1-1.2-2-2.4-2.3c-2.3-0.7-4.6,0.7-5.3,3
			c-0.7,2.5,0.6,4.8,2.7,5.4c1.3,0.4,2.6,0,3.4-0.8l-0.4,1.4l1.5,0.4l2.4-8.1l-1.5-0.4L320.6,225.6z M312.1,221.4
			c-1.1-0.3-2,0.1-2.9,1.4l0.5-1.8l-1.5-0.5l-2.4,8.1l1.5,0.5l0.9-3c0.6-2.1,1.8-3.7,3.4-3.2c0.3,0.1,0.7,0.3,1.1,0.6l0.7-1.3
			C313.2,221.9,312.6,221.6,312.1,221.4 M298.6,221.4c0.7-1.4,1.9-1.8,3.2-1.4c1.3,0.4,2.1,1.5,1.9,2.9L298.6,221.4z M305,223.9
			c0.8-2.6-0.5-4.7-2.8-5.4c-2.3-0.7-4.6,0.4-5.4,3c-0.8,2.6,0.6,4.8,2.9,5.5c1.6,0.5,3.2,0.1,4.3-1.1l-1.1-0.9
			c-0.7,0.7-1.7,0.9-2.7,0.6c-1.4-0.4-2.2-1.5-2-3l6.6,1.9C304.8,224.4,304.9,224.1,305,223.9 M289.7,217.3l1.3-4.5l3.1,0.9
			c1.4,0.4,1.6,1.7,1.3,2.8c-0.3,1.1-1.3,2.1-2.7,1.6L289.7,217.3z M289.9,210.9l-3.5,11.9l1.6,0.5l1.3-4.5l3.2,0.9
			c2.5,0.7,4.1-0.8,4.6-2.7c0.5-1.8,0.1-4-2.4-4.8L289.9,210.9z M284.5,218.7l0.4-1.4l-6-1.8l-0.4,1.5L284.5,218.7z M274.4,210.3
			c-0.9-0.3-2.3-0.2-3.1,0.6l1.7-5.6l-1.5-0.4l-3.7,12.4l1.5,0.4l1.3-4.4c0.5-1.7,2.1-2,3.2-1.7c1.1,0.3,1.7,1.4,1.3,2.8l-1.4,4.6
			l1.5,0.4l1.4-4.7C277.3,212.6,276.4,210.9,274.4,210.3 M262.7,216c1.3,0.4,2.5,0.2,3.5-0.4l-0.7-1.3c-0.7,0.4-1.5,0.5-2.3,0.2
			c-1.6-0.5-2.5-2-2-3.7c0.5-1.7,2.1-2.4,3.7-2c0.8,0.2,1.5,0.8,1.8,1.5l1.2-0.7c-0.5-1-1.4-1.8-2.7-2.2c-2.3-0.7-4.8,0.4-5.6,2.9
			C258.9,213.1,260.4,215.4,262.7,216 M256.4,213.9l2.4-8.1l-1.5-0.4l-2.4,8.1L256.4,213.9z M258.6,203.7c0.6,0.2,1.2-0.1,1.4-0.7
			c0.2-0.6-0.2-1.1-0.8-1.3c-0.6-0.2-1.2,0.1-1.3,0.7C257.7,203,258.1,203.5,258.6,203.7 M254.5,204.4c-1.1-0.3-2,0.1-2.9,1.4
			l0.5-1.8l-1.5-0.4l-2.4,8.1l1.5,0.4l0.9-3c0.6-2.1,1.8-3.7,3.4-3.2c0.3,0.1,0.7,0.3,1.1,0.6l0.7-1.3
			C255.6,204.9,255.1,204.5,254.5,204.4 M245,201.6c-0.9-0.3-2.3-0.2-3.1,0.6l0.4-1.2l-1.5-0.4l-2.4,8.1l1.5,0.4l1.3-4.4
			c0.5-1.7,2.1-2,3.2-1.7c1.1,0.3,1.7,1.4,1.3,2.8l-1.4,4.6l1.5,0.4l1.4-4.7C247.8,203.9,247,202.1,245,201.6 M235.7,207.8l2.4-8.1
			l-1.5-0.4l-2.4,8.1L235.7,207.8z M237.9,197.6c0.6,0.2,1.2-0.1,1.4-0.7c0.2-0.6-0.2-1.1-0.8-1.3c-0.6-0.2-1.2,0.1-1.3,0.7
			C237,196.8,237.4,197.4,237.9,197.6 M227,200.1c0.7-1.4,1.9-1.8,3.2-1.4c1.3,0.4,2.1,1.5,1.9,2.9L227,200.1z M233.4,202.7
			c0.8-2.6-0.5-4.7-2.8-5.4c-2.3-0.7-4.6,0.4-5.4,3c-0.8,2.6,0.6,4.8,2.9,5.5c1.6,0.5,3.2,0.1,4.3-1.1l-1.1-0.9
			c-0.7,0.7-1.7,0.9-2.7,0.6c-1.4-0.4-2.2-1.5-2-3l6.6,1.9C233.2,203.1,233.3,202.9,233.4,202.7 M222.2,196.6l-5.8-1.7l1.6-5.3
			l-1.6-0.5l-3.5,11.9l1.6,0.5l1.5-5.2l5.8,1.7l-1.5,5.2l1.6,0.5l3.5-11.9l-1.6-0.5L222.2,196.6z"/>
		<path style="clip-path:url(#SVGID_00000074433598395671607180000012841016786998360465_);fill:#002C50;" d="M388.4,142.7l1.5,4.2
			h-3.1L388.4,142.7z M392.8,150.6l-3.6-9.6h-1.5l-3.7,9.6h1.5l0.9-2.4h4l0.9,2.4H392.8z M379.4,142.2c0.9,0,1.5,0.7,1.5,1.7
			c0,1-0.5,1.7-1.9,1.7h-1.9v-3.5H379.4z M382.5,150.6l-2.5-3.6c1.6-0.2,2.4-1.6,2.4-3c0-1.5-0.9-3.1-3-3.1h-3.7v9.6h1.4V147h1.1
			l2.5,3.6H382.5z M369.2,142.7l1.5,4.2h-3.1L369.2,142.7z M373.6,150.6l-3.6-9.6h-1.5l-3.7,9.6h1.5l0.9-2.4h4l0.9,2.4H373.6z
			 M357.8,149.3v-3.1h2.3c1.1,0,1.6,0.8,1.6,1.6c0,0.8-0.6,1.6-1.7,1.6H357.8z M361.3,143.6c0,0.8-0.4,1.3-1.2,1.3h-2.2v-2.7h2.2
			C360.8,142.2,361.3,142.8,361.3,143.6 M361.5,145.4c0.9-0.4,1.2-1.2,1.2-2c0-1.5-1-2.5-2.7-2.5h-3.7v9.6h4c1.8,0,2.9-1.3,2.9-2.7
			C363.2,146.8,362.6,145.7,361.5,145.4 M350.5,142.2c0.9,0,1.5,0.7,1.5,1.7c0,1-0.5,1.7-1.9,1.7h-1.9v-3.5H350.5z M353.6,150.6
			L351,147c1.6-0.2,2.4-1.6,2.4-3c0-1.5-0.9-3.1-3-3.1h-3.7v9.6h1.4V147h1.1l2.5,3.6H353.6z M340.3,142.7l1.5,4.2h-3.1L340.3,142.7z
			 M344.7,150.6l-3.6-9.6h-1.5l-3.7,9.6h1.5l0.9-2.4h4l0.9,2.4H344.7z M328.9,149.3v-3.1h2.3c1.1,0,1.6,0.8,1.6,1.6
			c0,0.8-0.6,1.6-1.7,1.6H328.9z M332.4,143.6c0,0.8-0.4,1.3-1.2,1.3h-2.2v-2.7h2.2C332,142.2,332.4,142.8,332.4,143.6 M332.6,145.4
			c0.9-0.4,1.2-1.2,1.2-2c0-1.5-1-2.5-2.7-2.5h-3.7v9.6h4c1.8,0,2.9-1.3,2.9-2.7C334.3,146.8,333.7,145.7,332.6,145.4 M319.3,150.7
			c0.5,0,1-0.4,1-0.9c0-0.5-0.4-0.9-1-0.9c-0.5,0-1,0.4-1,0.9C318.3,150.4,318.8,150.7,319.3,150.7 M310.2,140.9v1.3h2.9v8.3h1.4
			v-8.3h2.9v-1.3H310.2z M305.4,150.7c1.9,0,3.3-1.3,3.3-2.9c0-1.4-1-2.2-2.6-2.7l-1.2-0.3c-1.2-0.3-1.3-1-1.3-1.3
			c0-0.9,0.8-1.5,1.7-1.5c1,0,1.7,0.6,1.7,1.5h1.4c0-1.8-1.4-2.9-3.1-2.9c-1.7,0-3.2,1.1-3.2,2.8c0,0.8,0.3,2,2.4,2.5l1.2,0.3
			c0.8,0.2,1.6,0.6,1.6,1.5c0,0.8-0.7,1.5-1.8,1.5c-1.2,0-2-0.8-2-1.6H302C302,149.4,303.4,150.7,305.4,150.7"/>
		<path style="clip-path:url(#SVGID_00000074433598395671607180000012841016786998360465_);fill:#002C50;" d="M411.8,133.5
			c-1.1,0-1.8-0.6-1.8-1.7c0-1.1,0.9-1.9,2.3-1.9h1.5v1.7C413.8,132.7,413,133.5,411.8,133.5 M416.3,133.4c-0.7,0-1.2-0.7-1.2-1.8
			v-1.7h1.2v-1.1h-1.2v-1.1h-1.3v1h-1.6c-1,0-1.6-0.6-1.6-1.4c0-0.8,0.5-1.3,1.3-1.3c0.5,0,1,0.3,1.3,0.8l1.1-0.8
			c-0.5-0.8-1.4-1.3-2.4-1.3c-1.5,0-2.6,1-2.6,2.5c0,0.9,0.4,1.7,1.1,2.1c-1,0.4-1.7,1.4-1.7,2.7c0,1.6,1.2,2.8,3,2.8
			c1.2,0,2.2-0.5,2.7-1.3c0.2,0.7,1,1.2,2,1.2h0.3v-1.3H416.3z M400.3,129.1h-4.5v-4.2h-1.4v9.6h1.4v-4.1h4.5v4.1h1.4v-9.6h-1.4
			V129.1z M384.8,124.9v1.3h2.9v8.3h1.4v-8.3h2.9v-1.3H384.8z M378.4,130.5h3.8v-1.3h-3.8v-2.9h4.4v-1.3H377v9.6h5.9v-1.3h-4.5
			V130.5z M368.8,133.3v-3.1h2.3c1.1,0,1.6,0.8,1.6,1.6c0,0.8-0.6,1.6-1.7,1.6H368.8z M372.2,127.6c0,0.8-0.4,1.3-1.2,1.3h-2.2v-2.7
			h2.2C371.8,126.2,372.2,126.8,372.2,127.6 M372.4,129.4c0.9-0.4,1.2-1.2,1.2-2c0-1.5-1-2.5-2.7-2.5h-3.7v9.6h4
			c1.8,0,2.9-1.3,2.9-2.7C374.2,130.8,373.6,129.7,372.4,129.4 M360.8,126.7l1.5,4.2h-3.1L360.8,126.7z M365.2,134.6l-3.6-9.6H360
			l-3.7,9.6h1.5l0.9-2.4h4l0.9,2.4H365.2z M351.7,134.7c1.9,0,3.3-1.3,3.3-2.9c0-1.4-1-2.2-2.6-2.7l-1.2-0.3c-1.2-0.3-1.3-1-1.3-1.3
			c0-0.9,0.8-1.5,1.7-1.5c1,0,1.7,0.6,1.7,1.5h1.4c0-1.8-1.4-2.9-3.1-2.9c-1.7,0-3.2,1.1-3.2,2.8c0,0.8,0.3,2,2.4,2.5l1.2,0.3
			c0.8,0.2,1.6,0.6,1.6,1.5c0,0.8-0.7,1.5-1.8,1.5c-1.2,0-2-0.8-2-1.6h-1.4C348.3,133.4,349.7,134.7,351.7,134.7 M345.4,124.9H344
			v9.6h1.4V124.9z M337.7,124.9h-1.4v9.6h5.3v-1.3h-3.9V124.9z M328.9,130.5h3.8v-1.3h-3.8v-2.9h4.4v-1.3h-5.8v9.6h5.9v-1.3h-4.5
			V130.5z M319.3,134.7c0.5,0,1-0.4,1-0.9c0-0.5-0.4-0.9-1-0.9c-0.5,0-1,0.4-1,0.9C318.3,134.4,318.8,134.7,319.3,134.7
			 M310.2,124.9v1.3h2.9v8.3h1.4v-8.3h2.9v-1.3H310.2z M305.4,134.7c1.9,0,3.3-1.3,3.3-2.9c0-1.4-1-2.2-2.6-2.7l-1.2-0.3
			c-1.2-0.3-1.3-1-1.3-1.3c0-0.9,0.8-1.5,1.7-1.5c1,0,1.7,0.6,1.7,1.5h1.4c0-1.8-1.4-2.9-3.1-2.9c-1.7,0-3.2,1.1-3.2,2.8
			c0,0.8,0.3,2,2.4,2.5l1.2,0.3c0.8,0.2,1.6,0.6,1.6,1.5c0,0.8-0.7,1.5-1.8,1.5c-1.2,0-2-0.8-2-1.6H302
			C302,133.4,303.4,134.7,305.4,134.7"/>
		<path style="clip-path:url(#SVGID_00000074433598395671607180000012841016786998360465_);fill:#002C50;" d="M403,118.7
			c1.9,0,3.3-1.3,3.3-2.9c0-1.4-1-2.2-2.6-2.7l-1.2-0.3c-1.2-0.3-1.3-1-1.3-1.3c0-0.9,0.8-1.5,1.7-1.5c1,0,1.7,0.6,1.7,1.5h1.4
			c0-1.8-1.4-2.9-3.1-2.9c-1.7,0-3.2,1.1-3.2,2.8c0,0.8,0.3,2,2.4,2.5l1.2,0.3c0.8,0.2,1.6,0.6,1.6,1.5c0,0.8-0.7,1.5-1.8,1.5
			c-1.2,0-2-0.8-2-1.6h-1.4C399.5,117.4,400.9,118.7,403,118.7 M393.3,118.7c1.9,0,3.6-1.3,3.6-3.5v-6.3h-1.4v6.3
			c0,1.5-1,2.1-2.1,2.1c-1.1,0-2.1-0.7-2.1-2.1v-6.3h-1.4v6.3C389.7,117.5,391.3,118.7,393.3,118.7 M383.4,110.7l1.5,4.2h-3.1
			L383.4,110.7z M387.8,118.6l-3.6-9.6h-1.5l-3.7,9.6h1.5l0.9-2.4h4l0.9,2.4H387.8z M375.4,113.1h-4.5v-4.2h-1.4v9.6h1.4v-4.1h4.5
			v4.1h1.4v-9.6h-1.4V113.1z M364.6,115.9l-4.2-7H359v9.6h1.4v-7l4.2,7h1.4v-9.6h-1.4V115.9z M351.7,114.5h3.8v-1.3h-3.8v-2.9h4.4
			v-1.3h-5.8v9.6h5.9v-1.3h-4.5V114.5z M343.9,113.8l3.6-4.8h-1.8l-3.1,4.1v-4.1h-1.4v9.6h1.4v-4.1l3.7,4.1h1.9L343.9,113.8z
			 M336.4,115.9l-4.2-7h-1.4v9.6h1.4v-7l4.2,7h1.4v-9.6h-1.4V115.9z M324.3,110.7l1.5,4.2h-3.1L324.3,110.7z M328.7,118.6l-3.6-9.6
			h-1.5l-3.7,9.6h1.5l0.9-2.4h4l0.9,2.4H328.7z M315.2,110.2c0.9,0,1.5,0.7,1.5,1.7c0,1-0.5,1.7-1.9,1.7H313v-3.5H315.2z
			 M318.3,118.6l-2.5-3.6c1.6-0.2,2.4-1.6,2.4-3c0-1.5-0.9-3.1-3-3.1h-3.7v9.6h1.4V115h1.1l2.5,3.6H318.3z M305.2,113.8l3.6-4.8
			h-1.8l-3.1,4.1v-4.1h-1.4v9.6h1.4v-4.1l3.7,4.1h1.9L305.2,113.8z"/>
		<path style="clip-path:url(#SVGID_00000074433598395671607180000012841016786998360465_);fill:#002C50;" d="M329.6,72.6
			c0.7-1.3,1.9-1.7,3.3-1.2c1.3,0.5,2,1.6,1.7,3L329.6,72.6z M335.9,75.5c0.9-2.5-0.2-4.7-2.5-5.5c-2.3-0.8-4.6,0.2-5.5,2.7
			c-0.9,2.5,0.3,4.8,2.6,5.6c1.5,0.5,3.2,0.3,4.4-0.8l-1.1-1c-0.7,0.6-1.8,0.8-2.7,0.4c-1.4-0.5-2.1-1.6-1.8-3.1l6.4,2.3
			C335.7,75.9,335.8,75.7,335.9,75.5 M325.1,68.2c1-0.2,1.8-1.1,2.2-2.1c0.6-1.7-0.3-3.3-2.3-4c-2.1-0.7-3.9,0-4.8,2.6l-3,8.6
			l1.5,0.5l3-8.6c0.6-1.7,1.7-2.2,2.9-1.7c1.1,0.4,1.6,1.2,1.2,2.3c-0.4,1-1.4,1.7-2.4,1.3l-0.5-0.2l-0.4,1.2l0.6,0.2
			c1.5,0.5,2.3,2,1.8,3.5c-0.5,1.5-2,2.1-3.4,1.6c-0.4-0.1-0.9-0.4-1.2-0.6l-0.8,1.2c0.4,0.3,1.1,0.7,1.5,0.8
			c2.4,0.8,4.6-0.2,5.4-2.4C326.8,70.9,326.3,69.2,325.1,68.2 M310.8,69.8c-1.5-0.5-2.2-2.2-1.6-3.7c0.5-1.5,2.1-2.4,3.6-1.8
			c1.3,0.5,2.3,2.1,1.7,3.7C313.8,69.5,312.2,70.3,310.8,69.8 M315.4,65.2c-0.2-1.1-1.1-2-2.3-2.4c-2.2-0.8-4.6,0.4-5.4,2.8
			c-0.9,2.4,0.3,4.8,2.4,5.5c1.3,0.5,2.6,0.2,3.5-0.6l-0.5,1.4l1.5,0.5l2.8-7.9l-1.5-0.5L315.4,65.2z M307.1,60.6
			c-1.1-0.4-2,0-2.9,1.2l0.6-1.8l-1.5-0.5l-2.8,7.9L302,68l1-2.9c0.7-2.1,2-3.6,3.6-3c0.3,0.1,0.7,0.3,1.1,0.7l0.7-1.3
			C308.2,61.2,307.6,60.8,307.1,60.6 M299.9,58.3l1.1-3l-1.5-0.5l-1.1,3l-1.4-0.5l-0.5,1.3l1.4,0.5l-2.4,6.7l1.5,0.5l2.4-6.7
			l1.7,0.6l0.5-1.3L299.9,58.3z M289.9,63.9c1.6,0.6,3.4,0.2,3.9-1.3c0.3-0.9,0.2-2-1.3-3l-1.1-0.7c-0.5-0.3-0.9-0.8-0.7-1.3
			c0.2-0.6,0.9-0.9,1.7-0.7c0.6,0.2,1.1,0.9,0.9,1.5l1.4,0.5c0.6-1.6-0.6-2.8-1.9-3.3c-1.6-0.6-3.1,0.1-3.5,1.4
			c-0.5,1.3,0.1,2.2,1.3,3l1,0.6c0.6,0.4,0.9,0.8,0.7,1.4c-0.2,0.6-1,0.9-2,0.6c-1-0.3-1.4-1.1-1.1-1.8l-1.4-0.5
			C287.3,62,288.5,63.4,289.9,63.9 M287.8,53.8c-1.1-0.4-2,0-2.9,1.2l0.6-1.8l-1.5-0.5l-2.8,7.9l1.5,0.5l1-2.9c0.7-2.1,2-3.6,3.6-3
			c0.3,0.1,0.7,0.3,1.1,0.7l0.7-1.3C288.9,54.4,288.3,54,287.8,53.8 M274.3,53c0.7-1.3,1.9-1.7,3.3-1.2c1.3,0.5,2,1.6,1.7,3
			L274.3,53z M280.6,55.9c0.9-2.5-0.2-4.7-2.5-5.5c-2.3-0.8-4.6,0.2-5.5,2.7c-0.9,2.5,0.3,4.8,2.6,5.6c1.5,0.5,3.2,0.3,4.4-0.8
			l-1.1-1c-0.7,0.6-1.8,0.8-2.7,0.4c-1.4-0.5-2.1-1.6-1.8-3.1l6.4,2.3C280.4,56.4,280.5,56.1,280.6,55.9 M268.9,52.3
			c-0.6,1.7-2.2,1.9-3.3,1.5c-1.1-0.4-1.6-1.5-1.1-2.9l1.6-4.5l-1.5-0.5l-1.6,4.6c-0.8,2.2-0.1,4,1.9,4.7c0.9,0.3,2.3,0.3,3.1-0.5
			l-0.4,1.2l1.5,0.5l2.8-7.9l-1.5-0.5L268.9,52.3z M255.6,50.2c-1.5-0.5-2.2-2.2-1.6-3.7c0.5-1.5,2.1-2.4,3.6-1.8
			c1.3,0.5,2.3,2.1,1.7,3.7C258.7,50,257,50.7,255.6,50.2 M260.2,45.7c-0.2-1.1-1.1-2-2.3-2.4c-2.2-0.8-4.6,0.4-5.4,2.8
			c-0.9,2.4,0.3,4.8,2.4,5.5c1.3,0.5,2.6,0.2,3.5-0.6l-0.5,1.4l1.5,0.5l2.8-7.9l-1.5-0.5L260.2,45.7z M252.2,37.2l-1.4-0.5l-7.2,7.2
			l-1.1-10.1l-1.4-0.5l-5.6,11.2L237,45l4.2-8.5l1,9l1.3,0.5l6.4-6.3l-2.1,9.3l1.5,0.5L252.2,37.2z"/>
		<path style="clip-path:url(#SVGID_00000074433598395671607180000012841016786998360465_);fill:#002C50;" d="M639.5,14
			c-1.1,0.2-1.8,0.9-2,2.4l-0.3-1.9l-1.6,0.2l1.2,8.3l1.6-0.2l-0.4-3c-0.3-2.2,0.1-4.1,1.7-4.3c0.3,0,0.8,0,1.2,0.1l0-1.5
			C640.7,14,640.1,13.9,639.5,14 M627.5,19.5c0-1.5,0.9-2.4,2.3-2.6c1.4-0.2,2.5,0.5,2.9,1.9L627.5,19.5z M634.4,19.2
			c-0.4-2.6-2.4-4.1-4.7-3.8s-4,2.3-3.6,4.9c0.4,2.6,2.5,4.1,4.9,3.8c1.6-0.2,3-1.2,3.5-2.8l-1.4-0.3c-0.4,0.9-1.2,1.5-2.2,1.6
			c-1.4,0.2-2.6-0.4-3-1.9l6.7-0.9C634.4,19.6,634.4,19.4,634.4,19.2 M622.6,21.3c0.2,1.8-1,2.7-2.2,2.9c-1.1,0.2-2.1-0.6-2.3-2
			l-0.7-4.8l-1.5,0.2l0.7,4.8c0.3,2.3,1.8,3.5,3.8,3.3c0.9-0.1,2.2-0.8,2.5-1.9l0.2,1.3l1.5-0.2l-1.2-8.3l-1.5,0.2L622.6,21.3z
			 M610.2,25.6c-1.5,0.2-2.9-1-3.1-2.5c-0.2-1.6,0.8-3.1,2.3-3.3c1.4-0.2,3,0.8,3.2,2.5C612.8,23.9,611.7,25.3,610.2,25.6
			 M612.2,19.4c-0.7-0.9-1.9-1.3-3.2-1.1c-2.3,0.3-3.8,2.5-3.5,4.9c0.4,2.5,2.5,4.1,4.7,3.8c1.3-0.2,2.4-1,2.8-2.1l0.2,1.5l1.5-0.2
			l-1.2-8.3l-1.5,0.2L612.2,19.4z M599.9,19.6c-0.8,0.1-2.1,0.6-2.6,2.2c-0.6-1.1-1.8-1.6-3-1.4c-1.2,0.2-2.2,0.9-2.4,1.9l-0.2-1.3
			l-1.5,0.2l1.2,8.3l1.5-0.2l-0.6-4.5c-0.2-1.8,0.8-2.7,2-2.9c1.1-0.2,2,0.6,2.2,2.1l0.7,4.7l1.5-0.2l-0.6-4.2
			c-0.3-1.9,0.4-3,1.8-3.2c1.2-0.2,2.1,0.7,2.3,2l0.7,4.7l1.5-0.2l-0.7-4.8C603.3,20.5,601.9,19.3,599.9,19.6 M586.3,30.4
			c1.7-0.2,3.1-1.4,2.8-3c-0.1-0.9-0.7-1.9-2.5-2.1l-1.3-0.1c-0.5,0-1.1-0.3-1.2-0.8c-0.1-0.6,0.4-1.2,1.2-1.3
			c0.7-0.1,1.4,0.2,1.5,0.9l1.5-0.2c-0.2-1.7-1.8-2.2-3.2-2c-1.7,0.2-2.7,1.5-2.5,2.9c0.2,1.3,1.1,1.9,2.5,2.1l1.2,0.1
			c0.7,0.1,1.2,0.3,1.3,0.9c0.1,0.7-0.5,1.3-1.5,1.4c-1,0.1-1.7-0.4-1.8-1.1l-1.4,0.2C583.1,29.9,584.8,30.6,586.3,30.4 M579.3,27.4
			c0.2,1.8-1,2.7-2.2,2.9c-1.1,0.2-2.1-0.6-2.3-2l-0.7-4.8l-1.5,0.2l0.7,4.8c0.3,2.3,1.8,3.5,3.8,3.3c0.9-0.1,2.2-0.8,2.5-1.9
			l0.2,1.3l1.5-0.2l-1.2-8.3l-1.5,0.2L579.3,27.4z M566.8,31.6c-1.5,0.2-2.9-1-3.1-2.5c-0.2-1.6,0.8-3.1,2.3-3.3
			c1.4-0.2,3,0.8,3.2,2.5C569.4,30,568.3,31.4,566.8,31.6 M568.8,25.5c-0.7-0.9-1.9-1.3-3.2-1.1c-2.3,0.3-3.8,2.5-3.5,4.9
			c0.4,2.5,2.5,4.1,4.7,3.8c1.3-0.2,2.4-1,2.8-2.1l0.2,1.5l1.5-0.2l-1.2-8.3l-1.5,0.2L568.8,25.5z M556.4,25.7
			c-0.9,0.1-2.2,0.8-2.5,1.9l-0.8-5.8l-1.5,0.2l1.8,12.9l1.5-0.2l-0.6-4.5c-0.3-1.8,1-2.7,2.2-2.8c1.1-0.2,2.1,0.6,2.3,2l0.7,4.7
			l1.5-0.2l-0.7-4.8C559.9,26.6,558.4,25.4,556.4,25.7 M546.4,27.1c-0.9,0.1-2.2,0.8-2.5,1.9l-0.2-1.3l-1.5,0.2l1.2,8.3l1.5-0.2
			l-0.6-4.5c-0.3-1.8,1-2.7,2.2-2.9c1.1-0.2,2.1,0.6,2.3,2l0.7,4.7l1.5-0.2l-0.7-4.8C550,28,548.5,26.8,546.4,27.1 M534,32.6
			c0-1.5,0.9-2.4,2.3-2.6c1.4-0.2,2.5,0.5,2.9,1.9L534,32.6z M540.8,32.3c-0.4-2.6-2.4-4.1-4.7-3.8c-2.3,0.3-4,2.3-3.6,4.9
			c0.4,2.6,2.5,4.1,4.9,3.8c1.6-0.2,3-1.2,3.5-2.8l-1.4-0.3c-0.4,0.9-1.2,1.5-2.2,1.6c-1.4,0.2-2.6-0.4-3-1.9l6.7-0.9
			C540.9,32.8,540.9,32.5,540.8,32.3 M528.6,38.5c1.7-0.2,3.1-1.4,2.8-3c-0.1-0.9-0.7-1.9-2.5-2.1l-1.3-0.1c-0.5,0-1.1-0.3-1.2-0.8
			c-0.1-0.6,0.4-1.2,1.2-1.3c0.7-0.1,1.4,0.2,1.5,0.9l1.5-0.2c-0.2-1.7-1.8-2.2-3.2-2c-1.7,0.2-2.7,1.5-2.5,2.9
			c0.2,1.3,1.1,1.9,2.5,2.1l1.2,0.1c0.7,0.1,1.2,0.3,1.3,0.9c0.1,0.7-0.5,1.3-1.5,1.4c-1,0.1-1.7-0.4-1.8-1.1l-1.4,0.2
			C525.5,38,527.1,38.7,528.6,38.5 M523.7,39l-1.2-8.3l-1.5,0.2l1.2,8.3L523.7,39z M521.4,28.7c0.6-0.1,1-0.6,0.9-1.2
			c-0.1-0.6-0.6-1-1.2-0.9c-0.6,0.1-1,0.6-0.9,1.2C520.3,28.4,520.9,28.8,521.4,28.7 M515.1,38.9c-1.5,0.2-2.9-1-3.1-2.5
			c-0.2-1.6,0.8-3.1,2.3-3.3c1.4-0.2,3,0.8,3.2,2.5C517.7,37.3,516.6,38.7,515.1,38.9 M517.1,32.7c-0.7-0.9-1.9-1.3-3.2-1.1
			c-2.3,0.3-3.8,2.5-3.5,4.9c0.4,2.5,2.5,4.1,4.7,3.8c1.3-0.2,2.4-1,2.8-2.1l0.2,1.5l1.5-0.2l-1.2-8.3l-1.5,0.2L517.1,32.7z
			 M505.8,38.8l-3.4-7.7l-1.2,0.2l-1.1,8.4l-4.5-9.3l-1.7,0.2l5.8,11.7l1.4-0.2l1.1-8.1l3.3,7.4l1.4-0.2l2.4-12.9l-1.7,0.2
			L505.8,38.8z M489.5,44c0.6-0.1,1.1-0.6,1-1.2c-0.1-0.6-0.7-1-1.3-0.9c-0.6,0.1-1,0.6-1,1.3C488.3,43.7,488.9,44.1,489.5,44
			 M481.6,43.6c-1.5,0.2-2.9-0.9-3.1-2.6c-0.2-1.7,0.8-3.1,2.3-3.3c1.4-0.2,3,0.7,3.2,2.5C484.3,42.1,483.1,43.4,481.6,43.6
			 M483.6,37.5c-0.7-0.9-1.9-1.3-3.2-1.1c-2.3,0.3-3.9,2.3-3.5,4.9c0.4,2.6,2.5,4.1,4.7,3.8c1.2-0.2,2.3-0.9,2.7-1.9l0.2,1.3
			l1.5-0.2l-1.8-12.9l-1.5,0.2L483.6,37.5z M466.9,38.3c-0.9,0.1-2.2,0.8-2.5,1.9l-0.2-1.3l-1.5,0.2l1.2,8.3l1.5-0.2l-0.6-4.5
			c-0.3-1.8,1-2.7,2.2-2.9s2.1,0.6,2.3,2l0.7,4.7l1.5-0.2l-0.7-4.8C470.4,39.2,468.9,38,466.9,38.3 M455.7,38.2l2.9,5.3l-4.2,0.6
			L455.7,38.2z M462.6,47.6l-6.3-11.6l-1.7,0.2l-2.9,12.9l1.7-0.2l0.7-3.3l5.2-0.7l1.6,3L462.6,47.6z"/>
		<g style="clip-path:url(#SVGID_00000074433598395671607180000012841016786998360465_);">
			<g>
				<defs>
					<rect id="SVGID_00000069383657504198024140000012547642938682283409_" x="317.6" y="169.4" width="38" height="28"/>
				</defs>
				<clipPath id="SVGID_00000142895669400645831980000002555627289874317757_">
					<use xlink:href="#SVGID_00000069383657504198024140000012547642938682283409_"  style="overflow:visible;"/>
				</clipPath>
				<path style="clip-path:url(#SVGID_00000142895669400645831980000002555627289874317757_);fill:#C0CDD2;" d="M336.6,196.4
					c5.5,0,10-4.5,10-10c0-5.5-4.5-10-10-10c-5.5,0-10,4.5-10,10C326.6,191.9,331.1,196.4,336.6,196.4"/>
			</g>
		</g>
	</g>
	
		<rect x="335.3" y="181.4" style="clip-path:url(#SVGID_00000023979729482309896860000003531994341840649902_);fill:#FFFFFF;" width="2.5" height="10"/>
	
		<rect x="331.6" y="185.1" style="clip-path:url(#SVGID_00000023979729482309896860000003531994341840649902_);fill:#FFFFFF;" width="10" height="2.5"/>
	<g style="clip-path:url(#SVGID_00000023979729482309896860000003531994341840649902_);">
		<defs>
			<rect id="SVGID_00000109023341392564676790000016075513181982053788_" x="0.3" y="0" width="667.5" height="540.1"/>
		</defs>
		<clipPath id="SVGID_00000041988233345357367370000008794531426316149889_">
			<use xlink:href="#SVGID_00000109023341392564676790000016075513181982053788_"  style="overflow:visible;"/>
		</clipPath>
		<g style="clip-path:url(#SVGID_00000041988233345357367370000008794531426316149889_);">
			<g>
				<defs>
					<rect id="SVGID_00000042720037615563376380000012683418171692269732_" x="485" y="266.4" width="105.7" height="147.8"/>
				</defs>
				<clipPath id="SVGID_00000122692672409379799370000010264507718033011334_">
					<use xlink:href="#SVGID_00000042720037615563376380000012683418171692269732_"  style="overflow:visible;"/>
				</clipPath>
				<path style="clip-path:url(#SVGID_00000122692672409379799370000010264507718033011334_);fill:#C0CDD2;" d="M524.6,280.1
					c-16.4,2.3-27.8,17.5-25.5,33.9l9.6,68.3c2.3,16.4,17.5,27.8,33.9,25.5l9.4-1.3c16.4-2.3,27.8-17.5,25.5-33.9l-9.6-68.3
					c-2.3-16.4-17.5-27.8-33.9-25.5L524.6,280.1z"/>
			</g>
		</g>
	</g>
</g>
</svg>
