<?xml version="1.0" encoding="utf-8"?>
<!-- Generator: Adobe Illustrator 27.8.1, SVG Export Plug-In . SVG Version: 6.00 Build 0)  -->
<svg version="1.1" id="Ebene_1" xmlns="http://www.w3.org/2000/svg" xmlns:xlink="http://www.w3.org/1999/xlink" x="0px" y="0px"
	 viewBox="0 0 375 375" style="enable-background:new 0 0 375 375;" xml:space="preserve">
<style type="text/css">
	.st0{clip-path:url(#SVGID_00000152953922122701018900000011468832558514210965_);fill:#C0CDD1;}
	.st1{clip-path:url(#SVGID_00000098915564599438890730000017197908096896357544_);}
	.st2{clip-path:url(#SVGID_00000123441663073960086640000012808313479565864860_);fill:#002C50;}
	.st3{clip-path:url(#SVGID_00000084491661093502478030000006166187289943765140_);fill:#002C50;}
	.st4{clip-path:url(#SVGID_00000004535463527682668480000002937083545935150984_);fill:#002C50;}
	.st5{clip-path:url(#SVGID_00000121988632383805890830000008665944548172868260_);fill:#002C50;}
	.st6{clip-path:url(#SVGID_00000036211766989472535980000013982841957899756199_);fill:#002C50;}
	.st7{clip-path:url(#SVGID_00000060727425127098060530000006108486562436864902_);fill:#002C50;}
	.st8{clip-path:url(#SVGID_00000159441899877642826420000007620302782137693095_);fill:#002C50;}
	.st9{clip-path:url(#SVGID_00000008128746124749681930000015566747046453561477_);}
	.st10{clip-path:url(#SVGID_00000176023265823800238020000004698921091214852789_);fill:#C0CDD1;}
	.st11{clip-path:url(#SVGID_00000080169372390125360100000015870797889795244713_);fill:#FFFFFF;}
	.st12{clip-path:url(#SVGID_00000137822254565462429850000007639528526919576462_);fill:#FFFFFF;}
	.st13{clip-path:url(#SVGID_00000037658035488003736790000006818928976964310698_);}
	
		.st14{clip-path:url(#SVGID_00000067941612883055795650000014468676755140822919_);fill:none;stroke:#FFFFFF;stroke-width:8.371;stroke-linejoin:round;stroke-miterlimit:10;}
	
		.st15{clip-path:url(#SVGID_00000131325013675203519970000017009670198381634487_);fill:none;stroke:#FFFFFF;stroke-width:8.371;stroke-linejoin:round;stroke-miterlimit:10;}
	
		.st16{clip-path:url(#SVGID_00000124155385675687629750000001175187072013886858_);fill:none;stroke:#FFFFFF;stroke-width:12.57;stroke-linejoin:round;stroke-miterlimit:10;}
	
		.st17{clip-path:url(#SVGID_00000080922433045857776130000010476022742025955215_);fill:none;stroke:#FFFFFF;stroke-width:12.57;stroke-linejoin:round;stroke-miterlimit:10;}
	.st18{clip-path:url(#SVGID_00000108286288709294631990000000182804158543016833_);}
	
		.st19{clip-path:url(#SVGID_00000075124951931214994970000007489835225830816900_);fill:none;stroke:#FFFFFF;stroke-width:6.285;stroke-linejoin:round;stroke-miterlimit:10;}
	
		.st20{clip-path:url(#SVGID_00000155126565244024082480000013911172333548751539_);fill:none;stroke:#FFFFFF;stroke-width:6.285;stroke-linejoin:round;stroke-miterlimit:10;}
	
		.st21{clip-path:url(#SVGID_00000155110075624279148850000001268090093465936043_);fill:none;stroke:#FFFFFF;stroke-width:6.285;stroke-linejoin:round;stroke-miterlimit:10;}
	
		.st22{clip-path:url(#SVGID_00000031919718463108024360000012855937043313920144_);fill:none;stroke:#FFFFFF;stroke-width:6.285;stroke-linejoin:round;stroke-miterlimit:10;}
	
		.st23{clip-path:url(#SVGID_00000137090193447615539130000004802891582179378600_);fill:none;stroke:#FFFFFF;stroke-width:6.285;stroke-linejoin:round;stroke-miterlimit:10;}
	
		.st24{clip-path:url(#SVGID_00000008838452104968701660000016587505635112693423_);fill:none;stroke:#FFFFFF;stroke-width:6.285;stroke-linejoin:round;stroke-miterlimit:10;}
	
		.st25{clip-path:url(#SVGID_00000122684019690775482840000018144970641145231258_);fill:none;stroke:#FFFFFF;stroke-width:3;stroke-linejoin:round;stroke-miterlimit:10;}
	
		.st26{clip-path:url(#SVGID_00000180341010833215553620000010958257330654771126_);fill:none;stroke:#FFFFFF;stroke-width:6.285;stroke-linejoin:round;stroke-miterlimit:10;}
	
		.st27{clip-path:url(#SVGID_00000131332331033430283400000005610312681995797947_);fill:none;stroke:#FFFFFF;stroke-width:6.285;stroke-linejoin:round;stroke-miterlimit:10;}
	.st28{clip-path:url(#SVGID_00000148644513690172731530000002703534795863308990_);}
	
		.st29{clip-path:url(#SVGID_00000101085813183034206570000001518505457907365271_);fill:none;stroke:#FFFFFF;stroke-width:6.285;stroke-linejoin:round;stroke-miterlimit:10;}
	
		.st30{clip-path:url(#SVGID_00000047755700290858939960000013365384541932202394_);fill:none;stroke:#FFFFFF;stroke-width:6.285;stroke-linejoin:round;stroke-miterlimit:10;}
	
		.st31{clip-path:url(#SVGID_00000052087365074657986910000018212669270764229814_);fill:none;stroke:#FFFFFF;stroke-width:6.285;stroke-linejoin:round;stroke-miterlimit:10;}
	
		.st32{clip-path:url(#SVGID_00000121963541122271620920000002168093866707309718_);fill:none;stroke:#FFFFFF;stroke-width:6.285;stroke-linejoin:round;stroke-miterlimit:10;}
	
		.st33{clip-path:url(#SVGID_00000144328508938978090650000004681840644509009588_);fill:none;stroke:#FFFFFF;stroke-width:3.142;stroke-linejoin:round;stroke-miterlimit:10;}
	.st34{clip-path:url(#SVGID_00000126284110862292856800000003436300651198770108_);}
	
		.st35{clip-path:url(#SVGID_00000005963212496290546240000002595569950385739962_);fill:none;stroke:#FFFFFF;stroke-width:3;stroke-linejoin:round;stroke-miterlimit:10;}
	
		.st36{clip-path:url(#SVGID_00000020357643200445228780000003824898757703459503_);fill:none;stroke:#FFFFFF;stroke-width:3.142;stroke-linejoin:round;stroke-miterlimit:10;}
	
		.st37{clip-path:url(#SVGID_00000142168590920722345490000002381744523808103089_);fill:none;stroke:#FFFFFF;stroke-width:3.142;stroke-linejoin:round;stroke-miterlimit:10;}
	
		.st38{clip-path:url(#SVGID_00000162354649362979282440000002104559646765101719_);fill:none;stroke:#FFFFFF;stroke-width:3.142;stroke-linejoin:round;stroke-miterlimit:10;}
	.st39{clip-path:url(#SVGID_00000026856009160780042160000015277623911475050910_);fill:#002C50;}
	.st40{clip-path:url(#SVGID_00000165226507092211770030000008754869470593693059_);fill:#FFFFFF;}
	.st41{clip-path:url(#SVGID_00000088836614101183070030000009421857690496924858_);}
	.st42{clip-path:url(#SVGID_00000005969751929194988590000009988540211952117155_);fill:#FFFFFF;}
</style>
<g>
	<g>
		<g>
			<defs>
				<rect id="SVGID_1_" x="134.9" y="78.8" width="117.7" height="152"/>
			</defs>
			<clipPath id="SVGID_00000069395896720246749170000004859730837545636767_">
				<use xlink:href="#SVGID_1_"  style="overflow:visible;"/>
			</clipPath>
			<polygon style="clip-path:url(#SVGID_00000069395896720246749170000004859730837545636767_);fill:#C0CDD1;" points="194.9,223.8 
				143.9,205.8 153.6,173.8 175.9,149.7 179.9,116.8 184.9,93.8 195.6,97.8 200.9,85.8 229.9,95.8 221.9,123.8 237.6,131.8 
				237.6,143.7 243.6,144.8 232.9,223.8 218.9,220.8 215.9,229.8 			"/>
		</g>
	</g>
</g>
<g>
	<g>
		<defs>
			<rect id="SVGID_00000170251317276972845870000015452047258854753455_" width="375" height="375"/>
		</defs>
		<clipPath id="SVGID_00000119803592215479881420000005878537728880613053_">
			<use xlink:href="#SVGID_00000170251317276972845870000015452047258854753455_"  style="overflow:visible;"/>
		</clipPath>
		<g style="clip-path:url(#SVGID_00000119803592215479881420000005878537728880613053_);">
			<g>
				<defs>
					<rect id="SVGID_00000065765453396055729140000016594805154574074537_" width="375" height="375"/>
				</defs>
				<clipPath id="SVGID_00000080910226705242366170000015930354768840222101_">
					<use xlink:href="#SVGID_00000065765453396055729140000016594805154574074537_"  style="overflow:visible;"/>
				</clipPath>
				<path style="clip-path:url(#SVGID_00000080910226705242366170000015930354768840222101_);fill:#002C50;" d="M311,322.7
					c-0.1-1.5,1.1-2.8,2.8-2.9c1.7-0.1,3,1,3.1,2.6c0.1,1.4-0.9,2.9-2.7,3C312.4,325.5,311.1,324.2,311,322.7 M317,325.2
					c0.9-0.6,1.4-1.8,1.3-3.1c-0.1-2.3-2-4.1-4.7-3.9c-2.6,0.2-4.3,2.2-4.2,4.5c0.1,1.2,0.7,2.4,1.7,2.9h-0.3
					c-2.8,0.2-4-0.9-4.1-2.8c-0.1-0.9,0.4-2,1.3-2.5l-0.8-1.3c-1.4,0.9-2.1,2.4-2,3.9c0.2,2.8,1.8,4.5,5.7,4.2l7.2-0.4l-0.1-1.6
					L317,325.2z M313.9,309.7c1.5,0.2,2.3,1.1,2.4,2.5s-0.7,2.5-2.1,2.7L313.9,309.7z M313.6,316.6c2.7-0.2,4.3-2,4.1-4.4
					c-0.1-2.4-2-4.2-4.6-4c-2.7,0.2-4.3,2.2-4.2,4.6c0.1,1.6,1,3.1,2.5,3.7l0.5-1.4c-0.9-0.4-1.4-1.3-1.5-2.4
					c-0.1-1.4,0.6-2.6,2.1-2.9l0.4,6.8C313.2,316.6,313.4,316.6,313.6,316.6 M311,303.5l5.8-2.5l-0.1-1.5l-6.1-1.8l5.8-2.5l-0.1-1.7
					l-8.2,3.7l0.1,1.3l6.4,1.8l-6.1,2.7l0.1,1.3l8.6,2.6l-0.1-1.7L311,303.5z M316.3,288.7c-0.1-0.9-0.6-2.3-1.7-2.7l1.3-0.1
					l-0.1-1.6l-8.4,0.5l0.1,1.6l4.5-0.3c1.8-0.1,2.6,1.2,2.7,2.4c0.1,1.2-0.8,2.1-2.2,2.2l-4.8,0.3l0.1,1.6l4.9-0.3
					C315.1,292.1,316.5,290.7,316.3,288.7 M307.3,282.1l8.4-0.5l-0.1-1.6l-8.4,0.5L307.3,282.1z M317.7,280.7c0,0.6,0.5,1.1,1.1,1
					c0.6,0,1-0.6,1-1.2s-0.5-1.1-1.1-1S317.7,280.1,317.7,280.7 M311.5,271.3c1.5,0.2,2.3,1.1,2.4,2.5s-0.7,2.5-2.1,2.7L311.5,271.3
					z M311.3,278.2c2.7-0.2,4.3-2,4.1-4.4c-0.1-2.4-2-4.2-4.6-4c-2.7,0.2-4.3,2.2-4.2,4.6c0.1,1.6,1,3.1,2.5,3.7l0.5-1.4
					c-0.9-0.4-1.4-1.3-1.5-2.4c-0.1-1.4,0.6-2.6,2.1-2.9l0.4,6.8C310.8,278.2,311.1,278.2,311.3,278.2 M314.8,266.6l3.2-0.2
					l-0.1-1.6l-3.2,0.2l-0.1-1.5l-1.3,0.1l0.1,1.5l-7,0.4l0.1,1.6l7-0.4l0.1,1.8l1.3-0.1L314.8,266.6z M305.7,258.7
					c0.2,2.6,2,4,4,3.9c1.8-0.1,2.8-1.4,3.2-3.6l0.3-1.6c0.3-1.7,1.2-1.9,1.6-1.9c1.2-0.1,2.1,1,2.2,2.3s-0.7,2.4-1.9,2.5l0.1,1.6
					c2.2-0.1,3.5-2,3.4-4.1c-0.1-2.2-1.7-4-3.8-3.9c-1,0.1-2.5,0.6-3,3.2l-0.3,1.6c-0.2,1.1-0.7,2.2-1.9,2.3
					c-1.1,0.1-2.2-0.8-2.3-2.4c-0.1-1.7,0.9-2.8,2-2.9l-0.1-1.6C307.2,254.3,305.5,256.1,305.7,258.7"/>
			</g>
			<g>
				<defs>
					<rect id="SVGID_00000105403536110751496230000004215642411343600563_" width="375" height="375"/>
				</defs>
				<clipPath id="SVGID_00000070112237847737278040000015843079932339530663_">
					<use xlink:href="#SVGID_00000105403536110751496230000004215642411343600563_"  style="overflow:visible;"/>
				</clipPath>
				<path style="clip-path:url(#SVGID_00000070112237847737278040000015843079932339530663_);fill:#002C50;" d="M131.8,323.3
					c1.3-0.8,2.6-0.5,3.5,0.6s0.9,2.4-0.1,3.5L131.8,323.3z M135.6,329c2.1-1.7,2.3-4.2,0.7-6c-1.5-1.8-4.1-2.2-6.1-0.5
					c-2.1,1.7-2.2,4.3-0.7,6.2c1,1.2,2.6,1.9,4.2,1.5l-0.4-1.4c-1,0.2-1.9-0.3-2.6-1.1c-0.9-1.1-1-2.4,0-3.6l4.4,5.3
					C135.3,329.3,135.4,329.1,135.6,329 M130.1,317.2c1,0.3,2.1,0,2.9-0.7c1.4-1.1,1.5-3,0.1-4.6c-1.4-1.7-3.4-2-5.5-0.3l-7,5.8
					l1,1.2l7-5.8c1.4-1.2,2.6-1,3.4,0c0.7,0.9,0.7,1.9-0.1,2.6s-2.1,0.7-2.8-0.1l-0.3-0.4l-1,0.8l0.4,0.5c1,1.2,0.9,2.9-0.3,3.9
					s-2.8,0.8-3.8-0.4c-0.3-0.3-0.6-0.8-0.7-1.2l-1.3,0.6c0.2,0.5,0.6,1.1,0.9,1.4c1.6,2,4,2.2,5.9,0.7
					C130.2,320.3,130.6,318.7,130.1,317.2 M117.1,311.1c-1-1.2-0.7-3,0.5-4s3-0.9,4,0.3c0.9,1.1,0.9,3-0.4,4.1
					C119.8,312.5,118,312.3,117.1,311.1 M123.4,309.6c0.4-1.1,0.1-2.3-0.7-3.3c-1.5-1.8-4.2-2-6.1-0.4c-2,1.6-2.2,4.3-0.8,6
					c0.9,1,2.1,1.5,3.3,1.3l-1.2,0.9l1,1.2l6.5-5.3l-1-1.2L123.4,309.6z M118.6,301.4c-0.7-0.9-1.7-1.1-3.1-0.5l1.5-1.2l-1-1.2
					l-6.5,5.3l1,1.2l2.4-2c1.7-1.4,3.5-2.1,4.6-0.8c0.2,0.2,0.4,0.6,0.6,1.1l1.3-0.7C119.2,302.5,119,301.9,118.6,301.4
					 M113.7,295.8l2.4-2l-1-1.2l-2.4,2l-1-1.2l-1,0.9l1,1.2l-5.4,4.5l1,1.2l5.4-4.5l1.2,1.4l1-0.9L113.7,295.8z M102.2,295.4
					c1.1,1.3,2.8,1.9,4,0.9c0.7-0.6,1.3-1.6,0.5-3.2l-0.6-1.2c-0.2-0.5-0.4-1.1,0.1-1.5s1.2-0.3,1.8,0.3c0.4,0.5,0.5,1.3,0,1.7
					l1,1.2c1.3-1.1,0.9-2.7,0-3.8c-1.1-1.3-2.7-1.5-3.7-0.6s-1.1,1.9-0.5,3.2l0.5,1.1c0.3,0.6,0.4,1.2-0.1,1.6s-1.3,0.3-2-0.5
					s-0.6-1.7,0-2.1l-0.9-1.1C101,292.4,101.2,294.2,102.2,295.4 M103.7,283.4c-0.5-0.7-1.6-1.5-3.3-1.1c0.6-1.1,0.4-2.3-0.4-3.3
					c-0.8-0.9-1.9-1.4-2.9-1.1l1-0.8l-1-1.2l-6.5,5.3l1,1.2l3.5-2.9c1.4-1.1,2.7-0.7,3.5,0.2c0.7,0.9,0.5,2-0.6,2.9l-3.7,3l1,1.2
					l3.2-2.7c1.4-1.2,2.7-1.3,3.7-0.1c0.8,0.9,0.5,2.1-0.5,3l-3.7,3l1,1.2l3.8-3.1C104.7,286.8,105,285,103.7,283.4 M87.1,274.8
					c-1-1.2-0.7-3,0.5-4s3-0.9,4,0.3c0.9,1.1,0.9,3-0.4,4.1C89.9,276.2,88.1,276,87.1,274.8 M93.4,273.3c0.4-1.1,0.1-2.3-0.7-3.3
					c-1.5-1.8-4.2-2-6.1-0.4c-2,1.6-2.2,4.3-0.8,6c0.9,1,2.1,1.5,3.3,1.3l-1.2,1l1,1.2l6.5-5.3l-1-1.2L93.4,273.3z M88.7,265.1
					c-0.7-0.9-1.7-1.1-3.1-0.5l1.5-1.2l-1-1.2l-6.5,5.3l1,1.2l2.4-2c1.7-1.4,3.5-2.1,4.6-0.8c0.2,0.2,0.4,0.6,0.6,1.1l1.3-0.7
					C89.3,266.2,89.1,265.6,88.7,265.1 M83.7,259.5l2.4-2l-1-1.2l-2.4,2l-1-1.2l-1,0.9l1,1.2l-5.4,4.5l1,1.2l5.4-4.5l1.2,1.4l1-0.9
					L83.7,259.5z M80.6,255.3c-0.7-0.9-1.7-1.1-3.1-0.5l1.5-1.2l-1-1.2l-6.5,5.3l1,1.2l2.4-2c1.7-1.4,3.5-2.1,4.6-0.8
					c0.2,0.2,0.4,0.6,0.6,1.1l1.3-0.7C81.2,256.3,80.9,255.7,80.6,255.3 M69.4,247.7c1.3-0.8,2.6-0.5,3.5,0.6s0.9,2.4-0.1,3.5
					L69.4,247.7z M73.3,253.4c2.1-1.7,2.3-4.2,0.7-6c-1.5-1.8-4.1-2.2-6.1-0.5c-2.1,1.7-2.2,4.3-0.7,6.2c1,1.2,2.6,1.9,4.2,1.5
					l-0.4-1.4c-1,0.2-1.9-0.3-2.6-1.1c-0.9-1.1-1-2.4,0-3.6l4.4,5.3C72.9,253.7,73.1,253.5,73.3,253.4 M60.2,241.8l3.3-2.7l2,2.4
					c1,1.2,0.6,2.4-0.2,3.1c-0.9,0.7-2.1,0.7-3.1-0.4L60.2,241.8z M69.1,240.6c-0.8,0.7-1.8,0.7-2.5-0.1l-1.9-2.4l2.8-2.3l1.9,2.3
					C70.1,239,69.9,240,69.1,240.6 M67.2,242.3c1.1,0.6,2.2,0.2,3-0.5c1.5-1.2,1.6-3,0.3-4.6l-3-3.6l-9.6,7.9l3.2,3.9
					c1.4,1.8,3.6,1.7,5,0.6C67.3,245.1,67.9,243.6,67.2,242.3"/>
			</g>
			<g>
				<defs>
					<rect id="SVGID_00000179620305321740520730000014918475407323291577_" width="375" height="375"/>
				</defs>
				<clipPath id="SVGID_00000142868835293104453440000005709455917693693103_">
					<use xlink:href="#SVGID_00000179620305321740520730000014918475407323291577_"  style="overflow:visible;"/>
				</clipPath>
				<path style="clip-path:url(#SVGID_00000142868835293104453440000005709455917693693103_);fill:#002C50;" d="M217.6,257.9
					c0.7-1.4,1.9-1.8,3.2-1.4s2.1,1.5,1.9,2.9L217.6,257.9z M224,260.5c0.8-2.6-0.5-4.7-2.8-5.4s-4.6,0.4-5.4,3
					c-0.8,2.6,0.6,4.8,2.9,5.5c1.6,0.5,3.2,0.1,4.3-1.1l-1.1-0.9c-0.7,0.7-1.7,0.9-2.7,0.6c-1.4-0.4-2.2-1.5-2-3l6.6,1.9
					C223.8,261,223.9,260.7,224,260.5 M212.8,253.8c1-0.3,1.7-1.2,2-2.2c0.5-1.7-0.5-3.3-2.5-3.9c-2.1-0.6-3.9,0.2-4.7,2.9l-2.6,8.8
					l1.5,0.4l2.6-8.8c0.5-1.8,1.6-2.2,2.8-1.9c1.1,0.3,1.6,1.1,1.3,2.2c-0.3,1.1-1.3,1.8-2.3,1.4l-0.5-0.1l-0.4,1.2l0.6,0.2
					c1.5,0.5,2.4,1.9,2,3.4c-0.5,1.5-1.8,2.2-3.4,1.8c-0.4-0.1-0.9-0.3-1.2-0.6l-0.7,1.2c0.5,0.3,1.1,0.6,1.5,0.7
					c2.4,0.7,4.6-0.4,5.3-2.7C214.7,256.4,214.1,254.7,212.8,253.8 M198.6,256.1c-1.5-0.4-2.3-2.1-1.8-3.6c0.4-1.5,2-2.5,3.5-2
					c1.3,0.4,2.4,2,1.9,3.6C201.7,255.7,200,256.5,198.6,256.1 M203,251.3c-0.3-1.1-1.2-2-2.4-2.3c-2.3-0.7-4.6,0.7-5.3,3
					c-0.7,2.5,0.6,4.8,2.7,5.4c1.3,0.4,2.6,0,3.4-0.8L201,258l1.5,0.4l2.4-8.1l-1.5-0.4L203,251.3z M194.4,247.2
					c-1.1-0.3-2,0.1-2.9,1.4l0.5-1.8l-1.5-0.4l-2.4,8.1l1.5,0.5l0.9-3c0.6-2.1,1.8-3.7,3.4-3.2c0.3,0.1,0.7,0.3,1.1,0.6l0.7-1.3
					C195.5,247.7,195,247.4,194.4,247.2 M187.2,245.3l0.9-3l-1.5-0.4l-0.9,3l-1.4-0.4l-0.4,1.3l1.4,0.4l-2,6.8l1.5,0.4l2-6.8
					l1.7,0.5l0.4-1.3L187.2,245.3z M176.7,251.1c2.5,0.7,4.5-0.5,5-2.4c0.5-1.7-0.4-3.1-2.3-4.2l-1.4-0.9c-1.5-0.9-1.4-1.8-1.2-2.2
					c0.3-1.2,1.7-1.6,2.9-1.3c1.3,0.4,2,1.5,1.7,2.7l1.6,0.5c0.6-2.1-0.7-3.9-2.7-4.6c-2.1-0.6-4.3,0.2-4.9,2.3
					c-0.3,1-0.3,2.6,2,3.9l1.4,0.8c0.9,0.6,1.8,1.4,1.5,2.5s-1.5,1.8-3,1.3c-1.6-0.5-2.3-1.8-2-2.9l-1.6-0.5
					C173,248.2,174.2,250.4,176.7,251.1 M171.5,245.8l0.4-1.4l-6-1.8l-0.4,1.4L171.5,245.8z M158.2,244.1c-1.5-0.4-2.3-2.1-1.8-3.6
					c0.4-1.5,2-2.5,3.5-2c1.3,0.4,2.4,2,1.9,3.6C161.3,243.7,159.6,244.6,158.2,244.1 M162.6,239.3c-0.3-1.1-1.2-2-2.4-2.3
					c-2.3-0.7-4.6,0.7-5.3,3c-0.7,2.5,0.6,4.8,2.7,5.4c1.3,0.4,2.6,0,3.4-0.8l-0.4,1.4l1.5,0.4l2.4-8.1l-1.5-0.4L162.6,239.3z
					 M154,235.2c-1.1-0.3-2,0.1-2.9,1.4l0.5-1.8l-1.5-0.5l-2.4,8.1l1.5,0.4l0.9-3c0.6-2.1,1.8-3.7,3.4-3.2c0.3,0.1,0.7,0.3,1.1,0.6
					l0.7-1.3C155.1,235.7,154.6,235.4,154,235.2 M140.6,235.1c0.7-1.4,1.9-1.8,3.2-1.4c1.3,0.4,2.1,1.5,1.9,2.9L140.6,235.1z
					 M147,237.7c0.8-2.6-0.5-4.7-2.8-5.4s-4.6,0.4-5.4,3c-0.8,2.6,0.6,4.8,2.9,5.5c1.6,0.5,3.2,0.1,4.3-1.1l-1.1-0.9
					c-0.7,0.7-1.7,0.9-2.7,0.6c-1.4-0.4-2.2-1.5-2-3l6.6,1.9C146.8,238.1,146.9,237.9,147,237.7 M131.6,231.1l1.3-4.5l3.1,0.9
					c1.4,0.4,1.6,1.7,1.3,2.8s-1.3,2.1-2.7,1.6L131.6,231.1z M131.8,224.7l-3.5,11.9l1.6,0.5l1.3-4.5l3.2,0.9
					c2.5,0.7,4.1-0.8,4.6-2.7c0.5-1.8,0.1-4-2.4-4.8L131.8,224.7z M126.4,232.5l0.4-1.4l-6-1.8l-0.4,1.4L126.4,232.5z M116.4,224.1
					c-0.9-0.3-2.3-0.2-3.1,0.6l1.7-5.6l-1.5-0.4l-3.7,12.4l1.5,0.4l1.3-4.4c0.5-1.7,2.1-2,3.2-1.7s1.7,1.4,1.3,2.8l-1.4,4.6l1.5,0.4
					l1.4-4.7C119.2,226.4,118.4,224.7,116.4,224.1 M104.7,229.8c1.3,0.4,2.5,0.2,3.4-0.4l-0.7-1.3c-0.7,0.4-1.5,0.5-2.3,0.2
					c-1.6-0.5-2.5-2-2-3.7s2.1-2.4,3.7-2c0.8,0.2,1.5,0.8,1.8,1.5l1.2-0.7c-0.5-1-1.4-1.8-2.7-2.2c-2.3-0.7-4.8,0.4-5.6,2.9
					C100.9,226.8,102.4,229.1,104.7,229.8 M98.4,227.7l2.4-8.1l-1.5-0.4l-2.4,8.1L98.4,227.7z M100.6,217.5c0.6,0.2,1.2-0.1,1.4-0.7
					c0.2-0.6-0.2-1.1-0.8-1.3c-0.6-0.2-1.2,0.1-1.3,0.7C99.7,216.7,100,217.3,100.6,217.5 M96.4,218.2c-1.1-0.3-2,0.1-2.9,1.4
					l0.5-1.8l-1.5-0.4l-2.4,8.1l1.5,0.4l0.9-3c0.6-2.1,1.8-3.7,3.4-3.2c0.3,0.1,0.7,0.3,1.1,0.6l0.7-1.3
					C97.6,218.7,97,218.3,96.4,218.2 M86.9,215.3c-0.9-0.3-2.3-0.2-3.1,0.6l0.4-1.2l-1.5-0.4l-2.4,8.1l1.5,0.4l1.3-4.4
					c0.5-1.7,2.1-2,3.2-1.7s1.7,1.4,1.3,2.8l-1.4,4.6l1.5,0.4l1.4-4.7C89.8,217.6,88.9,215.9,86.9,215.3 M77.7,221.6l2.4-8.1
					l-1.5-0.4l-2.4,8.1L77.7,221.6z M79.9,211.3c0.6,0.2,1.2-0.1,1.4-0.7c0.2-0.6-0.2-1.1-0.8-1.3c-0.6-0.2-1.2,0.1-1.3,0.7
					C79,210.6,79.3,211.2,79.9,211.3 M68.9,213.9c0.7-1.4,1.9-1.8,3.2-1.4c1.3,0.4,2.1,1.5,1.9,2.9L68.9,213.9z M75.3,216.5
					c0.8-2.6-0.5-4.7-2.8-5.4s-4.6,0.4-5.4,3s0.6,4.8,2.9,5.5c1.6,0.5,3.2,0.1,4.3-1.1l-1.1-0.9c-0.7,0.7-1.7,0.9-2.7,0.6
					c-1.4-0.4-2.2-1.5-2-3l6.6,1.9C75.2,216.9,75.3,216.7,75.3,216.5 M64.1,210.4l-5.8-1.7l1.6-5.3l-1.6-0.5l-3.5,11.9l1.6,0.5
					l1.5-5.2l5.8,1.7l-1.5,5.2l1.6,0.5l3.5-11.9l-1.6-0.5L64.1,210.4z"/>
			</g>
			<g>
				<defs>
					<rect id="SVGID_00000150071049456020909400000000995581680918567597_" width="375" height="375"/>
				</defs>
				<clipPath id="SVGID_00000009587110751479015100000008809473444546771594_">
					<use xlink:href="#SVGID_00000150071049456020909400000000995581680918567597_"  style="overflow:visible;"/>
				</clipPath>
				<path style="clip-path:url(#SVGID_00000009587110751479015100000008809473444546771594_);fill:#002C50;" d="M230.4,156.5
					l1.5,4.2h-3.1L230.4,156.5z M234.8,164.4l-3.6-9.6h-1.5l-3.7,9.6h1.5l0.9-2.4h4l0.9,2.4H234.8z M221.4,156
					c0.9,0,1.5,0.7,1.5,1.7s-0.5,1.7-1.9,1.7h-1.9V156H221.4z M224.4,164.4l-2.5-3.6c1.6-0.2,2.4-1.6,2.4-3c0-1.5-0.9-3.1-3-3.1
					h-3.7v9.6h1.4v-3.6h1.1l2.5,3.6h1.8V164.4z M211.1,156.5l1.5,4.2h-3.1L211.1,156.5z M215.6,164.4l-3.6-9.6h-1.5l-3.7,9.6h1.5
					l0.9-2.4h4l0.9,2.4H215.6z M199.8,163v-3.1h2.3c1.1,0,1.6,0.8,1.6,1.6s-0.6,1.6-1.7,1.6h-2.2V163z M203.2,157.3
					c0,0.8-0.4,1.3-1.2,1.3h-2.2V156h2.2C202.8,156,203.2,156.6,203.2,157.3 M203.4,159.2c0.9-0.4,1.2-1.2,1.2-2
					c0-1.5-1-2.5-2.7-2.5h-3.7v9.6h4c1.8,0,2.9-1.3,2.9-2.7C205.2,160.6,204.6,159.5,203.4,159.2 M192.5,156c0.9,0,1.5,0.7,1.5,1.7
					s-0.5,1.7-1.9,1.7h-1.9V156H192.5z M195.5,164.4l-2.5-3.6c1.6-0.2,2.4-1.6,2.4-3c0-1.5-0.9-3.1-3-3.1h-3.7v9.6h1.4v-3.6h1.1
					l2.5,3.6h1.8V164.4z M182.3,156.5l1.5,4.2h-3.1L182.3,156.5z M186.7,164.4l-3.6-9.6h-1.5l-3.7,9.6h1.5l0.9-2.4h4l0.9,2.4H186.7z
					 M170.9,163v-3.1h2.3c1.1,0,1.6,0.8,1.6,1.6s-0.6,1.6-1.7,1.6h-2.2V163z M174.3,157.3c0,0.8-0.4,1.3-1.2,1.3h-2.2V156h2.2
					C173.9,156,174.3,156.6,174.3,157.3 M174.5,159.2c0.9-0.4,1.2-1.2,1.2-2c0-1.5-1-2.5-2.7-2.5h-3.7v9.6h4c1.8,0,2.9-1.3,2.9-2.7
					C176.3,160.6,175.7,159.5,174.5,159.2 M161.3,164.5c0.5,0,1-0.4,1-0.9s-0.4-0.9-1-0.9c-0.5,0-1,0.4-1,0.9
					S160.7,164.5,161.3,164.5 M152.2,154.7v1.3h2.9v8.3h1.4V156h2.9v-1.3H152.2z M147.4,164.5c1.9,0,3.3-1.3,3.3-2.9
					c0-1.4-1-2.2-2.6-2.7l-1.2-0.3c-1.2-0.3-1.3-1-1.3-1.3c0-0.9,0.8-1.5,1.7-1.5c1,0,1.7,0.6,1.7,1.5h1.4c0-1.8-1.4-2.9-3.1-2.9
					c-1.7,0-3.2,1.1-3.2,2.8c0,0.8,0.3,2,2.4,2.5l1.2,0.3c0.8,0.2,1.6,0.6,1.6,1.5c0,0.8-0.7,1.5-1.8,1.5c-1.2,0-2-0.8-2-1.6h-1.4
					C143.9,163.1,145.3,164.5,147.4,164.5"/>
			</g>
			<g>
				<defs>
					<rect id="SVGID_00000175285657047876437360000001651133611273366688_" width="375" height="375"/>
				</defs>
				<clipPath id="SVGID_00000070831049591943264050000018336450602620245418_">
					<use xlink:href="#SVGID_00000175285657047876437360000001651133611273366688_"  style="overflow:visible;"/>
				</clipPath>
				<path style="clip-path:url(#SVGID_00000070831049591943264050000018336450602620245418_);fill:#002C50;" d="M253.7,147.2
					c-1.1,0-1.8-0.6-1.8-1.7c0-1.1,0.9-1.9,2.3-1.9h1.5v1.7C255.7,146.5,254.9,147.2,253.7,147.2 M258.3,147.2
					c-0.7,0-1.2-0.7-1.2-1.8v-1.7h1.2v-1.1h-1.2v-1.1h-1.3v1h-1.6c-1,0-1.6-0.6-1.6-1.4c0-0.8,0.5-1.3,1.3-1.3c0.5,0,1,0.3,1.3,0.8
					l1.1-0.8c-0.5-0.8-1.4-1.3-2.4-1.3c-1.5,0-2.6,1-2.6,2.5c0,0.9,0.4,1.7,1.1,2.1c-1,0.4-1.7,1.4-1.7,2.7c0,1.6,1.2,2.8,3,2.8
					c1.2,0,2.2-0.5,2.7-1.3c0.2,0.7,1,1.2,2,1.2h0.3v-1.3L258.3,147.2L258.3,147.2z M242.2,142.9h-4.5v-4.2h-1.4v9.6h1.4v-4.1h4.5
					v4.1h1.4v-9.6h-1.4V142.9z M226.7,138.7v1.3h2.9v8.3h1.4V140h2.9v-1.3H226.7z M220.4,144.3h3.8V143h-3.8v-3h4.4v-1.3H219v9.6
					h5.9V147h-4.5V144.3z M210.7,147v-3.1h2.3c1.1,0,1.6,0.8,1.6,1.6s-0.6,1.6-1.7,1.6h-2.2V147z M214.2,141.3
					c0,0.8-0.4,1.3-1.2,1.3h-2.2V140h2.2C213.8,140,214.2,140.6,214.2,141.3 M214.4,143.2c0.9-0.4,1.2-1.2,1.2-2
					c0-1.5-1-2.5-2.7-2.5h-3.7v9.6h4c1.8,0,2.9-1.3,2.9-2.7C216.1,144.6,215.5,143.5,214.4,143.2 M202.7,140.5l1.5,4.2h-3.1
					L202.7,140.5z M207.2,148.4l-3.6-9.6H202l-3.7,9.6h1.5l0.9-2.4h4l0.9,2.4H207.2z M193.7,148.5c1.9,0,3.3-1.3,3.3-2.9
					c0-1.4-1-2.2-2.6-2.7l-1.2-0.3c-1.2-0.3-1.3-1-1.3-1.3c0-0.9,0.8-1.5,1.7-1.5c1,0,1.7,0.6,1.7,1.5h1.4c0-1.8-1.4-2.9-3.1-2.9
					c-1.7,0-3.2,1.1-3.2,2.8c0,0.8,0.3,2,2.4,2.5l1.2,0.3c0.8,0.2,1.6,0.6,1.6,1.5c0,0.8-0.7,1.5-1.8,1.5c-1.2,0-2-0.8-2-1.6h-1.4
					C190.2,147.1,191.6,148.5,193.7,148.5 M187.4,138.7H186v9.6h1.4V138.7z M179.6,138.7h-1.4v9.6h5.3V147h-3.9L179.6,138.7
					L179.6,138.7z M170.9,144.3h3.8V143h-3.8v-3h4.4v-1.3h-5.8v9.6h5.9V147h-4.5L170.9,144.3L170.9,144.3z M161.3,148.5
					c0.5,0,1-0.4,1-0.9s-0.4-0.9-1-0.9c-0.5,0-1,0.4-1,0.9S160.7,148.5,161.3,148.5 M152.2,138.7v1.3h2.9v8.3h1.4V140h2.9v-1.3
					H152.2z M147.4,148.5c1.9,0,3.3-1.3,3.3-2.9c0-1.4-1-2.2-2.6-2.7l-1.2-0.3c-1.2-0.3-1.3-1-1.3-1.3c0-0.9,0.8-1.5,1.7-1.5
					c1,0,1.7,0.6,1.7,1.5h1.4c0-1.8-1.4-2.9-3.1-2.9c-1.7,0-3.2,1.1-3.2,2.8c0,0.8,0.3,2,2.4,2.5l1.2,0.3c0.8,0.2,1.6,0.6,1.6,1.5
					c0,0.8-0.7,1.5-1.8,1.5c-1.2,0-2-0.8-2-1.6h-1.4C143.9,147.1,145.3,148.5,147.4,148.5"/>
			</g>
			<g>
				<defs>
					<rect id="SVGID_00000149360337217930942340000003557959978462352308_" width="375" height="375"/>
				</defs>
				<clipPath id="SVGID_00000062163621134800001590000014065018108968902823_">
					<use xlink:href="#SVGID_00000149360337217930942340000003557959978462352308_"  style="overflow:visible;"/>
				</clipPath>
				<path style="clip-path:url(#SVGID_00000062163621134800001590000014065018108968902823_);fill:#002C50;" d="M244.9,132.5
					c1.9,0,3.3-1.3,3.3-2.9c0-1.4-1-2.2-2.6-2.7l-1.2-0.3c-1.2-0.3-1.3-1-1.3-1.3c0-0.9,0.8-1.5,1.7-1.5c1,0,1.7,0.6,1.7,1.5h1.4
					c0-1.8-1.4-2.9-3.1-2.9c-1.7,0-3.2,1.1-3.2,2.8c0,0.8,0.3,2,2.4,2.5l1.2,0.3c0.8,0.2,1.6,0.6,1.6,1.5c0,0.8-0.7,1.5-1.8,1.5
					c-1.2,0-2-0.8-2-1.6h-1.4C241.5,131.1,242.9,132.5,244.9,132.5 M235.2,132.5c1.9,0,3.6-1.3,3.6-3.5v-6.3h-1.4v6.3
					c0,1.5-1,2.1-2.1,2.1s-2.1-0.7-2.1-2.1v-6.3h-1.4v6.3C231.7,131.3,233.3,132.5,235.2,132.5 M225.3,124.5l1.5,4.2h-3.1
					L225.3,124.5z M229.7,132.4l-3.6-9.6h-1.5l-3.7,9.6h1.5l0.9-2.4h4l0.9,2.4H229.7z M217.3,126.9h-4.5v-4.2h-1.4v9.6h1.4v-4.1h4.5
					v4.1h1.4v-9.6h-1.4V126.9z M206.5,129.7l-4.2-7H201v9.6h1.4v-7l4.2,7h1.4v-9.6h-1.4L206.5,129.7L206.5,129.7z M193.6,128.3h3.8
					V127h-3.8v-3h4.4v-1.3h-5.8v9.6h5.9V131h-4.5L193.6,128.3L193.6,128.3z M185.9,127.5l3.6-4.8h-1.8l-3.1,4.1v-4.1h-1.4v9.6h1.4
					v-4.1l3.7,4.1h1.9L185.9,127.5z M178.3,129.7l-4.2-7h-1.4v9.6h1.4v-7l4.2,7h1.4v-9.6h-1.4V129.7z M166.2,124.5l1.5,4.2h-3.1
					L166.2,124.5z M170.6,132.4l-3.6-9.6h-1.5l-3.7,9.6h1.5l0.9-2.4h4l0.9,2.4H170.6z M157.2,124c0.9,0,1.5,0.7,1.5,1.7
					s-0.5,1.7-1.9,1.7H155V124H157.2z M160.3,132.4l-2.5-3.6c1.6-0.2,2.4-1.6,2.4-3c0-1.5-0.9-3.1-3-3.1h-3.7v9.6h1.4v-3.6h1.1
					l2.5,3.6h1.8V132.4z M147.2,127.5l3.6-4.8H149l-3.1,4.1v-4.1h-1.4v9.6h1.4v-4.1l3.7,4.1h1.9L147.2,127.5z"/>
			</g>
			<g>
				<defs>
					<rect id="SVGID_00000029750716655084516700000011380537715707250327_" width="375" height="375"/>
				</defs>
				<clipPath id="SVGID_00000106118470473296695880000000727291367881444225_">
					<use xlink:href="#SVGID_00000029750716655084516700000011380537715707250327_"  style="overflow:visible;"/>
				</clipPath>
				<path style="clip-path:url(#SVGID_00000106118470473296695880000000727291367881444225_);fill:#002C50;" d="M171.6,86.4
					c0.7-1.3,1.9-1.7,3.3-1.2c1.3,0.5,2,1.6,1.7,3L171.6,86.4z M177.8,89.3c0.9-2.5-0.2-4.7-2.5-5.5s-4.6,0.2-5.5,2.7
					s0.3,4.8,2.6,5.6c1.5,0.5,3.2,0.3,4.4-0.8l-1.1-1c-0.7,0.6-1.8,0.8-2.7,0.4c-1.4-0.5-2.1-1.6-1.8-3.1l6.4,2.3
					C177.6,89.7,177.7,89.5,177.8,89.3 M167,82c1-0.2,1.8-1.1,2.2-2.1c0.6-1.7-0.3-3.3-2.3-4c-2.1-0.7-3.9,0-4.8,2.6l-3,8.6l1.5,0.5
					l3-8.6c0.6-1.7,1.7-2.2,2.9-1.7c1.1,0.4,1.6,1.2,1.2,2.3c-0.4,1-1.4,1.7-2.4,1.3l-0.5-0.2l-0.4,1.2l0.6,0.2
					c1.5,0.5,2.3,2,1.8,3.5s-2,2.1-3.4,1.6c-0.4-0.1-0.9-0.4-1.2-0.6l-0.8,1.2c0.4,0.3,1.1,0.7,1.5,0.8c2.4,0.8,4.6-0.2,5.4-2.4
					C168.7,84.6,168.2,83,167,82 M152.7,83.5c-1.5-0.5-2.2-2.2-1.6-3.7c0.5-1.5,2.1-2.4,3.6-1.8c1.3,0.5,2.3,2.1,1.7,3.7
					C155.8,83.3,154.1,84,152.7,83.5 M157.3,79c-0.2-1.1-1.1-2-2.3-2.4c-2.2-0.8-4.6,0.4-5.4,2.8c-0.9,2.4,0.3,4.8,2.4,5.5
					c1.3,0.5,2.6,0.2,3.5-0.6l-0.5,1.4l1.5,0.5l2.8-7.9l-1.5-0.5L157.3,79z M149,74.4c-1.1-0.4-2,0-2.9,1.2l0.6-1.8l-1.5-0.5
					l-2.8,7.9l1.5,0.5l1-2.9c0.7-2.1,2-3.6,3.6-3c0.3,0.1,0.7,0.3,1.1,0.7l0.7-1.3C150.1,75,149.6,74.6,149,74.4 M141.9,72.1l1.1-3
					l-1.5-0.5l-1.1,3l-1.4-0.5l-0.5,1.3l1.4,0.5l-2.4,6.7l1.5,0.5l2.4-6.7l1.7,0.6l0.5-1.3L141.9,72.1z M131.9,77.7
					c1.6,0.6,3.4,0.2,3.9-1.3c0.3-0.9,0.2-2-1.3-3l-1.1-0.7c-0.5-0.3-0.9-0.8-0.7-1.3c0.2-0.6,0.9-0.9,1.7-0.7
					c0.6,0.2,1.1,0.9,0.9,1.5l1.4,0.5c0.6-1.6-0.6-2.8-1.9-3.3c-1.6-0.6-3.1,0.1-3.5,1.4c-0.5,1.3,0.1,2.2,1.3,3l1,0.6
					c0.6,0.4,0.9,0.8,0.7,1.4s-1,0.9-2,0.6s-1.4-1.1-1.1-1.8l-1.4-0.5C129.3,75.8,130.4,77.2,131.9,77.7 M129.7,67.6
					c-1.1-0.4-2,0-2.9,1.2l0.6-1.8l-1.5-0.5l-2.8,7.9l1.5,0.5l1-2.9c0.7-2.1,2-3.6,3.6-3c0.3,0.1,0.7,0.3,1.1,0.7l0.7-1.3
					C130.8,68.1,130.3,67.8,129.7,67.6 M116.3,66.8c0.7-1.3,1.9-1.7,3.3-1.2c1.3,0.5,2,1.6,1.7,3L116.3,66.8z M122.5,69.7
					c0.9-2.5-0.2-4.7-2.5-5.5c-2.3-0.8-4.6,0.2-5.5,2.7s0.3,4.8,2.6,5.6c1.5,0.5,3.2,0.3,4.4-0.8l-1.1-1c-0.7,0.6-1.8,0.8-2.7,0.4
					c-1.4-0.5-2.1-1.6-1.8-3.1l6.4,2.3C122.4,70.1,122.5,69.9,122.5,69.7 M110.9,66c-0.6,1.7-2.2,1.9-3.3,1.5
					c-1.1-0.4-1.6-1.5-1.1-2.9l1.6-4.5l-1.5-0.5l-1.6,4.6c-0.8,2.2-0.1,4,1.9,4.7c0.9,0.3,2.3,0.3,3.1-0.5l-0.4,1.2l1.5,0.5l2.8-7.9
					l-1.5-0.5L110.9,66z M97.6,64c-1.5-0.5-2.2-2.2-1.6-3.7c0.5-1.5,2.1-2.4,3.6-1.8c1.3,0.5,2.3,2.1,1.7,3.7
					C100.7,63.8,99,64.5,97.6,64 M102.2,59.5c-0.2-1.1-1.1-2-2.3-2.4c-2.2-0.8-4.6,0.4-5.4,2.8c-0.9,2.4,0.3,4.8,2.4,5.5
					c1.3,0.5,2.6,0.2,3.5-0.6l-0.5,1.4l1.5,0.5l2.8-7.9l-1.5-0.5L102.2,59.5z M94.1,51l-1.4-0.5l-7.2,7.2l-1.1-10.1L83,47l-5.6,11.2
					l1.5,0.5l4.2-8.5l1,9l1.3,0.5l6.4-6.3l-2.1,9.3l1.5,0.5L94.1,51z"/>
			</g>
			<g>
				<defs>
					<rect id="SVGID_00000055670989429743984190000014127868034522422713_" width="375" height="375"/>
				</defs>
				<clipPath id="SVGID_00000061457356976178111590000006701054307462824624_">
					<use xlink:href="#SVGID_00000055670989429743984190000014127868034522422713_"  style="overflow:visible;"/>
				</clipPath>
				<g style="clip-path:url(#SVGID_00000061457356976178111590000006701054307462824624_);">
					<g>
						<g>
							<defs>
								<rect id="SVGID_00000086678556276418741470000002932655535405610624_" x="159.6" y="183.2" width="38" height="28"/>
							</defs>
							<clipPath id="SVGID_00000007420273395844010520000009134885375702285494_">
								<use xlink:href="#SVGID_00000086678556276418741470000002932655535405610624_"  style="overflow:visible;"/>
							</clipPath>
							<path style="clip-path:url(#SVGID_00000007420273395844010520000009134885375702285494_);fill:#C0CDD1;" d="M178.6,210.2
								c5.5,0,10-4.5,10-10s-4.5-10-10-10s-10,4.5-10,10S173,210.2,178.6,210.2"/>
						</g>
					</g>
				</g>
			</g>
		</g>
	</g>
	<g>
		<defs>
			<rect id="SVGID_00000182506022970261990200000001619231081383836341_" width="375" height="375"/>
		</defs>
		<clipPath id="SVGID_00000053528303718965549050000000349568878995396739_">
			<use xlink:href="#SVGID_00000182506022970261990200000001619231081383836341_"  style="overflow:visible;"/>
		</clipPath>
		
			<rect x="177.3" y="195.2" style="clip-path:url(#SVGID_00000053528303718965549050000000349568878995396739_);fill:#FFFFFF;" width="2.5" height="10"/>
	</g>
	<g>
		<defs>
			<rect id="SVGID_00000122694447558048130870000007794247028285352348_" width="375" height="375"/>
		</defs>
		<clipPath id="SVGID_00000132078031364391950950000018116148363768274098_">
			<use xlink:href="#SVGID_00000122694447558048130870000007794247028285352348_"  style="overflow:visible;"/>
		</clipPath>
		
			<rect x="173.6" y="198.9" style="clip-path:url(#SVGID_00000132078031364391950950000018116148363768274098_);fill:#FFFFFF;" width="10" height="2.5"/>
	</g>
	<g>
		<defs>
			<rect id="SVGID_00000165231666969032357300000012927887763434143669_" width="375" height="375"/>
		</defs>
		<clipPath id="SVGID_00000093149688777818540180000012644413108396548748_">
			<use xlink:href="#SVGID_00000165231666969032357300000012927887763434143669_"  style="overflow:visible;"/>
		</clipPath>
		<g style="clip-path:url(#SVGID_00000093149688777818540180000012644413108396548748_);">
			<g>
				<defs>
					<rect id="SVGID_00000009557156045695967320000000167056028158572987_" width="375" height="375"/>
				</defs>
				<clipPath id="SVGID_00000026141719462397755610000003450745251113143955_">
					<use xlink:href="#SVGID_00000009557156045695967320000000167056028158572987_"  style="overflow:visible;"/>
				</clipPath>
			</g>
			<g>
				<defs>
					<rect id="SVGID_00000036253947017929357160000016247650865987417020_" width="375" height="375"/>
				</defs>
				<clipPath id="SVGID_00000017481294999705050820000010322807572318721716_">
					<use xlink:href="#SVGID_00000036253947017929357160000016247650865987417020_"  style="overflow:visible;"/>
				</clipPath>
				
					<path style="clip-path:url(#SVGID_00000017481294999705050820000010322807572318721716_);fill:none;stroke:#FFFFFF;stroke-width:8.371;stroke-linejoin:round;stroke-miterlimit:10;" d="
					M-3.9-20.4c46.3,17.1,92.7,34.1,139,51.2c48.7,6.2,97.5,12.4,146.2,18.6c78.5-10.9,156.9-21.8,235.4-32.7"/>
			</g>
			<g>
				<defs>
					<rect id="SVGID_00000050629542555260264500000018409168036214288771_" width="375" height="375"/>
				</defs>
				<clipPath id="SVGID_00000039849700152843815860000011554837641233767078_">
					<use xlink:href="#SVGID_00000050629542555260264500000018409168036214288771_"  style="overflow:visible;"/>
				</clipPath>
				
					<path style="clip-path:url(#SVGID_00000039849700152843815860000011554837641233767078_);fill:none;stroke:#FFFFFF;stroke-width:8.371;stroke-linejoin:round;stroke-miterlimit:10;" d="
					M-9.6-4.7l139.9,51.5c0.6,0.2,1.2,0.4,1.8,0.4l148.2,18.9c0.7,0.1,1.5,0.1,2.2,0L519,33.3"/>
			</g>
			<g>
				<defs>
					<rect id="SVGID_00000000215491367228937450000001891015846932314792_" width="375" height="375"/>
				</defs>
				<clipPath id="SVGID_00000097457965678116295940000014327123181275579525_">
					<use xlink:href="#SVGID_00000000215491367228937450000001891015846932314792_"  style="overflow:visible;"/>
				</clipPath>
				
					<polyline style="clip-path:url(#SVGID_00000097457965678116295940000014327123181275579525_);fill:none;stroke:#FFFFFF;stroke-width:12.57;stroke-linejoin:round;stroke-miterlimit:10;" points="
					291.6,66 279.1,107.6 297.9,403.8 263.3,514.4 				"/>
			</g>
		</g>
	</g>
	<g>
		<defs>
			<rect id="SVGID_00000047744942257240521960000002448146568511250581_" width="375" height="375"/>
		</defs>
		<clipPath id="SVGID_00000177474774505087978220000004618590380910545817_">
			<use xlink:href="#SVGID_00000047744942257240521960000002448146568511250581_"  style="overflow:visible;"/>
		</clipPath>
		
			<line style="clip-path:url(#SVGID_00000177474774505087978220000004618590380910545817_);fill:none;stroke:#FFFFFF;stroke-width:12.57;stroke-linejoin:round;stroke-miterlimit:10;" x1="279.1" y1="104.5" x2="259.5" y2="63.7"/>
	</g>
	<g>
		<defs>
			<rect id="SVGID_00000029015575956029761520000013378313495100548029_" width="375" height="375"/>
		</defs>
		<clipPath id="SVGID_00000064341055795663919360000000165008493846961301_">
			<use xlink:href="#SVGID_00000029015575956029761520000013378313495100548029_"  style="overflow:visible;"/>
		</clipPath>
		<g style="clip-path:url(#SVGID_00000064341055795663919360000000165008493846961301_);">
			<g>
				<defs>
					<rect id="SVGID_00000062902961646494116120000003114745150377433764_" width="375" height="375"/>
				</defs>
				<clipPath id="SVGID_00000080891971779847769620000010364140896237431963_">
					<use xlink:href="#SVGID_00000062902961646494116120000003114745150377433764_"  style="overflow:visible;"/>
				</clipPath>
				
					<polyline style="clip-path:url(#SVGID_00000080891971779847769620000010364140896237431963_);fill:none;stroke:#FFFFFF;stroke-width:6.285;stroke-linejoin:round;stroke-miterlimit:10;" points="
					-3.1,-2.6 316.8,116.2 514,93.5 				"/>
			</g>
			<g>
				<defs>
					<rect id="SVGID_00000062158625521967423780000008350954535119887540_" width="375" height="375"/>
				</defs>
				<clipPath id="SVGID_00000103229700337705759390000010866589211101308088_">
					<use xlink:href="#SVGID_00000062158625521967423780000008350954535119887540_"  style="overflow:visible;"/>
				</clipPath>
				
					<polyline style="clip-path:url(#SVGID_00000103229700337705759390000010866589211101308088_);fill:none;stroke:#FFFFFF;stroke-width:6.285;stroke-linejoin:round;stroke-miterlimit:10;" points="
					284.6,230.2 221.2,244.1 131.4,211.3 56.7,194 -12.4,227.8 -197.8,254.5 				"/>
			</g>
			<g>
				<defs>
					<rect id="SVGID_00000167366984337759621300000005948822350851205019_" width="375" height="375"/>
				</defs>
				<clipPath id="SVGID_00000163034014012331336640000013478411886206098859_">
					<use xlink:href="#SVGID_00000167366984337759621300000005948822350851205019_"  style="overflow:visible;"/>
				</clipPath>
				
					<polyline style="clip-path:url(#SVGID_00000163034014012331336640000013478411886206098859_);fill:none;stroke:#FFFFFF;stroke-width:6.285;stroke-linejoin:round;stroke-miterlimit:10;" points="
					18.2,213.7 56.8,261 127.4,347.8 247.6,517.5 				"/>
			</g>
			<g>
				<defs>
					<rect id="SVGID_00000054982190260399713820000011075819744993392037_" width="375" height="375"/>
				</defs>
				<clipPath id="SVGID_00000157301938380131598270000009331785644548501634_">
					<use xlink:href="#SVGID_00000054982190260399713820000011075819744993392037_"  style="overflow:visible;"/>
				</clipPath>
				
					<line style="clip-path:url(#SVGID_00000157301938380131598270000009331785644548501634_);fill:none;stroke:#FFFFFF;stroke-width:6.285;stroke-linejoin:round;stroke-miterlimit:10;" x1="23.7" y1="534.2" x2="55.9" y2="260"/>
			</g>
			<g>
				<defs>
					<rect id="SVGID_00000151539306277567626460000016177257774459853502_" width="375" height="375"/>
				</defs>
				<clipPath id="SVGID_00000182496015038753977480000014045831972156702892_">
					<use xlink:href="#SVGID_00000151539306277567626460000016177257774459853502_"  style="overflow:visible;"/>
				</clipPath>
				
					<line style="clip-path:url(#SVGID_00000182496015038753977480000014045831972156702892_);fill:none;stroke:#FFFFFF;stroke-width:6.285;stroke-linejoin:round;stroke-miterlimit:10;" x1="-199.9" y1="333.1" x2="293.2" y2="356.6"/>
			</g>
		</g>
	</g>
	<g>
		<defs>
			<rect id="SVGID_00000075877222458492400250000011804218790893060992_" width="375" height="375"/>
		</defs>
		<clipPath id="SVGID_00000072263754292853945790000010144710397467485340_">
			<use xlink:href="#SVGID_00000075877222458492400250000011804218790893060992_"  style="overflow:visible;"/>
		</clipPath>
		
			<polyline style="clip-path:url(#SVGID_00000072263754292853945790000010144710397467485340_);fill:none;stroke:#FFFFFF;stroke-width:6.285;stroke-linejoin:round;stroke-miterlimit:10;" points="
			44.9,197.9 51.2,95.8 41,77 42.6,36.1 62.6,22.7 		"/>
	</g>
	<g>
		<defs>
			<rect id="SVGID_00000093144228697769046390000013913400515295376261_" width="375" height="375"/>
		</defs>
		<clipPath id="SVGID_00000005984031536670835310000016290217650409094300_">
			<use xlink:href="#SVGID_00000093144228697769046390000013913400515295376261_"  style="overflow:visible;"/>
		</clipPath>
		
			<polyline style="clip-path:url(#SVGID_00000005984031536670835310000016290217650409094300_);fill:none;stroke:#FFFFFF;stroke-width:3;stroke-linejoin:round;stroke-miterlimit:10;" points="
			230.6,241.9 235.1,266.3 258.9,288.3 258.9,303.8 245.3,314.2 155.7,282 152,275.5 171.4,226.2 		"/>
	</g>
	<g>
		<defs>
			<rect id="SVGID_00000155128521230179447380000012860989422150710412_" width="375" height="375"/>
		</defs>
		<clipPath id="SVGID_00000104701464881600106840000012442935551355677834_">
			<use xlink:href="#SVGID_00000155128521230179447380000012860989422150710412_"  style="overflow:visible;"/>
		</clipPath>
		
			<line style="clip-path:url(#SVGID_00000104701464881600106840000012442935551355677834_);fill:none;stroke:#FFFFFF;stroke-width:6.285;stroke-linejoin:round;stroke-miterlimit:10;" x1="199.7" y1="235.7" x2="217" y2="191.7"/>
	</g>
	<g>
		<defs>
			<rect id="SVGID_00000179619836419385863410000013299193879978485180_" width="375" height="375"/>
		</defs>
		<clipPath id="SVGID_00000003809245721212971820000012491483544168257176_">
			<use xlink:href="#SVGID_00000179619836419385863410000013299193879978485180_"  style="overflow:visible;"/>
		</clipPath>
		
			<line style="clip-path:url(#SVGID_00000003809245721212971820000012491483544168257176_);fill:none;stroke:#FFFFFF;stroke-width:6.285;stroke-linejoin:round;stroke-miterlimit:10;" x1="132.1" y1="210.5" x2="143.9" y2="171.8"/>
	</g>
	<g>
		<defs>
			<rect id="SVGID_00000062166460339993860660000004550478302463552184_" width="375" height="375"/>
		</defs>
		<clipPath id="SVGID_00000144324142931505358840000009823472588063832464_">
			<use xlink:href="#SVGID_00000062166460339993860660000004550478302463552184_"  style="overflow:visible;"/>
		</clipPath>
		<g style="clip-path:url(#SVGID_00000144324142931505358840000009823472588063832464_);">
			<g>
				<defs>
					<rect id="SVGID_00000039814256830152119810000010080474850609083318_" width="375" height="375"/>
				</defs>
				<clipPath id="SVGID_00000012445642389530468290000010964887360745290134_">
					<use xlink:href="#SVGID_00000039814256830152119810000010080474850609083318_"  style="overflow:visible;"/>
				</clipPath>
				
					<polyline style="clip-path:url(#SVGID_00000012445642389530468290000010964887360745290134_);fill:none;stroke:#FFFFFF;stroke-width:6.285;stroke-linejoin:round;stroke-miterlimit:10;" points="
					350.5,113.1 358.4,197.9 375.1,211.3 461.3,197 				"/>
			</g>
			<g>
				<defs>
					<rect id="SVGID_00000156576453653101367120000011873156777014704027_" width="375" height="375"/>
				</defs>
				<clipPath id="SVGID_00000071539305569023669460000011062651263356776365_">
					<use xlink:href="#SVGID_00000156576453653101367120000011873156777014704027_"  style="overflow:visible;"/>
				</clipPath>
				
					<line style="clip-path:url(#SVGID_00000071539305569023669460000011062651263356776365_);fill:none;stroke:#FFFFFF;stroke-width:6.285;stroke-linejoin:round;stroke-miterlimit:10;" x1="354.5" y1="165.7" x2="418.1" y2="157.1"/>
			</g>
			<g>
				<defs>
					<rect id="SVGID_00000009582438764255616990000004868736949806818746_" width="375" height="375"/>
				</defs>
				<clipPath id="SVGID_00000142174426859363036940000001794715047662421909_">
					<use xlink:href="#SVGID_00000009582438764255616990000004868736949806818746_"  style="overflow:visible;"/>
				</clipPath>
				
					<polyline style="clip-path:url(#SVGID_00000142174426859363036940000001794715047662421909_);fill:none;stroke:#FFFFFF;stroke-width:6.285;stroke-linejoin:round;stroke-miterlimit:10;" points="
					322.3,113.9 318.6,82.5 322.3,74.6 519.8,51.8 				"/>
			</g>
			<g>
				<defs>
					<rect id="SVGID_00000178183190737957538760000012477652914823646603_" width="375" height="375"/>
				</defs>
				<clipPath id="SVGID_00000096740050036058715900000008333532491798590653_">
					<use xlink:href="#SVGID_00000178183190737957538760000012477652914823646603_"  style="overflow:visible;"/>
				</clipPath>
				
					<line style="clip-path:url(#SVGID_00000096740050036058715900000008333532491798590653_);fill:none;stroke:#FFFFFF;stroke-width:6.285;stroke-linejoin:round;stroke-miterlimit:10;" x1="352.9" y1="90.1" x2="510" y2="73"/>
			</g>
		</g>
	</g>
	<g>
		<defs>
			<rect id="SVGID_00000132791021055386951310000005316518799082171056_" width="375" height="375"/>
		</defs>
		<clipPath id="SVGID_00000160900636585422107140000005474137824288140458_">
			<use xlink:href="#SVGID_00000132791021055386951310000005316518799082171056_"  style="overflow:visible;"/>
		</clipPath>
		
			<polyline style="clip-path:url(#SVGID_00000160900636585422107140000005474137824288140458_);fill:none;stroke:#FFFFFF;stroke-width:3.142;stroke-linejoin:round;stroke-miterlimit:10;" points="
			363.1,204.2 338.8,211.3 341.1,233.3 287.7,235.7 		"/>
	</g>
	<g>
		<defs>
			<rect id="SVGID_00000124862932315289409300000009870135574332095132_" width="375" height="375"/>
		</defs>
		<clipPath id="SVGID_00000062162640663125665420000016370397788597215148_">
			<use xlink:href="#SVGID_00000124862932315289409300000009870135574332095132_"  style="overflow:visible;"/>
		</clipPath>
		<g style="clip-path:url(#SVGID_00000062162640663125665420000016370397788597215148_);">
			<g>
				<defs>
					<rect id="SVGID_00000170978049383931481570000009483046650127986571_" width="375" height="375"/>
				</defs>
				<clipPath id="SVGID_00000158711677712781229980000017826842747836859835_">
					<use xlink:href="#SVGID_00000170978049383931481570000009483046650127986571_"  style="overflow:visible;"/>
				</clipPath>
				
					<polyline style="clip-path:url(#SVGID_00000158711677712781229980000017826842747836859835_);fill:none;stroke:#FFFFFF;stroke-width:3;stroke-linejoin:round;stroke-miterlimit:10;" points="
					-41.5,68.3 -8.5,60.5 8.8,43 42,46.2 				"/>
			</g>
			<g>
				<defs>
					<rect id="SVGID_00000080200169938753294190000008423718190398832802_" width="375" height="375"/>
				</defs>
				<clipPath id="SVGID_00000144311080354734809580000002055407968915091116_">
					<use xlink:href="#SVGID_00000080200169938753294190000008423718190398832802_"  style="overflow:visible;"/>
				</clipPath>
				
					<line style="clip-path:url(#SVGID_00000144311080354734809580000002055407968915091116_);fill:none;stroke:#FFFFFF;stroke-width:3.142;stroke-linejoin:round;stroke-miterlimit:10;" x1="42" y1="34.5" x2="-5.1" y2="12.5"/>
			</g>
			<g>
				<defs>
					<rect id="SVGID_00000153693527887786324740000011241274653186126781_" width="375" height="375"/>
				</defs>
				<clipPath id="SVGID_00000080899403134344014530000015733092454566637698_">
					<use xlink:href="#SVGID_00000153693527887786324740000011241274653186126781_"  style="overflow:visible;"/>
				</clipPath>
				
					<polyline style="clip-path:url(#SVGID_00000080899403134344014530000015733092454566637698_);fill:none;stroke:#FFFFFF;stroke-width:3.142;stroke-linejoin:round;stroke-miterlimit:10;" points="
					9.1,43 -2.7,25.7 -0.4,14.9 				"/>
			</g>
			<g>
				<defs>
					<rect id="SVGID_00000071536496289630770230000014460256462598742170_" width="375" height="375"/>
				</defs>
				<clipPath id="SVGID_00000087401046826975830070000001069189045373477515_">
					<use xlink:href="#SVGID_00000071536496289630770230000014460256462598742170_"  style="overflow:visible;"/>
				</clipPath>
				
					<path style="clip-path:url(#SVGID_00000087401046826975830070000001069189045373477515_);fill:none;stroke:#FFFFFF;stroke-width:3.142;stroke-linejoin:round;stroke-miterlimit:10;" d="
					M5.7,48.7"/>
			</g>
			<g>
				<defs>
					<rect id="SVGID_00000109021987516129162720000012281683725030639759_" width="375" height="375"/>
				</defs>
				<clipPath id="SVGID_00000057134995506428974660000005990889063517496737_">
					<use xlink:href="#SVGID_00000109021987516129162720000012281683725030639759_"  style="overflow:visible;"/>
				</clipPath>
				<path style="clip-path:url(#SVGID_00000057134995506428974660000005990889063517496737_);fill:#002C50;" d="M305.9,203.9
					c11,0,20-9,20-20s-9-20-20-20s-20,9-20,20S294.9,203.9,305.9,203.9"/>
			</g>
		</g>
	</g>
	<g>
		<defs>
			<rect id="SVGID_00000096772696825861528940000001002066970092085915_" width="375" height="375"/>
		</defs>
		<clipPath id="SVGID_00000079460031235949826920000016303566576968830881_">
			<use xlink:href="#SVGID_00000096772696825861528940000001002066970092085915_"  style="overflow:visible;"/>
		</clipPath>
		<polygon style="clip-path:url(#SVGID_00000079460031235949826920000016303566576968830881_);fill:#FFFFFF;" points="319.7,178.8 
			318.5,178.8 314.9,186.4 311.2,178.8 310,178.8 308.8,189 310.1,189 311,181.2 314.3,187.9 315.5,187.9 318.7,181.2 319.6,189 
			320.9,189 		"/>
	</g>
	<g>
		<defs>
			<rect id="SVGID_00000088819890237556733740000013222265289991709840_" width="375" height="375"/>
		</defs>
		<clipPath id="SVGID_00000119092524656856019280000001466602235261716925_">
			<use xlink:href="#SVGID_00000088819890237556733740000013222265289991709840_"  style="overflow:visible;"/>
		</clipPath>
		<g style="clip-path:url(#SVGID_00000119092524656856019280000001466602235261716925_);">
			<g>
				<defs>
					<rect id="SVGID_00000139286621567712802820000004311243782957095811_" width="375" height="375"/>
				</defs>
				<clipPath id="SVGID_00000136386544607897785560000000503392577317213315_">
					<use xlink:href="#SVGID_00000139286621567712802820000004311243782957095811_"  style="overflow:visible;"/>
				</clipPath>
				<path style="clip-path:url(#SVGID_00000136386544607897785560000000503392577317213315_);fill:#FFFFFF;" d="M304.9,197.9
					c-3.7,0-7.3-1.5-9.9-4.1s-4.1-6.2-4.1-9.9s1.5-7.3,4.1-9.9c2.6-2.6,6.2-4.1,9.9-4.1c3.7,0,7.3,1.5,9.9,4.1l-1,1
					c-2.4-2.4-5.6-3.7-8.9-3.7c-3.4,0-6.6,1.3-8.9,3.7c-2.4,2.4-3.7,5.6-3.7,8.9c0,3.4,1.3,6.6,3.7,8.9s5.6,3.7,8.9,3.7
					c3.4,0,6.6-1.3,8.9-3.7l1,1C312.2,196.5,308.7,197.9,304.9,197.9"/>
			</g>
		</g>
	</g>
</g>
</svg>
