<?xml version="1.0" encoding="utf-8"?>
<!-- Generator: Adobe Illustrator 27.8.1, SVG Export Plug-In . SVG Version: 6.00 Build 0)  -->
<svg version="1.1" id="Ebene_1" xmlns="http://www.w3.org/2000/svg" xmlns:xlink="http://www.w3.org/1999/xlink" x="0px" y="0px"
	 viewBox="0 0 70 82" style="enable-background:new 0 0 70 82;" xml:space="preserve">
<style type="text/css">
	.st0{fill:none;stroke:#002948;stroke-linejoin:round;}
	.st1{fill:#002948;}
</style>
<g id="Gruppe_2787" transform="translate(0 80)">
	<g>
		<g id="Gruppe_2810">
			<g id="Gruppe_2787-2" transform="translate(67.931 -67.931)">
				<path id="Pfad_1621" class="st0" d="M0.9,1C-14.6-14.4-39.6-14.4-55,1c-15.4,15.4-15.4,40.4,0,55.9c15.4,15.4,40.4,15.4,55.9,0"
					/>
			</g>
			<g id="Gruppe_2788" transform="translate(43.195 -54.517)">
				<path id="Pfad_1622" class="st0" d="M0.9,1C0-16.8,20.6-10.6,18.5,4.2c-0.8,5.7-3,9.3-3.6,16.9c-0.5,6.3-0.3,6.7-0.7,14.3
					S0.5,42.9,0.9,34.5c-0.1-1.6,0.7-6.6,1.6-12.3C3.1,18,2.1,10.4,1.4,5.4C1.1,3.4,0.9,1.8,0.9,1z"/>
			</g>
			<g id="Gruppe_2789" transform="translate(43.69 -50.034)">
				<path id="Pfad_1623" class="st0" d="M0.9,1c0,0,4.2,6,4.9,9.2c0.8,2.9,0.3,6.1-1.2,8.7c-1.6,3-3.6,5.2-3.6,6"/>
			</g>
			<g id="Gruppe_2790" transform="translate(52.76 -43.733)">
				<path id="Pfad_1624" class="st1" d="M0.9,1c0.5,0,0.8-0.4,0.8-0.8c0-0.5-0.4-0.8-0.8-0.8C0.4-0.6,0-0.3,0,0.2C0,0.6,0.4,1,0.9,1
					"/>
			</g>
			<g id="Gruppe_2791" transform="translate(50.137 -45.044)">
				<path id="Pfad_1625" class="st1" d="M0.9,1c0.5,0,0.8-0.4,0.8-0.8c0-0.5-0.4-0.8-0.8-0.8C0.4-0.6,0-0.3,0,0.2C0,0.6,0.4,1,0.9,1
					"/>
			</g>
			<g id="Gruppe_2792" transform="translate(53.841 -40.854)">
				<path id="Pfad_1626" class="st1" d="M0.9,1c0.5,0,0.8-0.4,0.8-0.8c0-0.5-0.4-0.8-0.8-0.8C0.4-0.6,0-0.3,0,0.2C0,0.6,0.4,1,0.9,1
					"/>
			</g>
			<g id="Gruppe_2793" transform="translate(53.841 -37.641)">
				<path id="Pfad_1627" class="st1" d="M0.9,1c0.5,0,0.8-0.4,0.8-0.8c0-0.5-0.4-0.8-0.8-0.8C0.4-0.6,0-0.3,0,0.2C0,0.6,0.4,1,0.9,1
					"/>
			</g>
			<g id="Gruppe_2794" transform="translate(51.907 -35.28)">
				<path id="Pfad_1628" class="st1" d="M0.9,1c0.5,0,0.8-0.4,0.8-0.8c0-0.5-0.4-0.8-0.8-0.8C0.4-0.6,0-0.3,0,0.2C0,0.6,0.4,1,0.9,1
					"/>
			</g>
			<g id="Gruppe_2795" transform="translate(50.006 -23.733)">
				<path id="Pfad_1629" class="st1" d="M0.9,1c0.5,0,0.8-0.4,0.8-0.8c0-0.5-0.4-0.8-0.8-0.8C0.4-0.6,0-0.3,0,0.2C0,0.6,0.4,1,0.9,1
					"/>
			</g>
			<g id="Gruppe_2796" transform="translate(50.006 -18.1)">
				<path id="Pfad_1630" class="st1" d="M0.9,1c0.5,0,0.8-0.4,0.8-0.8c0-0.5-0.4-0.8-0.8-0.8C0.4-0.6,0-0.3,0,0.2C0,0.6,0.4,1,0.9,1
					"/>
			</g>
			<g id="Gruppe_2797" transform="translate(48.009 -21.736)">
				<path id="Pfad_1631" class="st1" d="M0.9,1c0-0.5-0.4-0.8-0.8-0.8c-0.5,0-0.8,0.4-0.8,0.8c0,0.5,0.4,0.8,0.8,0.8
					C0.5,1.8,0.9,1.5,0.9,1"/>
			</g>
			<g id="Gruppe_2798" transform="translate(53.642 -21.736)">
				<path id="Pfad_1632" class="st1" d="M0.9,1c0-0.5-0.4-0.8-0.8-0.8c-0.5,0-0.8,0.4-0.8,0.8c0,0.5,0.4,0.8,0.8,0.8
					C0.5,1.8,0.9,1.5,0.9,1"/>
			</g>
			<g id="Gruppe_2799" transform="translate(36.805 -54.517)">
				<path id="Pfad_1633" class="st0" d="M0.9,1c0.8-17.8-19.7-11.6-17.7,3.2c0.8,5.7,3,9.3,3.6,16.9c0.5,6.3,0.3,6.7,0.7,14.3
					s13.8,7.5,13.3-0.8c0.1-1.6-0.7-6.6-1.6-12.3C-1.4,18-0.4,10.4,0.3,5.4C0.6,3.4,0.8,1.8,0.9,1z"/>
			</g>
			<g id="Gruppe_2800" transform="translate(36.31 -50.034)">
				<path id="Pfad_1634" class="st0" d="M0.9,1c0,0-4.2,6-4.9,9.2c-0.8,2.9-0.3,6.1,1.2,8.7c1.6,3,3.6,5.2,3.6,6"/>
			</g>
			<g id="Gruppe_2801" transform="translate(27.24 -43.733)">
				<path id="Pfad_1635" class="st1" d="M0.9,1C0.4,1,0,0.6,0,0.2c0-0.5,0.4-0.8,0.8-0.8c0.5,0,0.8,0.4,0.8,0.8C1.7,0.6,1.3,1,0.9,1
					"/>
			</g>
			<g id="Gruppe_2802" transform="translate(29.863 -45.044)">
				<path id="Pfad_1636" class="st1" d="M0.9,1C0.4,1,0,0.6,0,0.2c0-0.5,0.4-0.8,0.8-0.8c0.5,0,0.8,0.4,0.8,0.8C1.7,0.6,1.3,1,0.9,1
					"/>
			</g>
			<g id="Gruppe_2803" transform="translate(26.159 -40.854)">
				<path id="Pfad_1637" class="st1" d="M0.9,1C0.4,1,0,0.6,0,0.2c0-0.5,0.4-0.8,0.8-0.8c0.5,0,0.8,0.4,0.8,0.8C1.7,0.6,1.3,1,0.9,1
					"/>
			</g>
			<g id="Gruppe_2804" transform="translate(26.159 -37.641)">
				<path id="Pfad_1638" class="st1" d="M0.9,1C0.4,1,0,0.6,0,0.2c0-0.5,0.4-0.8,0.8-0.8c0.5,0,0.8,0.4,0.8,0.8C1.7,0.6,1.3,1,0.9,1
					"/>
			</g>
			<g id="Gruppe_2805" transform="translate(28.093 -35.28)">
				<path id="Pfad_1639" class="st1" d="M0.9,1C0.4,1,0,0.6,0,0.2c0-0.5,0.4-0.8,0.8-0.8c0.5,0,0.8,0.4,0.8,0.8C1.7,0.6,1.3,1,0.9,1
					"/>
			</g>
			<g id="Gruppe_2806" transform="translate(29.994 -23.733)">
				<path id="Pfad_1640" class="st1" d="M0.9,1C0.4,1,0,0.6,0,0.2c0-0.5,0.4-0.8,0.8-0.8c0.5,0,0.8,0.4,0.8,0.8C1.7,0.6,1.3,1,0.9,1
					"/>
			</g>
			<g id="Gruppe_2807" transform="translate(29.994 -18.1)">
				<path id="Pfad_1641" class="st1" d="M0.9,1C0.4,1,0,0.6,0,0.2c0-0.5,0.4-0.8,0.8-0.8c0.5,0,0.8,0.4,0.8,0.8C1.7,0.6,1.3,1,0.9,1
					"/>
			</g>
			<g id="Gruppe_2808" transform="translate(31.991 -21.736)">
				<path id="Pfad_1642" class="st1" d="M0.9,1c0-0.5,0.4-0.8,0.8-0.8c0.5,0,0.8,0.4,0.8,0.8c0,0.5-0.4,0.8-0.8,0.8
					C1.2,1.8,0.9,1.5,0.9,1"/>
			</g>
			<g id="Gruppe_2809" transform="translate(26.358 -21.736)">
				<path id="Pfad_1643" class="st1" d="M0.9,1c0-0.5,0.4-0.8,0.8-0.8c0.5,0,0.8,0.4,0.8,0.8c0,0.5-0.4,0.8-0.8,0.8
					C1.2,1.8,0.9,1.5,0.9,1"/>
			</g>
		</g>
	</g>
</g>
</svg>
