<?xml version="1.0" encoding="utf-8"?>
<!-- Generator: Adobe Illustrator 27.8.1, SVG Export Plug-In . SVG Version: 6.00 Build 0)  -->
<svg version="1.1" id="Ebene_1" xmlns="http://www.w3.org/2000/svg" xmlns:xlink="http://www.w3.org/1999/xlink" x="0px" y="0px"
	 viewBox="0 0 70 82" style="enable-background:new 0 0 70 82;" xml:space="preserve">
<style type="text/css">
	.st0{fill:none;stroke:#002948;stroke-linejoin:round;}
	.st1{fill:none;stroke:#002B4F;}
</style>
<g id="Gruppe_2775" transform="translate(0 80)">
	<g>
		<g id="Gruppe_2777">
			<g id="Gruppe_2775-2" transform="translate(67.931 -67.931)">
				<path id="Pfad_1608" class="st0" d="M0.9,1C-14.6-14.4-39.6-14.4-55,1c-15.4,15.4-15.4,40.4,0,55.9c15.4,15.4,40.4,15.4,55.9,0"
					/>
			</g>
			<g id="Gruppe_2776" transform="translate(19.534 -27.675)">
				<path id="Pfad_1609" class="st1" d="M0.9,1l8.1,8.1 M13.1,1.9L7.5,7.5 M2.4,2.4L8-3.2 M23.2-21.3l2.9,2.9 M17.8-15.9l2.9,2.9
					 M12.3-10.5l2.9,2.9 M4.7-6.5L16.5,5.2 M37.2-27.2l4.6-4.6 M32.2-25.5l1.6-1.6c1-0.9,2.4-0.8,3.3,0.1c1,0.9,1,2.4,0.1,3.3
					l-1.6,1.6 M15.2,3.3l20.9-20.9c1.1-1.1,1.1-2.8,0-3.9c0,0,0,0,0,0l-4.8-4.8c-1.1-1.1-2.8-1.1-3.9,0L6.5-5.4"/>
			</g>
		</g>
	</g>
</g>
</svg>
