<?xml version="1.0" encoding="utf-8"?>
<!-- Generator: Adobe Illustrator 27.8.1, SVG Export Plug-In . SVG Version: 6.00 Build 0)  -->
<svg version="1.1" id="Ebene_1" xmlns="http://www.w3.org/2000/svg" xmlns:xlink="http://www.w3.org/1999/xlink" x="0px" y="0px"
	 viewBox="0 0 70 82" style="enable-background:new 0 0 70 82;" xml:space="preserve">
<style type="text/css">
	.st0{fill:none;stroke:#002948;stroke-linejoin:round;}
	.st1{fill:none;stroke:#002948;}
</style>
<g id="Gruppe_2771" transform="translate(0 80)">
	<g>
		<g id="Gruppe_2753">
			<g id="Gruppe_2752" transform="translate(67.931 -67.931)">
				<path id="Pfad_1589" class="st0" d="M0.8,1c-15.4-15.4-40.4-15.4-55.9,0c-15.4,15.4-15.4,40.4,0,55.9
					c15.4,15.4,40.4,15.4,55.9,0"/>
			</g>
		</g>
	</g>
	<g id="Gruppe_2754" transform="translate(30.662 -38.031)">
		<path id="Pfad_1591" class="st1" d="M0.8,1h18.6"/>
	</g>
	<path id="Pfad_1592" class="st1" d="M17.3-37h3.6v-4h-3.6V-37z"/>
	<path id="Pfad_1593" class="st1" d="M64.3-36.9h-3.6v-4h3.6V-36.9z"/>
	<g>
		<g id="Gruppe_2759">
			<g id="Gruppe_2755" transform="translate(25.49 -26.696)">
				<path id="Pfad_1594" class="st1" d="M0.8,1c0,1.5,1.2,2.7,2.7,2.7S6.2,2.5,6.2,1l0,0v-26.6c0-1.5-1.2-2.7-2.7-2.7l0,0
					c-1.5,0-2.7,1.2-2.7,2.7C0.8-25.6,0.8,1,0.8,1z"/>
			</g>
			<g id="Gruppe_2756" transform="translate(54.482 -26.696)">
				<path id="Pfad_1595" class="st1" d="M0.8,1c0,1.5-1.2,2.7-2.7,2.7S-4.6,2.5-4.6,1l0,0v-26.6c0-1.5,1.2-2.7,2.7-2.7l0,0
					c1.5,0,2.7,1.2,2.7,2.7C0.8-25.6,0.8,1,0.8,1z"/>
			</g>
			<g id="Gruppe_2757" transform="translate(20.184 -31.685)">
				<path id="Pfad_1596" class="st1" d="M0.7,0.9c0,1.5,1.2,2.7,2.7,2.7s2.7-1.2,2.7-2.7l0,0v-16.6c0-1.5-1.2-2.7-2.7-2.7l0,0
					c-1.5,0-2.7,1.2-2.7,2.7l0,0C0.7-15.7,0.7,0.9,0.7,0.9z"/>
			</g>
			<g id="Gruppe_2758" transform="translate(59.804 -31.685)">
				<path id="Pfad_1597" class="st1" d="M0.9,0.9c0,1.5-1.2,2.7-2.7,2.7s-2.7-1.2-2.7-2.7l0,0v-16.6c0-1.5,1.2-2.7,2.7-2.7l0,0
					c1.5,0,2.7,1.2,2.7,2.7l0,0C0.9-15.7,0.9,0.9,0.9,0.9z"/>
			</g>
		</g>
	</g>
	<g id="Gruppe_2760" transform="translate(49.307 -41.745)">
		<path id="Pfad_1599" class="st1" d="M0.8,1h-18.6"/>
	</g>
</g>
</svg>
