<?xml version="1.0" encoding="utf-8"?>
<!-- Generator: Adobe Illustrator 27.8.1, SVG Export Plug-In . SVG Version: 6.00 Build 0)  -->
<svg version="1.1" id="Ebene_1" xmlns="http://www.w3.org/2000/svg" xmlns:xlink="http://www.w3.org/1999/xlink" x="0px" y="0px"
	 viewBox="0 0 70 82" style="enable-background:new 0 0 70 82;" xml:space="preserve">
<style type="text/css">
	.st0{fill:none;stroke:#002948;stroke-linejoin:round;}
	.st1{fill:none;stroke:#002948;stroke-linecap:round;stroke-miterlimit:10;}
</style>
<g id="Gruppe_2743" transform="translate(0 80)">
	<g>
		<g id="Gruppe_2742">
			<g id="Gruppe_2740" transform="translate(67.931 -12.069)">
				<path id="Pfad_1576" class="st0" d="M0.9,1C-14.6,16.4-39.6,16.4-55,1c-15.4-15.4-15.4-40.4,0-55.9c15.4-15.4,40.4-15.4,55.9,0"
					/>
			</g>
			<g id="Gruppe_2741" transform="translate(39.023 -24.042)">
				<path id="Pfad_1577" class="st0" d="M0.9,1c0-5.9,4.8-10.8,10.7-10.8v-12.1c0-1.8,1.5-3.3,3.3-3.3c1.8,0,3.3,1.5,3.3,3.3
					c0,0,0,0,0,0v16.4h0c0,9-7.3,16.3-16.3,16.3c0,0,0,0,0,0c-9,0-16.3-7.3-16.3-16.3c0,0,0,0,0,0l0,0v-19.2c0-1.8,1.5-3.3,3.3-3.3
					c0,0,0,0,0,0c1.8,0,3.3,1.5,3.3,3.3c0,0,0,0,0,0v-8.8c0-1.8,1.5-3.3,3.3-3.3c0,0,0,0,0,0c1.8,0,3.3,1.5,3.3,3.3v-3.9
					c0-1.8,1.5-3.3,3.3-3.3c0,0,0,0,0,0c1.8,0,3.3,1.5,3.3,3.3c0,0,0,0,0,0v3.9c0-1.8,1.5-3.3,3.3-3.3c0,0,0,0,0,0
					c1.8,0,3.3,1.5,3.3,3.3c0,0,0,0,0,0v19"/>
			</g>
		</g>
	</g>
</g>
<line class="st1" x1="31.1" y1="30.9" x2="31.1" y2="41"/>
<line class="st1" x1="37.6" y1="21.9" x2="37.6" y2="41"/>
<line class="st1" x1="44.1" y1="21.9" x2="44.1" y2="41"/>
</svg>
