<?xml version="1.0" encoding="utf-8"?>
<!-- Generator: Adobe Illustrator 27.8.1, SVG Export Plug-In . SVG Version: 6.00 Build 0)  -->
<svg version="1.1" id="Komponente_28_1" xmlns="http://www.w3.org/2000/svg" xmlns:xlink="http://www.w3.org/1999/xlink" x="0px"
	 y="0px" viewBox="0 0 61 61" style="enable-background:new 0 0 61 61;" xml:space="preserve">
<style type="text/css">
	.st0{fill:#1982DB;}
	.st1{fill:none;stroke:#FFFFFF;stroke-width:1.5;}
</style>
<g id="Gruppe_1057">
	<g id="Gruppe_1011" transform="translate(0 0)">
		<circle id="Ellipse_15" class="st0" cx="30.5" cy="30.5" r="30"/>
	</g>
</g>
<g id="Gruppe_1095" transform="translate(19.279 15.091)">
	<g>
		<g id="Gruppe_1094" transform="translate(0 0)">
			<g id="Gruppe_1093" transform="translate(0.566 0.566)">
				<path id="Pfad_656" class="st1" d="M21.1,10.8c0-5.7-4.6-10.3-10.3-10.3l0,0C5.1,0.5,0.5,5.1,0.5,10.8l0,0
					c0,7.7,10.3,18.9,10.3,18.9S21.1,18.6,21.1,10.8z M7.4,10.8c0-1.9,1.5-3.4,3.4-3.4l0,0c1.9,0,3.4,1.5,3.4,3.4l0,0
					c0,1.9-1.5,3.4-3.4,3.4C8.9,14.3,7.4,12.7,7.4,10.8L7.4,10.8z"/>
			</g>
		</g>
	</g>
</g>
</svg>
