<?xml version="1.0" encoding="utf-8"?>
<!-- Generator: Adobe Illustrator 27.8.1, SVG Export Plug-In . SVG Version: 6.00 Build 0)  -->
<svg version="1.1" id="Ebene_1" xmlns="http://www.w3.org/2000/svg" xmlns:xlink="http://www.w3.org/1999/xlink" x="0px" y="0px"
	 viewBox="0 0 70 82" style="enable-background:new 0 0 70 82;" xml:space="preserve">
<style type="text/css">
	.st0{fill:none;stroke:#002948;stroke-linejoin:round;}
	.st1{fill:none;stroke:#002B4F;}
	.st2{fill:none;stroke:#002948;stroke-width:0.9695;}
</style>
<g id="Gruppe_2778" transform="translate(0 80)">
	<g>
		<g id="Gruppe_2781">
			<g id="Gruppe_2778-2" transform="translate(67.849 -67.931)">
				<path id="Pfad_1611" class="st0" d="M0.9,1c-15.4-15.4-40.3-15.4-55.7,0l0,0c-15.4,15.4-15.4,40.4,0,55.9
					c15.4,15.4,40.3,15.4,55.7,0l0,0"/>
			</g>
			<g id="Gruppe_2779" transform="translate(20.854 -59.697)">
				<path id="Pfad_1612" class="st0" d="M0.9,1v26.8c0,2.8,2.2,5,5,5h15.2c2.8,0,5-2.2,5-5V1H0.9z"/>
			</g>
			<g id="Gruppe_2780" transform="translate(33.469 -59.516)">
				<path id="Pfad_1613" class="st0" d="M0.9,0.8c1.5,0,2.8-1.2,2.8-2.8c0-1.5-1.2-2.8-2.8-2.8S-1.9-3.5-1.9-2
					C-1.9-0.4-0.6,0.8,0.9,0.8z"/>
			</g>
		</g>
	</g>
	<g id="Gruppe_2782" transform="translate(45.326 -36.021)">
		<path id="Pfad_1615" class="st1" d="M1.3,1h-4.1 M1.3-6.8h-4.1 M1.3-14.6h-4.1"/>
	</g>
	<path id="Pfad_1616" class="st2" d="M30.9-22.9h6.9v-3.9h-6.9V-22.9z"/>
	<g id="Gruppe_2783" transform="translate(57.691 -33.802)">
		<path id="Pfad_1617" class="st0" d="M0.9,1.3l1.2,4.2h4.4l1.3-4.2H0.9z"/>
	</g>
	<g>
		<g id="Gruppe_2785">
			<g id="Gruppe_2784" transform="translate(33.363 -24.233)">
				<path id="Pfad_1618" class="st0" d="M0.9,1c0,5.1,4.2,9.3,9.3,9.3s9.3-4.2,9.3-9.3l0,0c0-5.1,0-9,0-9c0-2.6,2.1-4.6,4.6-4.7l0,0
					c2.6,0,4.6,2.1,4.6,4.7"/>
			</g>
		</g>
	</g>
	<g id="Gruppe_2786" transform="translate(61.257 -29.318)">
		<path id="Pfad_1620" class="st0" d="M0.9,1v5.9"/>
	</g>
</g>
</svg>
