<?xml version="1.0" encoding="utf-8"?>
<!-- Generator: Adobe Illustrator 27.8.1, SVG Export Plug-In . SVG Version: 6.00 Build 0)  -->
<svg version="1.1" id="Ebene_1" xmlns="http://www.w3.org/2000/svg" xmlns:xlink="http://www.w3.org/1999/xlink" x="0px" y="0px"
	 viewBox="0 0 61 61" style="enable-background:new 0 0 61 61;" xml:space="preserve">
<style type="text/css">
	.st0{fill:#1982DB;}
	.st1{fill:#1982DB;stroke:#FFFFFF;stroke-linecap:round;stroke-linejoin:round;}
</style>
<g id="Gruppe_2904" transform="translate(0 60)">
	<g>
		<g id="Gruppe_2903">
			<g id="Gruppe_2901" transform="translate(30 -60)">
				<path id="Pfad_1662" class="st0" d="M0.5,0.5c16.6,0,30,13.4,30,30s-13.4,30-30,30s-30-13.4-30-30S-16.1,0.5,0.5,0.5"/>
			</g>
			<g id="Gruppe_2902" transform="translate(34.457 -41.34)">
				<path id="Pfad_1663" class="st1" d="M0.5,0.5l5.9,5.9 M-6.9,7.9l5.9,5.9 M-0.8,13.9l7.5-7.5l4.7-1.2C11.8,5.1,12,4.8,12,4.4
					c0-0.2-0.1-0.4-0.3-0.5L3-4.8C2.8-5.1,2.3-5.2,2-5C1.8-4.9,1.7-4.7,1.7-4.5L0.5,0.2L-7,7.7l-8.6,0.8c-0.7,0.1-0.8,0.6-0.4,1.1
					l13.2,13.2c0.5,0.5,1,0.3,1.1-0.4L-0.8,13.9z M-8.1,17.7l-6.4,6.4l-3.4,0.6l0.6-3.4l6.4-6.4"/>
			</g>
		</g>
	</g>
</g>
</svg>
