<?xml version="1.0" encoding="utf-8"?>
<!-- Generator: Adobe Illustrator 27.8.1, SVG Export Plug-In . SVG Version: 6.00 Build 0)  -->
<svg version="1.1" id="Ebene_1" xmlns="http://www.w3.org/2000/svg" xmlns:xlink="http://www.w3.org/1999/xlink" x="0px" y="0px"
	 viewBox="0 0 70 82" style="enable-background:new 0 0 70 82;" xml:space="preserve">
<style type="text/css">
	.st0{fill:none;stroke:#002948;stroke-linejoin:round;}
	.st1{fill:none;stroke:#002948;}
</style>
<g id="Gruppe_2772" transform="translate(0 80)">
	<g>
		<g id="Gruppe_2774">
			<g id="Gruppe_2772-2" transform="translate(67.931 -67.931)">
				<path id="Pfad_1604" class="st0" d="M0.9,1C-14.6-14.4-39.6-14.4-55,1s-15.4,40.4,0,55.9c15.4,15.4,40.4,15.4,55.9,0"/>
			</g>
			<g id="Gruppe_2773" transform="translate(24.247 -17.549)">
				<path id="Pfad_1605" class="st1" d="M0.9,1h31.5c0.8,0,1.4-0.6,1.4-1.4v-42.1c0-0.8-0.6-1.4-1.4-1.4H0.9c-0.8,0-1.4,0.6-1.4,1.4
					v42.1C-0.6,0.4,0.1,1,0.9,1L0.9,1z M7.8-43.7v4.8c0,1.2,0.9,2.1,2.1,2.1l0,0h13.5c1.2,0,2.1-0.9,2.1-2.1l0,0v-4.8 M22.3-23.4H19
					v-3.2h-5v3.2h-3.1v5H14v3.2h5v-3.2h3.3V-23.4L22.3-23.4z"/>
			</g>
		</g>
	</g>
	<path id="Pfad_1607" class="st1" d="M27.4-20.6h27V-58h-27C27.4-58,27.4-20.6,27.4-20.6z"/>
</g>
</svg>
